<svg width="72" height="72" viewBox="0 0 72 72" fill="none" xmlns="http://www.w3.org/2000/svg">
<rect width="72" height="72" rx="36" fill="#E6F6FE"/>
<path d="M21.5881 41.0826L20.6146 41.311L21.5881 41.0826ZM21.5881 30.9174L20.6146 30.689L21.5881 30.9174ZM50.4119 30.9174L49.4383 31.1458L50.4119 30.9174ZM50.4119 41.0826L49.4383 40.8542L50.4119 41.0826ZM41.0826 50.4119L40.8542 49.4383L41.0826 50.4119ZM30.9174 50.4119L30.689 51.3855L30.9174 50.4119ZM30.9174 21.5881L30.689 20.6146L30.9174 21.5881ZM41.0826 21.5881L40.8542 22.5617L41.0826 21.5881ZM22.5617 40.8543C21.8128 37.6614 21.8128 34.3386 22.5617 31.1458L20.6146 30.689C19.7951 34.1823 19.7951 37.8177 20.6146 41.311L22.5617 40.8543ZM49.4383 31.1458C50.1872 34.3386 50.1872 37.6614 49.4383 40.8542L51.3855 41.311C52.2049 37.8177 52.2049 34.1823 51.3855 30.689L49.4383 31.1458ZM40.8542 49.4383C37.6614 50.1872 34.3386 50.1872 31.1458 49.4383L30.689 51.3855C34.1823 52.2049 37.8177 52.2049 41.311 51.3855L40.8542 49.4383ZM31.1458 22.5617C34.3386 21.8128 37.6614 21.8128 40.8542 22.5617L41.311 20.6146C37.8177 19.7951 34.1823 19.7951 30.689 20.6146L31.1458 22.5617ZM31.1458 49.4383C26.8865 48.4392 23.5608 45.1135 22.5617 40.8543L20.6146 41.311C21.7871 46.3098 25.6902 50.2129 30.689 51.3855L31.1458 49.4383ZM41.311 51.3855C46.3098 50.2129 50.2129 46.3098 51.3855 41.311L49.4383 40.8542C48.4392 45.1135 45.1135 48.4392 40.8542 49.4383L41.311 51.3855ZM40.8542 22.5617C45.1135 23.5608 48.4392 26.8865 49.4383 31.1458L51.3855 30.689C50.2129 25.6902 46.3098 21.7871 41.311 20.6146L40.8542 22.5617ZM30.689 20.6146C25.6902 21.7871 21.7871 25.6902 20.6146 30.689L22.5617 31.1458C23.5608 26.8865 26.8865 23.5608 31.1458 22.5617L30.689 20.6146Z" fill="#0063BF"/>
<path d="M29.7988 41.2014C29.7988 41.7537 30.2465 42.2014 30.7988 42.2014C31.3511 42.2014 31.7988 41.7537 31.7988 41.2014H29.7988ZM31.7988 34.2663C31.7988 33.714 31.3511 33.2663 30.7988 33.2663C30.2465 33.2663 29.7988 33.714 29.7988 34.2663H31.7988ZM40.2016 41.2014C40.2016 41.7537 40.6493 42.2014 41.2016 42.2014C41.7538 42.2014 42.2016 41.7537 42.2016 41.2014H40.2016ZM42.2016 36C42.2016 35.4478 41.7538 35 41.2016 35C40.6493 35 40.2016 35.4478 40.2016 36H42.2016ZM35.0002 39.4676C35.0002 40.0199 35.4479 40.4676 36.0002 40.4676C36.5525 40.4676 37.0002 40.0199 37.0002 39.4676H35.0002ZM37.0002 30.7987C37.0002 30.2464 36.5525 29.7987 36.0002 29.7987C35.4479 29.7987 35.0002 30.2464 35.0002 30.7987H37.0002ZM31.7988 41.2014V34.2663H29.7988V41.2014H31.7988ZM42.2016 41.2014V36H40.2016V41.2014H42.2016ZM37.0002 39.4676V30.7987H35.0002V39.4676H37.0002Z" fill="#008CEF"/>
</svg>
