<svg width="72" height="72" viewBox="0 0 72 72" fill="none" xmlns="http://www.w3.org/2000/svg">
<rect width="72" height="72" rx="36" fill="#E6F6FE"/>
<path d="M36.5244 48.4836L35.5931 48.1193L36.5244 48.4836ZM22.2991 39.5629L23.2737 39.3389L22.2991 39.5629ZM22.2935 31.3774L21.3189 31.1534H21.3189L22.2935 31.3774ZM49.7467 31.7457L50.7213 31.5217L50.7213 31.5217L49.7467 31.7457ZM49.7467 39.1701L48.7721 38.9461L49.7467 39.1701ZM31.5272 50.7055L31.1341 51.625H31.1341L31.5272 50.7055ZM32.1499 21.4524L32.3827 22.4249L32.3827 22.4249L32.1499 21.4524ZM39.8057 21.4524L39.5729 22.4249L39.8057 21.4524ZM31.3303 50.6213L31.7234 49.7018H31.7234L31.3303 50.6213ZM40.4409 21.6044L40.6737 20.6319V20.6319L40.4409 21.6044ZM49.5986 31.1015L48.6241 31.3255V31.3255L49.5986 31.1015ZM31.7781 21.5413L31.5453 20.5688V20.5688L31.7781 21.5413ZM32.0109 22.5139L32.3827 22.4249L31.9171 20.4798L31.5453 20.5688L32.0109 22.5139ZM39.5729 22.4249L40.2081 22.5769L40.6737 20.6319L40.0385 20.4798L39.5729 22.4249ZM31.9203 49.786L31.7234 49.7018L30.9372 51.5408L31.1341 51.625L31.9203 49.786ZM48.6241 31.3255L48.7721 31.9697L50.7213 31.5217L50.5732 30.8774L48.6241 31.3255ZM39.6208 46.5446H37.8519V48.5446H39.6208V46.5446ZM37.8519 46.5446C36.8312 46.5446 35.9534 47.1982 35.5931 48.1193L37.4557 48.8479C37.537 48.64 37.7107 48.5446 37.8519 48.5446V46.5446ZM23.2737 39.3389C22.6909 36.8032 22.6859 34.1344 23.2681 31.6014L21.3189 31.1534C20.6683 33.984 20.6745 36.9591 21.3246 39.787L23.2737 39.3389ZM48.7721 31.9697C49.2991 34.262 49.2991 36.6538 48.7721 38.9461L50.7213 39.3941C51.316 36.807 51.316 34.1088 50.7213 31.5217L48.7721 31.9697ZM31.1341 51.625C33.6478 52.6997 36.4638 51.3838 37.4557 48.8479L35.5931 48.1193C34.9805 49.6856 33.317 50.3831 31.9203 49.786L31.1341 51.625ZM32.3827 22.4249C34.7493 21.8584 37.2063 21.8584 39.5729 22.4249L40.0385 20.4798C37.3658 19.8401 34.5898 19.8401 31.9171 20.4798L32.3827 22.4249ZM31.7234 49.7018C27.5156 47.9029 24.3513 44.0267 23.2737 39.3389L21.3246 39.787C22.537 45.0615 26.1086 49.4765 30.9372 51.5408L31.7234 49.7018ZM48.7721 38.9461C47.74 43.4363 43.9348 46.5446 39.6208 46.5446V48.5446C44.9294 48.5446 49.4948 44.7301 50.7213 39.3941L48.7721 38.9461ZM40.2081 22.5769C44.3396 23.5659 47.6158 26.939 48.6241 31.3255L50.5732 30.8774C49.4045 25.793 45.5851 21.8076 40.6737 20.6319L40.2081 22.5769ZM31.5453 20.5688C26.4725 21.7831 22.5265 25.8999 21.3189 31.1534L23.2681 31.6014C24.3152 27.0458 27.718 23.5415 32.0109 22.5139L31.5453 20.5688Z" fill="#0063BF"/>
<path d="M30.4941 30.0965C29.9419 30.0965 29.4941 30.5442 29.4941 31.0965C29.4941 31.6488 29.9419 32.0965 30.4941 32.0965V30.0965ZM40.5469 32.0965C41.0992 32.0965 41.5469 31.6488 41.5469 31.0965C41.5469 30.5442 41.0992 30.0965 40.5469 30.0965V32.0965ZM30.4941 35.8568C29.9419 35.8568 29.4941 36.3045 29.4941 36.8568C29.4941 37.4091 29.9419 37.8568 30.4941 37.8568V35.8568ZM36.8914 37.8568C37.4436 37.8568 37.8914 37.4091 37.8914 36.8568C37.8914 36.3045 37.4436 35.8568 36.8914 35.8568V37.8568ZM30.4941 32.0965H40.5469V30.0965H30.4941V32.0965ZM30.4941 37.8568H36.8914V35.8568H30.4941V37.8568Z" fill="#008CEF"/>
</svg>
