<svg width="72" height="72" viewBox="0 0 72 72" fill="none" xmlns="http://www.w3.org/2000/svg">
<rect width="72" height="72" rx="36" fill="#E6F6FE"/>
<path d="M50.2936 51.707C50.6841 52.0975 51.3173 52.0975 51.7078 51.707C52.0983 51.3165 52.0983 50.6833 51.7078 50.2928L50.2936 51.707ZM44.1855 45.5989L50.2936 51.707L51.7078 50.2928L45.5997 44.1847L44.1855 45.5989Z" fill="#008CEF"/>
<path d="M21.5262 38.9684L22.4998 38.7401L21.5262 38.9684ZM21.5262 29.8733L22.4998 30.1017L21.5262 29.8733ZM47.3155 29.8733L48.2891 29.645L47.3155 29.8733ZM47.3155 38.9684L46.342 38.74L47.3155 38.9684ZM38.9684 47.3155L38.74 46.342L38.9684 47.3155ZM29.8733 47.3155L29.645 48.2891L29.8733 47.3155ZM29.8733 21.5262L29.645 20.5526L29.8733 21.5262ZM38.9684 21.5262L39.1968 20.5526L38.9684 21.5262ZM22.4998 38.7401C21.8334 35.8992 21.8334 32.9426 22.4998 30.1017L20.5526 29.645C19.8158 32.7863 19.8158 36.0555 20.5526 39.1968L22.4998 38.7401ZM46.342 30.1017C47.0083 32.9426 47.0083 35.8992 46.342 38.74L48.2891 39.1968C49.026 36.0555 49.026 32.7863 48.2891 29.645L46.342 30.1017ZM38.74 46.342C35.8992 47.0083 32.9426 47.0083 30.1017 46.342L29.645 48.2891C32.7863 49.026 36.0555 49.026 39.1968 48.2891L38.74 46.342ZM30.1017 22.4998C32.9426 21.8334 35.8992 21.8334 38.74 22.4998L39.1968 20.5526C36.0555 19.8158 32.7863 19.8158 29.645 20.5526L30.1017 22.4998ZM30.1017 46.342C26.3297 45.4572 23.3846 42.512 22.4998 38.7401L20.5526 39.1968C21.6109 43.7083 25.1335 47.2309 29.645 48.2891L30.1017 46.342ZM39.1968 48.2891C43.7083 47.2309 47.2309 43.7083 48.2891 39.1968L46.342 38.74C45.4572 42.512 42.512 45.4572 38.74 46.342L39.1968 48.2891ZM38.74 22.4998C42.512 23.3846 45.4572 26.3297 46.342 30.1017L48.2891 29.645C47.2309 25.1335 43.7083 21.6109 39.1968 20.5526L38.74 22.4998ZM29.645 20.5526C25.1335 21.6109 21.6109 25.1335 20.5526 29.645L22.4998 30.1017C23.3846 26.3297 26.3297 23.3846 30.1017 22.4998L29.645 20.5526Z" fill="#008CEF"/>
<path d="M21.5262 38.9684L22.4998 38.7401L21.5262 38.9684ZM22.4998 30.1017C22.6259 29.564 22.2923 29.0259 21.7546 28.8998C21.2169 28.7736 20.6788 29.1073 20.5526 29.645L22.4998 30.1017ZM47.3155 29.8733L48.2891 29.645L47.3155 29.8733ZM47.3155 38.9684L46.342 38.74L47.3155 38.9684ZM38.9684 47.3155L38.74 46.342L38.9684 47.3155ZM29.8733 47.3155L29.645 48.2891L29.8733 47.3155ZM29.645 20.5526C29.1073 20.6788 28.7736 21.2169 28.8998 21.7546C29.0259 22.2923 29.564 22.6259 30.1017 22.4998L29.645 20.5526ZM38.9684 21.5262L39.1968 20.5526L38.9684 21.5262ZM22.4998 38.7401C21.8334 35.8992 21.8334 32.9426 22.4998 30.1017L20.5526 29.645C19.8158 32.7863 19.8158 36.0555 20.5526 39.1968L22.4998 38.7401ZM46.342 30.1017C47.0083 32.9426 47.0083 35.8992 46.342 38.74L48.2891 39.1968C49.026 36.0555 49.026 32.7863 48.2891 29.645L46.342 30.1017ZM38.74 46.342C35.8992 47.0083 32.9426 47.0083 30.1017 46.342L29.645 48.2891C32.7863 49.026 36.0555 49.026 39.1968 48.2891L38.74 46.342ZM30.1017 22.4998C32.9426 21.8334 35.8992 21.8334 38.74 22.4998L39.1968 20.5526C36.0555 19.8158 32.7863 19.8158 29.645 20.5526L30.1017 22.4998ZM30.1017 46.342C26.3297 45.4572 23.3846 42.512 22.4998 38.7401L20.5526 39.1968C21.6109 43.7083 25.1335 47.2309 29.645 48.2891L30.1017 46.342ZM39.1968 48.2891C43.7083 47.2309 47.2309 43.7083 48.2891 39.1968L46.342 38.74C45.4572 42.512 42.512 45.4572 38.74 46.342L39.1968 48.2891ZM38.74 22.4998C42.512 23.3846 45.4572 26.3297 46.342 30.1017L48.2891 29.645C47.2309 25.1335 43.7083 21.6109 39.1968 20.5526L38.74 22.4998Z" fill="#0063BF"/>
</svg>
