<svg width="72" height="72" viewBox="0 0 72 72" fill="none" xmlns="http://www.w3.org/2000/svg">
<rect width="72" height="72" rx="36" fill="#E6F6FE"/>
<path d="M21.5881 30.9174C22.674 26.2883 26.2883 22.674 30.9174 21.5881C34.2604 20.804 37.7396 20.804 41.0826 21.5881C45.7117 22.674 49.326 26.2883 50.4119 30.9174C51.196 34.2604 51.196 37.7396 50.4119 41.0826C49.326 45.7117 45.7117 49.326 41.0826 50.4119C37.7396 51.196 34.2604 51.196 30.9174 50.4119C26.2884 49.3261 22.674 45.7117 21.5881 41.0826C20.804 37.7396 20.804 34.2604 21.5881 30.9174Z" stroke="#008CEF" stroke-width="2"/>
<path d="M21.5881 30.9174C20.804 34.2604 20.804 37.7396 21.5881 41.0826C22.674 45.7117 26.2884 49.3261 30.9174 50.4119C34.2604 51.196 37.7396 51.196 41.0826 50.4119C45.7117 49.326 49.326 45.7117 50.4119 41.0826C51.196 37.7396 51.196 34.2604 50.4119 30.9174C49.326 26.2883 45.7117 22.6739 41.0826 21.5881" stroke="#0063BF" stroke-width="2" stroke-linecap="round"/>
<path d="M28.9044 30.9585C28.5138 30.5679 27.8807 30.5679 27.4902 30.9585C27.0996 31.349 27.0996 31.9822 27.4902 32.3727L28.9044 30.9585ZM29.9311 33.3994L29.2239 34.1065C29.4115 34.294 29.6658 34.3994 29.9311 34.3994C30.1963 34.3994 30.4506 34.294 30.6382 34.1065L29.9311 33.3994ZM34.1057 30.6389C34.4963 30.2484 34.4963 29.6152 34.1057 29.2247C33.7152 28.8342 33.082 28.8342 32.6915 29.2247L34.1057 30.6389ZM37.7331 31.5325C37.1808 31.5325 36.7331 31.9802 36.7331 32.5325C36.7331 33.0848 37.1808 33.5325 37.7331 33.5325V31.5325ZM43.8014 33.5325C44.3536 33.5325 44.8014 33.0848 44.8014 32.5325C44.8014 31.9802 44.3536 31.5325 43.8014 31.5325V33.5325ZM28.9044 39.6274C28.5138 39.2369 27.8807 39.2369 27.4902 39.6274C27.0996 40.0179 27.0996 40.6511 27.4902 41.0416L28.9044 39.6274ZM29.9311 42.0683L29.2239 42.7754C29.6145 43.1659 30.2476 43.1659 30.6382 42.7754L29.9311 42.0683ZM34.1057 39.3078C34.4963 38.9173 34.4963 38.2842 34.1057 37.8936C33.7152 37.5031 33.082 37.5031 32.6915 37.8936L34.1057 39.3078ZM37.7331 40.2014C37.1808 40.2014 36.7331 40.6491 36.7331 41.2014C36.7331 41.7537 37.1808 42.2014 37.7331 42.2014V40.2014ZM43.8014 42.2014C44.3536 42.2014 44.8014 41.7537 44.8014 41.2014C44.8014 40.6491 44.3536 40.2014 43.8014 40.2014V42.2014ZM27.4902 32.3727L29.2239 34.1065L30.6382 32.6923L28.9044 30.9585L27.4902 32.3727ZM30.6382 34.1065L34.1057 30.6389L32.6915 29.2247L29.2239 32.6923L30.6382 34.1065ZM37.7331 33.5325H43.8014V31.5325H37.7331V33.5325ZM27.4902 41.0416L29.2239 42.7754L30.6382 41.3612L28.9044 39.6274L27.4902 41.0416ZM30.6382 42.7754L34.1057 39.3078L32.6915 37.8936L29.2239 41.3612L30.6382 42.7754ZM37.7331 42.2014H43.8014V40.2014H37.7331V42.2014Z" fill="#008CEF"/>
</svg>
