<svg width="72" height="72" viewBox="0 0 72 72" fill="none" xmlns="http://www.w3.org/2000/svg">
<rect width="72" height="72" rx="36" fill="#E6F6FE"/>
<path d="M31.0156 45.8391L31.1273 44.8453L29.9309 44.7108L30.0183 45.9116L31.0156 45.8391ZM40.9853 45.8391L41.9827 45.9116L42.07 44.7108L40.8736 44.8453L40.9853 45.8391ZM40.834 46.7954L41.8051 47.0342V47.0342L40.834 46.7954ZM40.6974 47.351L39.7263 47.1123L39.7263 47.1123L40.6974 47.351ZM37.1736 50.8617L37.4062 51.8343H37.4062L37.1736 50.8617ZM34.8273 50.8617L34.5947 51.8343H34.5947L34.8273 50.8617ZM31.3035 47.351L32.2746 47.1123V47.1123L31.3035 47.351ZM31.1669 46.7954L30.1958 47.0342L30.1958 47.0342L31.1669 46.7954ZM30.9039 46.8328C34.291 47.2136 37.7099 47.2136 41.097 46.8328L40.8736 44.8453C37.635 45.2094 34.3659 45.2094 31.1273 44.8453L30.9039 46.8328ZM41.8051 47.0342C41.8958 46.6654 41.9551 46.2899 41.9827 45.9116L39.9879 45.7665C39.9686 46.0328 39.9268 46.2971 39.863 46.5567L41.8051 47.0342ZM41.6685 47.5898L41.8051 47.0342L39.863 46.5567L39.7263 47.1123L41.6685 47.5898ZM37.4062 51.8343C39.5083 51.3314 41.1516 49.6921 41.6685 47.5898L39.7263 47.1123C39.3872 48.4913 38.3109 49.5614 36.9409 49.8891L37.4062 51.8343ZM34.5947 51.8343C35.5189 52.0554 36.482 52.0554 37.4062 51.8343L36.9409 49.8891C36.3226 50.0371 35.6783 50.0371 35.06 49.8891L34.5947 51.8343ZM30.3324 47.5898C30.8493 49.6921 32.4926 51.3314 34.5947 51.8343L35.06 49.8891C33.69 49.5614 32.6137 48.4913 32.2746 47.1123L30.3324 47.5898ZM30.1958 47.0342L30.3324 47.5898L32.2746 47.1123L32.138 46.5567L30.1958 47.0342ZM30.0183 45.9116C30.0458 46.2899 30.1051 46.6654 30.1958 47.0342L32.138 46.5567C32.0741 46.2971 32.0324 46.0328 32.013 45.7665L30.0183 45.9116Z" fill="#008CEF"/>
<path d="M37 21C37 20.4477 36.5523 20 36 20C35.4477 20 35 20.4477 35 21H37ZM35 22.6746C35 23.2269 35.4477 23.6746 36 23.6746C36.5523 23.6746 37 23.2269 37 22.6746H35ZM35 21V22.6746H37V21H35Z" fill="#008CEF"/>
<path d="M26.0463 30.3876L27.0115 30.6492L27.0115 30.6492L26.0463 30.3876ZM32.9306 23.1704L32.6223 22.2191V22.2191L32.9306 23.1704ZM25.9716 30.6634L25.0064 30.4019L25.0064 30.4019L25.9716 30.6634ZM25.6493 37.4457L26.6349 37.277L26.6349 37.277L25.6493 37.4457ZM25.6868 37.6648L24.7011 37.8336L24.7011 37.8336L25.6868 37.6648ZM26.4793 45.0953L26.6789 44.1154L26.6789 44.1154L26.4793 45.0953ZM27.092 45.2201L26.8924 46.1999H26.8924L27.092 45.2201ZM44.908 45.2201L45.1076 46.1999L44.908 45.2201ZM45.5207 45.0953L45.3211 44.1154L45.3211 44.1154L45.5207 45.0953ZM46.3204 37.6228L47.3061 37.7916V37.7916L46.3204 37.6228ZM46.3602 37.3904L45.3745 37.2217V37.2217L46.3602 37.3904ZM46.0695 30.7104L45.1023 30.9642V30.9642L46.0695 30.7104ZM45.9655 30.3139L46.9328 30.0601V30.0601L45.9655 30.3139ZM39.2784 23.1806L39.5921 22.2311L39.2784 23.1806ZM46.5883 38.1679L46.1 39.0406L46.5883 38.1679ZM25.4466 38.1486L25.9255 39.0265L25.4466 38.1486ZM27.0115 30.6492C27.8464 27.568 30.2107 25.1033 33.239 24.1216L32.6223 22.2191C28.956 23.4075 26.094 26.3878 25.0811 30.1261L27.0115 30.6492ZM26.9368 30.9249L27.0115 30.6492L25.0811 30.1261L25.0064 30.4019L26.9368 30.9249ZM26.6349 37.277C26.2729 35.1628 26.376 32.9947 26.9368 30.9249L25.0064 30.4019C24.3696 32.7522 24.2526 35.214 24.6636 37.6145L26.6349 37.277ZM26.6724 37.496L26.6349 37.277L24.6636 37.6145L24.7011 37.8336L26.6724 37.496ZM24.5 41.434C24.5 40.3939 25.0759 39.49 25.9255 39.0265L24.9677 37.2708C23.4984 38.0723 22.5 39.6364 22.5 41.434H24.5ZM26.6789 44.1154C25.4144 43.8578 24.5 42.7389 24.5 41.434H22.5C22.5 43.6832 24.0774 45.6265 26.2797 46.0751L26.6789 44.1154ZM27.2916 44.2402L26.6789 44.1154L26.2797 46.0751L26.8924 46.1999L27.2916 44.2402ZM44.7084 44.2402C38.9613 45.411 33.0387 45.411 27.2916 44.2402L26.8924 46.1999C32.903 47.4244 39.097 47.4244 45.1076 46.1999L44.7084 44.2402ZM45.3211 44.1154L44.7084 44.2402L45.1076 46.1999L45.7203 46.0751L45.3211 44.1154ZM47.5 41.4339C47.5 42.7389 46.5856 43.8578 45.3211 44.1154L45.7203 46.0751C47.9226 45.6265 49.5 43.6832 49.5 41.4339H47.5ZM46.1 39.0406C46.9357 39.5082 47.5 40.4044 47.5 41.4339H49.5C49.5 39.6546 48.5216 38.1038 47.0767 37.2953L46.1 39.0406ZM45.3745 37.2217L45.3348 37.454L47.3061 37.7916L47.3459 37.5592L45.3745 37.2217ZM45.1023 30.9642C45.638 33.0063 45.7309 35.1403 45.3745 37.2217L47.3459 37.5592C47.7503 35.1968 47.645 32.7746 47.0368 30.4566L45.1023 30.9642ZM44.9982 30.5677L45.1023 30.9642L47.0368 30.4566L46.9328 30.0601L44.9982 30.5677ZM38.9648 24.1302C41.9295 25.1093 44.2016 27.5313 44.9982 30.5677L46.9328 30.0601C45.965 26.3715 43.2032 23.4237 39.5921 22.2311L38.9648 24.1302ZM33.239 24.1216C35.0963 23.5196 37.1154 23.5194 38.9648 24.1302L39.5921 22.2311C37.3344 21.4854 34.8795 21.4874 32.6223 22.2191L33.239 24.1216ZM47.0767 37.2953C47.2291 37.3806 47.3446 37.5668 47.3061 37.7916L45.3348 37.454C45.2213 38.1168 45.5611 38.739 46.1 39.0406L47.0767 37.2953ZM24.7011 37.8336C24.6584 37.5842 24.7868 37.3695 24.9677 37.2708L25.9255 39.0265C26.4529 38.7388 26.782 38.1358 26.6724 37.496L24.7011 37.8336Z" fill="#0063BF"/>
</svg>
