<svg width="64" height="64" viewBox="0 0 64 64" fill="none" xmlns="http://www.w3.org/2000/svg">
<path d="M32.0007 10.6667C41.464 10.6667 49.2446 17.4058 50.1569 26.0332C55.1615 28.2069 58.6673 33.2442 58.6673 39.1112C58.6673 46.9659 52.3836 53.3334 44.6322 53.3334L17.9656 53.3334C10.9893 53.3334 5.33398 47.6027 5.33398 40.5334C5.33398 34.9541 8.85663 30.2086 13.7711 28.456C13.7604 28.2164 13.755 27.9755 13.755 27.7334C13.755 18.3078 21.9239 10.6667 32.0007 10.6667Z" stroke="#008CEF" stroke-width="2"/>
<path d="M32.0007 10.6667C21.9239 10.6667 13.755 18.3078 13.755 27.7334C13.755 27.9755 13.7604 28.2164 13.7711 28.456C8.85663 30.2086 5.33398 34.9541 5.33398 40.5334C5.33398 47.6027 10.9893 53.3334 17.9656 53.3334L44.6322 53.3334C52.3836 53.3334 58.6673 46.9659 58.6673 39.1112" stroke="#ACE3FF" stroke-width="2" stroke-linecap="round"/>
</svg>
