<svg width="64" height="64" viewBox="0 0 64 64" fill="none" xmlns="http://www.w3.org/2000/svg">
<path d="M48.028 8H15.9704C11.6669 8 9.16086 12.8965 11.6574 16.4272L22.59 31.8889C23.8675 33.6956 24.554 35.8586 24.554 38.0767V48.8781C24.554 52.8114 27.7197 56 31.6248 56C35.5299 56 38.6956 52.8114 38.6956 48.8781V38.236C38.6956 35.9195 39.4443 33.666 40.8286 31.816L52.2566 16.5433C54.8862 13.029 52.3971 8 48.028 8Z" stroke="#008CEF" stroke-width="2" stroke-linecap="round" stroke-linejoin="round"/>
<path d="M38.6956 37.5865C38.6956 35.3198 39.4443 33.1146 40.8286 31.3044L52.2566 16.3598C54.8862 12.921 52.3971 8 48.028 8H15.9704C11.6669 8 9.16086 12.7914 11.6574 16.2462L22.59 31.3757C23.8675 33.1437 24.554 35.2602 24.554 37.4306V48" stroke="#ACE3FF" stroke-width="2" stroke-linecap="round" stroke-linejoin="round"/>
</svg>
