<svg width="64" height="64" viewBox="0 0 64 64" fill="none" xmlns="http://www.w3.org/2000/svg">
<path d="M31.9994 22.6667L31.9994 41.3334M31.9994 41.3334L38.666 34.6667M31.9994 41.3334L25.3327 34.6667" stroke="#008CEF" stroke-width="2" stroke-linecap="round" stroke-linejoin="round"/>
<path d="M55.059 40.1322C53.3217 47.5387 47.5386 53.3217 40.1322 55.059C34.7833 56.3137 29.2167 56.3137 23.8678 55.059C16.4614 53.3217 10.6783 47.5386 8.941 40.1322C7.68633 34.7833 7.68633 29.2167 8.941 23.8678C10.6783 16.4614 16.4613 10.6783 23.8678 8.941C29.2167 7.68633 34.7833 7.68633 40.1322 8.941C47.5386 10.6783 53.3217 16.4613 55.059 23.8678C56.3137 29.2167 56.3137 34.7833 55.059 40.1322Z" stroke="#008CEF" stroke-width="2"/>
<path d="M55.059 40.1322C56.3137 34.7833 56.3137 29.2167 55.059 23.8678C53.3217 16.4613 47.5386 10.6783 40.1322 8.941C34.7833 7.68633 29.2167 7.68633 23.8678 8.941C16.4613 10.6783 10.6783 16.4614 8.941 23.8678C7.68633 29.2167 7.68633 34.7833 8.941 40.1322C10.6783 47.5387 16.4614 53.3217 23.8678 55.059" stroke="#ACE3FF" stroke-width="2" stroke-linecap="round"/>
</svg>
