<svg width="64" height="64" viewBox="0 0 64 64" fill="none" xmlns="http://www.w3.org/2000/svg">
<path d="M8 49.1547C8 43.8155 11.8796 39.2676 17.1521 38.4262L17.627 38.3504C21.849 37.6766 26.151 37.6766 30.373 38.3504L30.8479 38.4262C36.1204 39.2676 40 43.8155 40 49.1547C40 51.4625 38.1292 53.3333 35.8214 53.3333H12.1786C9.87081 53.3333 8 51.4625 8 49.1547Z" stroke="#ACE3FF" stroke-width="2"/>
<path d="M33.3333 20C33.3333 25.1546 29.1547 29.3333 24 29.3333C18.8453 29.3333 14.6667 25.1546 14.6667 20C14.6667 14.8453 18.8453 10.6666 24 10.6666C29.1547 10.6666 33.3333 14.8453 33.3333 20Z" stroke="#ACE3FF" stroke-width="2"/>
<path d="M40 29.3333C45.1547 29.3333 49.3333 25.1546 49.3333 20C49.3333 14.8453 45.1547 10.6666 40 10.6666M46.373 53.3333H51.8214C54.1292 53.3333 56 51.4625 56 49.1547C56 43.8155 52.1204 39.2676 46.8479 38.4262V38.4262C46.5318 38.3757 46.2116 38.3504 45.8915 38.3504C45.0388 38.3504 44.774 38.3504 43.3098 38.3504" stroke="#13CE66" stroke-width="2" stroke-linecap="round"/>
</svg>
