<svg width="64" height="64" fill="none" xmlns="http://www.w3.org/2000/svg"><path d="M8.941 39.498l.973-.233-.973.233zm0-15.943l.973.232-.973-.232zm46.118 0l-.972.232.972-.232zm0 15.943l-.972-.233.972.233zM40.132 54.13l-.224-.974.224.974zm-16.264 0l-.224.975.224-.975zm0-45.208l.224.975-.224-.975zm16.264 0l-.224.975.224-.975zM9.914 39.265a33.236 33.236 0 010-15.478l-1.946-.465a35.236 35.236 0 000 16.409l1.946-.466zm44.172-15.478a33.238 33.238 0 010 15.478l1.946.466a35.235 35.235 0 000-16.41l-1.945.466zM39.909 53.156a35.308 35.308 0 01-15.816 0l-.448 1.949a37.309 37.309 0 0016.712 0l-.448-1.95zM24.092 9.897a35.308 35.308 0 0115.816 0l.448-1.95a37.308 37.308 0 00-16.712 0l.448 1.95zm0 43.259c-7.045-1.62-12.531-7.008-14.178-13.89l-1.946.465c1.828 7.638 7.908 13.587 15.676 15.374l.448-1.95zm16.264 1.949c7.768-1.786 13.848-7.736 15.675-15.374l-1.944-.466c-1.648 6.883-7.134 12.27-14.179 13.89l.448 1.95zm-.448-45.208c7.045 1.62 12.532 7.008 14.178 13.89l1.946-.465c-1.828-7.638-7.908-13.588-15.676-15.374l-.448 1.949zm-16.264-1.95C15.876 9.735 9.796 15.685 7.968 23.323l1.946.465c1.646-6.882 7.133-12.27 14.178-13.89l-.448-1.95zm14.904 45.386c0-3.899.005-5.991.286-7.425.254-1.294.724-2.015 1.852-3.12l-1.4-1.428c-1.31 1.283-2.059 2.347-2.415 4.163-.328 1.675-.323 4.018-.323 7.81h2zm15.645-14.649c-3.896 0-6.916-.002-9.263.307-2.373.313-4.208.96-5.644 2.368l1.4 1.429c1-.982 2.346-1.53 4.505-1.814 2.186-.288 5.05-.29 9.002-.29v-2z" fill="#008CEF"/><path d="M8.941 39.498l.973-.233-.973.233zm0-15.943l.973.232-.973-.232zm46.118 0l-.972.232.972-.232zm0 15.943l-.972-.233.972.233zM40.132 54.13l-.224-.974.224.974zm-16.264 0l-.224.975.224-.975zm0-45.208l.224.975-.224-.975zm16.264 0l-.224.975.224-.975zM9.914 39.265a33.236 33.236 0 010-15.478l-1.946-.465a35.236 35.236 0 000 16.409l1.946-.466zm44.172-15.478a33.238 33.238 0 010 15.478l1.946.466a35.235 35.235 0 000-16.41l-1.945.466zM39.909 53.156a35.308 35.308 0 01-15.816 0l-.448 1.949a37.309 37.309 0 0016.712 0l-.448-1.95zM24.092 9.897a35.308 35.308 0 0115.816 0l.448-1.95a37.308 37.308 0 00-16.712 0l.448 1.95zm0 43.259c-7.045-1.62-12.531-7.008-14.178-13.89l-1.946.465c1.828 7.638 7.908 13.587 15.676 15.374l.448-1.95zm16.264 1.949c7.768-1.786 13.848-7.736 15.675-15.374l-1.944-.466c-1.648 6.883-7.134 12.27-14.179 13.89l.448 1.95zm-.448-45.208c7.045 1.62 12.532 7.008 14.178 13.89l1.946-.465c-1.828-7.638-7.908-13.588-15.676-15.374l-.448 1.949zm-16.264-1.95C15.876 9.735 9.796 15.685 7.968 23.323l1.946.465c1.646-6.882 7.133-12.27 14.178-13.89l-.448-1.95z" fill="#ACE3FF"/><path d="M24 24h8m-8 8h13.333" stroke="#008CEF" stroke-width="1.5" stroke-linecap="round"/></svg>