<svg width="64" height="64" fill="none" xmlns="http://www.w3.org/2000/svg"><path d="M62.371 26.133H22.168v-.805a2.671 2.671 0 00-2.667-2.666h-3.21v-5.334h7.535c.93 0 1.697-.766 1.697-1.697V5.256c0-.941-.766-1.697-1.697-1.697H2.599c-.94 0-1.697.756-1.697 1.697V15.63a1.7 1.7 0 001.697 1.697h7.525v5.334h-3.2a2.665 2.665 0 00-2.667 2.666v28.946A3.622 3.622 0 00.902 57.89v1.823c0 .397.32.727.728.727h23.166c.397 0 .727-.33.727-.727V57.89a3.63 3.63 0 00-3.355-3.617V34.889H62.37c.408 0 .728-.33.728-.727V26.86a.726.726 0 00-.728-.727zM2.6 15.873a.246.246 0 01-.242-.242V5.256a.24.24 0 01.242-.243h21.227c.126 0 .242.107.242.243V15.63a.253.253 0 01-.242.243H2.599zm12.238 1.455v5.334H11.58v-5.334h3.258zm-9.125 8c0-.669.543-1.212 1.212-1.212h12.577c.66 0 1.212.543 1.212 1.212v11.579H5.712V25.328zm0 13.043h15.001v15.883H5.712V38.371zm18.356 19.52v1.096H2.357V57.89c0-1.203.98-2.182 2.182-2.182h17.348c1.202 0 2.181.98 2.181 2.182zm37.576-27.743h-.233a.368.368 0 00-.368.368c0 .194.165.359.368.359h.233v2.56H22.168v-5.847h39.476v2.56z" fill="#008CEF"/><path d="M27.471 30.148h-.97a.368.368 0 00-.368.368c0 .194.165.359.368.359h.97a.364.364 0 000-.727zm2.91 0h-.97a.368.368 0 00-.368.368c0 .194.165.359.369.359h.97a.364.364 0 000-.727zm-5.818 0h-.97a.368.368 0 00-.368.368c0 .194.165.359.368.359h.97a.364.364 0 000-.727zm29.092 0h-.97a.368.368 0 00-.369.368c0 .194.165.359.369.359h.97a.364.364 0 000-.727zm-2.911 0h-.97a.368.368 0 00-.368.368c0 .194.165.359.369.359h.97a.364.364 0 000-.727zm8.727 0h-.97a.368.368 0 00-.368.368c0 .194.165.359.368.359h.97a.364.364 0 000-.727zm-2.908 0h-.97a.368.368 0 00-.368.368c0 .194.164.359.368.359h.97a.364.364 0 000-.727zm-8.727 0h-.97a.368.368 0 00-.368.368c0 .194.165.359.369.359h.97a.364.364 0 000-.727zm-14.546 0h-.97a.368.368 0 00-.369.368c0 .194.165.359.369.359h.97a.364.364 0 000-.727zm2.91 0h-.97a.368.368 0 00-.369.368c0 .194.165.359.369.359h.97a.364.364 0 000-.727zm2.908 0h-.97a.368.368 0 00-.368.368c0 .194.164.359.368.359h.97a.364.364 0 000-.727zm5.82 0h-.97a.368.368 0 00-.368.368c0 .194.165.359.368.359h.97a.364.364 0 000-.727zm-2.91 0h-.97a.368.368 0 00-.368.368c0 .194.164.359.368.359h.97a.364.364 0 000-.727zM8.36 6.332a4.114 4.114 0 00-4.112 4.112 4.112 4.112 0 004.112 4.101c2.181 0 4.101-1.774 4.101-4.101A4.112 4.112 0 008.36 6.332zm2.511 4.946A2.657 2.657 0 018.36 13.09a2.659 2.659 0 01-2.657-2.647A2.661 2.661 0 018.36 7.787a2.659 2.659 0 012.511 3.49zm7.196-4.946a4.114 4.114 0 00-4.112 4.112c0 2.317 1.9 4.101 4.112 4.101a4.11 4.11 0 004.101-4.101 4.112 4.112 0 00-4.101-4.112zm0 6.759c-1.445 0-2.657-1.173-2.657-2.647a2.661 2.661 0 012.657-2.657 2.659 2.659 0 012.647 2.657 2.657 2.657 0 01-2.647 2.647z" fill="#ACE3FF"/></svg>