<svg width="64" height="64" fill="none" xmlns="http://www.w3.org/2000/svg"><path d="M45.953 35.683l.867-2.545a.856.856 0 00-.117-.782.866.866 0 00-.712-.356H18.008a.867.867 0 00-.709.353.866.866 0 00-.123.78l.828 2.532c.566 1.733 2.438 3.085 4.261 3.085h19.4c1.819 0 3.703-1.345 4.288-3.067zm-26.285-.555l-.454-1.378h25.555l-.472 1.378C43.955 36.132 42.725 37 41.665 37h-19.4c-1.055 0-2.27-.868-2.597-1.872z" fill="#008CEF"/><path d="M59.354 28.568c-.642-.66-2.244-1.943-3.31-2.693h2.442c1.649 0 2.99-1.241 2.99-2.75 0-1.637-1.643-2.75-4.09-2.75h-2.922c-.357-1.75-.768-3.659-1.138-4.652-1.226-3.292-3.784-5.348-6.675-5.348h-29.24c-2.95 0-5.663 2.16-6.75 5.358-.338.997-.74 2.892-1.098 4.642H6.614c-2.447 0-4.09 1.113-4.09 2.75 0 1.509 1.341 2.75 2.99 2.75h2.399c-.05 0-.102.074-.155.115a.873.873 0 101.067 1.383c.349-.268.65-.497.853-.65 1.865.196 12.011 1.213 22.081 1.213 10.006 0 20.475-1.005 22.508-1.21 1.048.772 3.17 2.376 3.832 3.058.664.683 1.174 1.456 1.474 2.201-1.282-.006-3.855-.016-4.67.004-2.598.065-4.523.977-5.723 2.71-.849 1.227-.873 2.986-.873 3.183a.87.87 0 00.875.868h10.693v2.582a4.298 4.298 0 01-4.296 4.293H8.421a4.298 4.298 0 01-4.296-4.293V38.75h10.693a.869.869 0 00.875-.868c0-.197-.024-1.96-.873-3.187-1.2-1.733-3.125-2.642-5.723-2.707-.8-.02-3.33-.01-4.654-.004.34-.83.903-1.657 1.445-2.208a.875.875 0 10-1.247-1.226c-1.091 1.109-2.266 3.09-2.266 4.82v7.962c0 2.593 1.625 4.81 4 5.667v4.4c0 1.204.92 2.226 2.124 2.226h4.037c1.204 0 2.214-1.022 2.214-2.226v-4.024H49v4.024c0 1.204.973 2.226 2.177 2.226h4.325c1.204 0 2.123-1.022 2.123-2.226V47c2.375-.857 4-3.074 4-5.667V33.37c0-1.545-.849-3.338-2.27-4.801zm-1.968-6.443c1.312 0 2.34.447 2.34 1 0 .535-.568 1-1.24 1h-3.348c-.095-.625-.212-1.25-.344-2h2.592zm-53.113 1c0-.553 1.029-1 2.341-1h2.614c-.135.75-.256 1.375-.354 2h-3.36c-.672 0-1.24-.465-1.24-1zm27.486 3.06c-9.155 0-18.381-.849-21.27-1.139.351-2.043 1.223-6.956 1.83-8.74.845-2.488 2.892-4.181 5.093-4.181h29.24c2.14 0 4.07 1.63 5.034 4.22.653 1.75 1.495 6.647 1.83 8.686-2.955.287-12.555 1.155-21.757 1.155zM9.053 33.74c2.036.05 3.452.684 4.328 1.949.25.361.394.937.474 1.312h-9.73v-3.264c1.168-.006 4.09-.018 4.928.003zM13 51.399c0 .24-.225.476-.464.476H8.498c-.24 0-.374-.236-.374-.476v-4.032c0 .007.176.008.296.008H13v4.024zm42.875 0c0 .24-.134.476-.373.476h-4.325c-.239 0-.427-.236-.427-.476v-4.024h4.83c.119 0 .295-.002.295-.008v4.032zM50.145 37c.08-.375.225-.952.474-1.312.876-1.266 2.291-1.902 4.328-1.953.852-.021 3.82-.004 4.928.002V37h-9.73z" fill="#ACE3FF"/><path d="M23.52 40.25a.875.875 0 000 1.75h16.96a.875.875 0 100-1.75H23.52z" fill="#008CEF"/></svg>