<svg width="64" height="64" fill="none" xmlns="http://www.w3.org/2000/svg"><path d="M31.999 10.667c9.463 0 17.244 6.739 18.156 15.366 5.005 2.174 8.51 7.211 8.51 13.078 0 7.855-6.283 14.222-14.035 14.222H17.964c-6.977 0-12.632-5.73-12.632-12.8 0-5.579 3.523-10.325 8.437-12.077-.01-.24-.016-.48-.016-.723 0-9.425 8.169-17.066 18.246-17.066z" stroke="#008CEF" stroke-width="2"/><path d="M31.999 10.667c-10.077 0-18.246 7.64-18.246 17.066 0 .242.005.483.016.723-4.914 1.753-8.437 6.498-8.437 12.077 0 7.07 5.655 12.8 12.632 12.8H44.63c7.752 0 14.035-6.367 14.035-14.222" stroke="#ACE3FF" stroke-width="2" stroke-linecap="round"/></svg>