<svg width="64" height="64" fill="none" xmlns="http://www.w3.org/2000/svg"><path d="M12.408 45.456l.925-.378-.925.378zm-.926-14.936l-.965-.262.965.262zm41.035 0l.964-.262-.965.262zm-.926 14.936l-.925-.378.925.378zM37.43 55.58l-.154-.988.154.988zm-10.861 0l.154-.988-.154.988zm-5.017-34.82l-.198-.98.198.98zm20.894 0l-.198.981.198-.98zM24.572 55.27l-.154.987.154-.988zm-11.917-9.208l-.925.379.925-.379zm26.771 9.207l.154.988-.154-.988zm11.917-9.207l.926.379-.926-.379zm.97-16.292l-.966.262.965-.262zm-40.627 0l.965.262-.965-.262zm27.587 24.51l-1.997.31.308 1.977 1.996-.31-.307-1.977zm-12.55.31l-1.997-.31-.308 1.976 1.997.311.308-1.976zm24.624-24.559l.204.75 1.93-.524-.204-.75-1.93.524zm-.681 15.046l-.248.606 1.851.757.248-.606-1.852-.757zm-37.085.606l-.248-.606-1.851.757.248.606 1.85-.757zm-1.134-14.901l.204-.75-1.93-.526-.204.751 1.93.525zm.886 14.295a22.257 22.257 0 01-.886-14.295l-1.93-.525a24.257 24.257 0 00.965 15.577l1.851-.757zm38.218-14.295a22.257 22.257 0 01-.886 14.295l1.852.757a24.257 24.257 0 00.964-15.577l-1.93.525zm-14.275 23.81a34.334 34.334 0 01-10.554 0l-.307 1.976c3.699.576 7.47.576 11.169 0l-.308-1.976zM21.751 21.74a51.72 51.72 0 0120.497 0l.397-1.96a53.724 53.724 0 00-21.29 0l.396 1.96zm2.975 32.54c-5.066-.788-9.294-4.07-11.145-8.597l-1.851.757c2.128 5.206 6.962 8.925 12.688 9.816l.308-1.976zm14.854 1.976c5.726-.89 10.56-4.61 12.689-9.816l-1.851-.757c-1.851 4.527-6.08 7.809-11.145 8.597l.307 1.976zm2.668-34.516c4.458.902 7.967 4.128 9.1 8.291l1.93-.524c-1.341-4.931-5.473-8.683-10.633-9.727l-.397 1.96zm-20.894-1.96c-5.16 1.044-9.292 4.796-10.633 9.727l1.93.524c1.133-4.163 4.642-7.389 9.1-8.291l-.397-1.96z" fill="#ACE3FF"/><path d="M40.472 21.402L39.556 21l.916.402zm-1.484.89a1 1 0 001.831.805l-1.83-.805zm-15.463-.89l.916-.402-.916.402zm-.347 1.695a1 1 0 001.83-.805l-1.83.805zm6.802-14.9l.168.987-.168-.986zm.313-.053l-.168-.985.168.985zm3.411 0l-.168.986.168-.986zm.313.054l.168-.986-.168.986zm7.116 6.598l.976-.215-.976.215zm-18.269 0l.977.214-.977-.214zM39.556 21l-.568 1.292 1.831.805.568-1.293-1.83-.804zm-16.946.804l.568 1.293 1.83-.805L24.442 21l-1.831.804zm7.538-12.62l.313-.054-.336-1.971-.314.053.337 1.972zm3.388-.054l.313.054.337-1.972-.314-.053-.336 1.971zm6.62 5.88a9.689 9.689 0 01-.6 5.99l1.831.804a11.69 11.69 0 00.722-7.223l-1.953.43zm-18.268-.429a11.688 11.688 0 00.721 7.223L24.44 21a9.689 9.689 0 01-.6-5.99l-1.953-.429zm8.573-5.45a9.144 9.144 0 013.075 0l.336-1.972a11.145 11.145 0 00-3.747 0l.336 1.971zm11.648 5.45c-.834-3.8-3.987-6.697-7.924-7.369l-.336 1.972c3.179.542 5.657 2.866 6.307 5.826l1.953-.429zm-18.268.43c.65-2.961 3.128-5.285 6.307-5.827l-.337-1.972c-3.936.672-7.089 3.57-7.924 7.369l1.954.43z" fill="#13CE66"/></svg>