<svg width="64" height="64" viewBox="0 0 64 64" fill="none" xmlns="http://www.w3.org/2000/svg">
<path d="M31.9987 10.6666C41.462 10.6666 49.2427 17.4056 50.1549 26.0331C55.1595 28.2068 58.6654 33.2441 58.6654 39.1111C58.6654 46.9658 52.3816 53.3333 44.6303 53.3333L17.9636 53.3333C10.9874 53.3333 5.33203 47.6025 5.33203 40.5333C5.33203 34.954 8.85468 30.2085 13.7691 28.4559C13.7585 28.2163 13.7531 27.9754 13.7531 27.7333C13.7531 18.3076 21.9219 10.6666 31.9987 10.6666Z" stroke="#008CEF" stroke-width="2"/>
<path d="M31.9987 10.6666C21.9219 10.6666 13.7531 18.3076 13.7531 27.7333C13.7531 27.9754 13.7585 28.2163 13.7691 28.4559C8.85468 30.2085 5.33203 34.954 5.33203 40.5333C5.33203 47.6025 10.9874 53.3333 17.9636 53.3333L44.6303 53.3333C52.3816 53.3333 58.6654 46.9658 58.6654 39.1111" stroke="#ACE3FF" stroke-width="2" stroke-linecap="round"/>
</svg>
