<svg fill="none" height="24" width="24" xmlns="http://www.w3.org/2000/svg"><path d="M8.95 20.647a7.511 7.511 0 01-5.597-5.597 13.354 13.354 0 010-6.1A7.511 7.511 0 018.95 3.353c2.006-.47 4.094-.47 6.1 0a7.511 7.511 0 015.597 5.597c.47 2.006.47 4.094 0 6.1a7.511 7.511 0 01-5.597 5.597c-2.006.47-4.094.47-6.1 0z" stroke="#008cef" stroke-width="1.5"/><circle cx="12" cy="15.5" fill="#008cef" r="1"/><path d="M10 10v-.5a2 2 0 114 0v.121c0 .563-.224 1.103-.621 1.5L12 12.5" stroke="#008cef" stroke-linecap="round" stroke-linejoin="round" stroke-width="1.5"/></svg>