<svg width="64" height="64" viewBox="0 0 64 64" fill="none" xmlns="http://www.w3.org/2000/svg">
<path d="M15.026 21.1723L14.0605 20.9119L15.026 21.1723ZM26.7443 8.85832L27.0539 9.80918L26.7443 8.85832ZM14.88 21.7135L15.8455 21.9739L14.88 21.7135ZM14.3312 33.3071L15.3169 33.139L14.3312 33.3071ZM14.3949 33.6812L13.4092 33.8492L14.3949 33.6812ZM14.5124 34.2814L14.9112 35.1984C15.3501 35.0076 15.5923 34.5325 15.4888 34.0652L14.5124 34.2814ZM15.7706 46.4415L15.9711 45.4618L15.7706 46.4415ZM16.7723 46.6464L16.9728 45.6667H16.9728L16.7723 46.6464ZM47.2264 46.6464L47.4268 47.6261L47.2264 46.6464ZM48.2281 46.4415L48.0276 45.4618L48.2281 46.4415ZM49.4828 34.2799L48.5077 34.0585C48.4012 34.5274 48.6435 35.0057 49.0846 35.1972L49.4828 34.2799ZM49.616 33.6093L50.6018 33.7773V33.7773L49.616 33.6093ZM49.6836 33.2127L48.6978 33.0447V33.0447L49.6836 33.2127ZM49.1887 21.7938L48.2212 22.0465V22.0465L49.1887 21.7938ZM48.9935 21.0464L49.961 20.7937V20.7937L48.9935 21.0464ZM37.611 8.87591L37.9258 7.92677L37.9258 7.92677L37.611 8.87591ZM15.9915 21.4328C17.4707 15.949 21.6701 11.5621 27.0539 9.80918L26.4347 7.90745C20.4135 9.86792 15.7171 14.7708 14.0605 20.9119L15.9915 21.4328ZM15.8455 21.9739L15.9915 21.4328L14.0605 20.9119L13.9145 21.453L15.8455 21.9739ZM15.3169 33.139C14.6835 29.4229 14.8639 25.6128 15.8455 21.9739L13.9145 21.453C12.8575 25.3713 12.6633 29.4738 13.3454 33.4751L15.3169 33.139ZM15.3807 33.5131L15.3169 33.139L13.3454 33.4751L13.4092 33.8492L15.3807 33.5131ZM15.4888 34.0652C15.4485 33.8829 15.4124 33.6989 15.3807 33.5131L13.4092 33.8492C13.4463 34.0672 13.4887 34.2834 13.5361 34.4975L15.4888 34.0652ZM11.666 40.1637C11.666 37.939 13.002 36.0286 14.9112 35.1984L14.1137 33.3643C11.4968 34.5022 9.66602 37.1186 9.66602 40.1637H11.666ZM15.9711 45.4618C13.4689 44.9498 11.666 42.7372 11.666 40.1637H9.66602C9.66602 43.681 12.1312 46.7175 15.5701 47.4212L15.9711 45.4618ZM16.9728 45.6667L15.9711 45.4618L15.5701 47.4212L16.5719 47.6261L16.9728 45.6667ZM47.0259 45.6667C37.11 47.6958 26.8887 47.6958 16.9728 45.6667L16.5719 47.6261C26.7523 49.7093 37.2464 49.7093 47.4268 47.6261L47.0259 45.6667ZM48.0276 45.4618L47.0259 45.6667L47.4268 47.6261L48.4286 47.4212L48.0276 45.4618ZM52.3327 40.1637C52.3327 42.7372 50.5298 44.9498 48.0276 45.4618L48.4286 47.4212C51.8675 46.7175 54.3327 43.681 54.3327 40.1637H52.3327ZM49.0846 35.1972C50.9953 36.0267 52.3327 37.9379 52.3327 40.1637H54.3327C54.3327 37.117 52.5001 34.4996 49.8811 33.3626L49.0846 35.1972ZM48.6302 33.4412C48.5948 33.6491 48.5539 33.8549 48.5077 34.0585L50.458 34.5013C50.5123 34.2624 50.5603 34.021 50.6018 33.7773L48.6302 33.4412ZM48.6978 33.0447L48.6302 33.4412L50.6018 33.7773L50.6694 33.3808L48.6978 33.0447ZM48.2212 22.0465C49.1589 25.6364 49.3214 29.3864 48.6978 33.0447L50.6694 33.3808C51.3407 29.4426 51.1657 25.4058 50.1562 21.541L48.2212 22.0465ZM48.026 21.2991L48.2212 22.0465L50.1562 21.541L49.961 20.7937L48.026 21.2991ZM37.2961 9.82505C42.5745 11.576 46.614 15.8935 48.026 21.2991L49.961 20.7937C48.3787 14.7357 43.8501 9.89201 37.9258 7.92677L37.2961 9.82505ZM27.0539 9.80918C30.3741 8.72815 33.9864 8.72713 37.2961 9.82505L37.9258 7.92677C34.2063 6.69292 30.1564 6.6957 26.4347 7.90745L27.0539 9.80918Z" fill="#ACE3FF"/>
<path d="M39.4811 49.7286L40.4582 49.9414L39.4811 49.7286ZM39.2878 50.6163L40.2649 50.829V50.829L39.2878 50.6163ZM24.7128 50.6163L25.6899 50.4035L25.6899 50.4035L24.7128 50.6163ZM24.5196 49.7286L23.5425 49.9414H23.5425L24.5196 49.7286ZM34.3603 55.6582L34.1277 54.6856H34.1277L34.3603 55.6582ZM33.8378 55.7832L34.0704 56.7557L34.0704 56.7557L33.8378 55.7832ZM30.1629 55.7832L30.3955 54.8106L30.3955 54.8106L30.1629 55.7832ZM29.6404 55.6582L29.4077 56.6308H29.4077L29.6404 55.6582ZM26.3544 46.1639C26.7171 45.7474 26.6736 45.1157 26.2571 44.753C25.8406 44.3903 25.209 44.4338 24.8462 44.8503L26.3544 46.1639ZM39.1544 44.8503C38.7917 44.4338 38.16 44.3903 37.7435 44.753C37.3271 45.1157 37.2835 45.7474 37.6462 46.1639L39.1544 44.8503ZM38.504 49.5159L38.3107 50.4035L40.2649 50.829L40.4582 49.9414L38.504 49.5159ZM25.6899 50.4035L25.4967 49.5158L23.5425 49.9414L23.7357 50.829L25.6899 50.4035ZM34.1277 54.6856L33.6052 54.8106L34.0704 56.7557L34.5929 56.6308L34.1277 54.6856ZM30.3955 54.8106L29.873 54.6856L29.4077 56.6308L29.9302 56.7557L30.3955 54.8106ZM25.4967 49.5159C25.2372 48.3243 25.5561 47.0804 26.3544 46.1639L24.8462 44.8503C23.6319 46.2445 23.1488 48.1335 23.5425 49.9414L25.4967 49.5159ZM40.4582 49.9414C40.8519 48.1335 40.3687 46.2445 39.1544 44.8503L37.6462 46.1639C38.4445 47.0804 38.7634 48.3243 38.504 49.5159L40.4582 49.9414ZM33.6052 54.8106C32.55 55.063 31.4506 55.063 30.3955 54.8106L29.9302 56.7557C31.2913 57.0812 32.7094 57.0812 34.0704 56.7557L33.6052 54.8106ZM23.7357 50.829C24.3596 53.6939 26.5624 55.9502 29.4077 56.6308L29.873 54.6856C27.7785 54.1847 26.1513 52.522 25.6899 50.4035L23.7357 50.829ZM38.3107 50.4035C37.8494 52.522 36.2222 54.1847 34.1277 54.6856L34.5929 56.6308C37.4383 55.9502 39.6411 53.6939 40.2649 50.829L38.3107 50.4035Z" fill="#008CEF"/>
</svg>
