<svg width="64" height="64" viewBox="0 0 64 64" fill="none" xmlns="http://www.w3.org/2000/svg">
<path d="M23.8678 55.059C16.4613 53.3217 10.6783 47.5386 8.941 40.1322C7.68633 34.7833 7.68633 29.2167 8.941 23.8678C10.6783 16.4614 16.4613 10.6783 23.8678 8.941C29.2167 7.68633 34.7833 7.68633 40.1322 8.941C47.5386 10.6783 53.3217 16.4613 55.059 23.8678C56.3137 29.2167 56.3137 34.7833 55.059 40.1322C53.3217 47.5386 47.5387 53.3217 40.1322 55.059C34.7833 56.3137 29.2167 56.3137 23.8678 55.059Z" stroke="#008CEF" stroke-width="2"/>
<path d="M23.8678 55.059C29.2167 56.3137 34.7833 56.3137 40.1322 55.059C47.5387 53.3217 53.3217 47.5386 55.059 40.1322C56.3137 34.7833 56.3137 29.2167 55.059 23.8678C53.3217 16.4613 47.5386 10.6783 40.1322 8.941C34.7833 7.68634 29.2167 7.68633 23.8678 8.941C16.4613 10.6783 10.6783 16.4614 8.941 23.8678" stroke="#ACE3FF" stroke-width="2" stroke-linecap="round"/>
<path d="M32 41.3333V30.6666" stroke="#0095FF" stroke-width="2" stroke-linecap="round" stroke-linejoin="round"/>
<path d="M33.6673 24C33.6673 24.9205 32.9211 25.6667 32.0007 25.6667C31.0802 25.6667 30.334 24.9205 30.334 24C30.334 23.0796 31.0802 22.3334 32.0007 22.3334C32.9211 22.3334 33.6673 23.0796 33.6673 24Z" stroke="#0095FF" stroke-width="2" stroke-linecap="round" stroke-linejoin="round"/>
</svg>
