<svg width="64" height="64" viewBox="0 0 64 64" fill="none" xmlns="http://www.w3.org/2000/svg">
<path d="M8.94101 40.1322L7.96743 40.3606L8.94101 40.1322ZM8.94101 23.8678L7.96743 23.6394L8.94101 23.8678ZM55.059 23.8678L54.0854 24.0962L55.059 23.8678ZM55.059 40.1322L54.0854 39.9038L55.059 40.1322ZM40.1322 55.059L39.9038 54.0854L40.1322 55.059ZM23.8678 55.059L23.6395 56.0326L23.8678 55.059ZM23.8678 8.941L23.6395 7.96743L23.8678 8.941ZM40.1322 8.941L39.9038 9.91458L40.1322 8.941ZM9.91458 39.9038C8.69514 34.7052 8.69514 29.2948 9.91458 24.0962L7.96743 23.6394C6.67752 29.1385 6.67752 34.8615 7.96743 40.3606L9.91458 39.9038ZM54.0854 24.0962C55.3049 29.2948 55.3049 34.7052 54.0854 39.9038L56.0326 40.3605C57.3225 34.8615 57.3225 29.1385 56.0326 23.6395L54.0854 24.0962ZM39.9038 54.0854C34.7052 55.3049 29.2948 55.3049 24.0962 54.0854L23.6395 56.0326C29.1385 57.3225 34.8615 57.3225 40.3605 56.0326L39.9038 54.0854ZM24.0962 9.91458C29.2948 8.69514 34.7052 8.69514 39.9038 9.91458L40.3606 7.96743C34.8615 6.67752 29.1385 6.67752 23.6395 7.96743L24.0962 9.91458ZM24.0962 54.0854C17.0595 52.4348 11.5652 46.9405 9.91458 39.9038L7.96743 40.3606C9.79149 48.1368 15.8632 54.2085 23.6395 56.0326L24.0962 54.0854ZM40.3605 56.0326C48.1368 54.2085 54.2085 48.1368 56.0326 40.3605L54.0854 39.9038C52.4348 46.9405 46.9405 52.4348 39.9038 54.0854L40.3605 56.0326ZM39.9038 9.91458C46.9405 11.5652 52.4348 17.0595 54.0854 24.0962L56.0326 23.6395C54.2085 15.8632 48.1368 9.79148 40.3606 7.96743L39.9038 9.91458ZM23.6395 7.96743C15.8632 9.79148 9.79149 15.8632 7.96743 23.6394L9.91458 24.0962C11.5652 17.0595 17.0595 11.5652 24.0962 9.91458L23.6395 7.96743Z" fill="#ACE3FF"/>
<path d="M22.6777 40.3222C22.6777 40.8745 23.1254 41.3222 23.6777 41.3222C24.23 41.3222 24.6777 40.8745 24.6777 40.3222H22.6777ZM24.6777 29.226C24.6777 28.6737 24.23 28.226 23.6777 28.226C23.1254 28.226 22.6777 28.6737 22.6777 29.226H24.6777ZM39.3221 40.3222C39.3221 40.8745 39.7698 41.3222 40.3221 41.3222C40.8744 41.3222 41.3221 40.8745 41.3221 40.3222H39.3221ZM41.3221 32C41.3221 31.4478 40.8744 31 40.3221 31C39.7698 31 39.3221 31.4478 39.3221 32H41.3221ZM30.9999 37.5482C30.9999 38.1004 31.4476 38.5482 31.9999 38.5482C32.5522 38.5482 32.9999 38.1004 32.9999 37.5482H30.9999ZM32.9999 23.6779C32.9999 23.1256 32.5522 22.6779 31.9999 22.6779C31.4476 22.6779 30.9999 23.1256 30.9999 23.6779H32.9999ZM24.6777 40.3222V29.226H22.6777V40.3222H24.6777ZM41.3221 40.3222V32H39.3221V40.3222H41.3221ZM32.9999 37.5482V23.6779H30.9999V37.5482H32.9999Z" fill="#008CEF"/>
</svg>
