<svg width="238" height="104" viewBox="0 0 238 104" fill="none" xmlns="http://www.w3.org/2000/svg">
<g clip-path="url(#clip0)">
<g clip-path="url(#clip1)">
<path fill-rule="evenodd" clip-rule="evenodd" d="M158.73 41.178C155.06 41.178 151.904 44.179 151.537 47.1086C151.244 49.3952 152.124 51.9675 152.785 53.1822C154.693 56.3261 151.097 60.399 149.482 62.0425C149.189 62.3283 149.262 62.757 149.776 62.757C151.097 62.757 152.785 62.757 154.033 62.757C154.547 62.757 154.547 62.8284 155.207 62.1854C156.749 60.6134 160.198 55.9689 156.455 49.9668C155.06 47.6088 155.721 42.7499 159.244 42.7499C162.106 42.7499 161.152 45.6796 160.198 47.8946C159.758 49.0379 162.18 49.1093 162.473 48.3234C163.941 44.8936 163.354 41.178 158.73 41.178Z" fill="#43B02A"/>
<path fill-rule="evenodd" clip-rule="evenodd" d="M98.2524 42.1069C96.2707 48.3948 94.2889 54.6827 92.3073 60.9707C92.2339 61.4709 92.3807 62.6142 93.3348 62.7571C96.0505 62.7571 98.8396 62.7571 101.555 62.7571C102.509 62.7571 103.023 61.2565 101.922 61.2565C100.821 61.2565 99.6469 61.2565 98.546 61.2565C98.2524 61.2565 98.179 61.0422 98.179 60.8278C100.161 54.6827 102.289 48.2519 104.051 42.0354C104.198 41.4638 103.904 41.178 103.39 41.178C102.069 41.178 100.748 41.178 99.4268 41.178C98.9864 41.2494 98.4726 41.6781 98.2524 42.1069Z" fill="#43B02A"/>
<path fill-rule="evenodd" clip-rule="evenodd" d="M71.9762 43.2572C71.3156 42.1139 70.3615 41.2565 68.4532 41.2565H61.3337C60.7465 41.3279 60.2327 41.6852 60.0125 42.1854C58.0308 48.4733 56.0491 54.7613 54.0674 61.0492C53.7004 62.5498 54.9482 62.8356 55.0216 62.8356H62.3612C63.5356 62.8356 64.9302 62.7641 65.6641 62.4783C66.4715 62.1925 66.5448 62.121 67.3522 61.4779C68.233 60.8349 69.1872 59.1915 69.7009 57.6194C70.2147 56.0475 70.4349 54.4755 69.9945 53.5465C69.6275 52.6177 68.6733 51.9746 67.5724 51.6888C68.5265 51.3315 69.2605 51.1886 70.1413 50.4026C71.022 49.6166 71.6826 48.259 71.9762 46.9013C72.4165 45.4008 72.4165 43.9003 71.9762 43.2572ZM64.7099 56.9049C64.1962 58.4054 63.3154 59.9774 62.4346 60.5491C62.3612 60.5491 62.3612 60.6205 62.2878 60.6205C61.4071 61.1207 61.0401 61.1922 60.3061 61.1922C60.1593 61.1207 60.0125 60.9778 60.0859 60.7634C60.9667 57.9053 62.7282 52.4033 62.8016 52.2604C62.875 52.1175 63.0218 52.1175 63.1686 52.1175C65.8843 52.5462 65.2971 55.3329 64.7099 56.9049ZM67.6458 46.9728C67.132 48.4733 66.4715 49.4737 65.3705 50.1882C64.7833 50.5455 63.9025 50.8313 63.609 50.7599C63.3154 50.7599 63.3153 50.617 63.3153 50.5455C64.1962 47.9017 64.9302 45.5437 65.6641 42.9714C65.7375 42.6856 65.9577 42.6856 66.1778 42.6856C68.8935 42.9714 68.233 45.4008 67.6458 46.9728Z" fill="#43B02A"/>
<path fill-rule="evenodd" clip-rule="evenodd" d="M132.749 62.7571C135.685 62.7571 138.548 62.7571 141.483 62.7571C142.218 62.6856 142.731 61.328 141.998 61.328C140.603 61.328 139.209 61.328 137.814 61.328C137.52 61.328 137.52 61.0422 137.594 60.8993C138.401 58.184 139.355 55.5402 140.236 52.825C140.383 52.6106 140.603 52.3248 141.19 52.2533C142.144 52.1819 143.098 52.2533 144.053 52.2533C144.566 52.2533 145.373 50.8242 144.493 50.8242H141.557C141.41 50.8242 140.97 50.6814 141.116 50.0383L143.318 43.1072C143.392 42.8929 143.759 42.5356 144.273 42.5356C145.447 42.5356 146.621 42.5356 147.795 42.5356C148.383 42.4641 148.97 41.2494 148.31 41.178C145.373 41.178 141.19 41.178 138.841 41.178C138.181 41.178 137.667 41.6067 137.52 42.0354L131.575 60.8993C131.355 61.6853 131.795 62.7571 132.749 62.7571Z" fill="#43B02A"/>
<path fill-rule="evenodd" clip-rule="evenodd" d="M76.3797 62.7574C79.3156 62.7574 82.1781 62.7574 85.1139 62.7574C85.8479 62.686 86.2882 61.3283 85.6277 61.3283C84.2331 61.3283 82.8386 61.3283 81.5174 61.3283C81.2239 61.3283 81.2239 61.0425 81.2973 60.8995C82.1046 58.1843 83.0588 55.5406 83.9396 52.8968C84.0864 52.6109 84.2331 52.3251 84.8203 52.3251C85.7011 52.3251 86.7286 52.3251 87.6828 52.3251C88.1966 52.3251 89.0039 50.896 88.1232 50.896H85.1139C84.9671 50.896 84.5267 50.8246 84.6736 50.1101L86.802 43.3219C86.9488 43.1076 87.2424 42.7503 87.7562 42.7503C88.9305 42.7503 90.1049 42.7503 91.2792 42.7503C91.8664 42.6788 92.4536 41.3212 91.793 41.2498C88.9305 41.2498 84.6736 41.2498 82.3248 41.2498C81.6643 41.2498 81.1505 41.6785 81.0037 42.1072L75.0586 60.9711C75.0586 61.6856 75.4989 62.7574 76.3797 62.7574Z" fill="#43B02A"/>
<path fill-rule="evenodd" clip-rule="evenodd" d="M167.612 42.6814C168.713 42.6814 169.301 42.6814 170.401 42.6814C170.768 42.6814 171.062 42.8958 170.915 43.2531C168.933 49.684 167.172 55.2573 165.19 61.6882C165.044 62.1883 165.337 62.76 165.851 62.8314C167.025 62.8314 168.86 62.8314 170.035 62.8314C170.401 62.8314 170.915 62.4742 170.988 61.974C173.044 55.4717 174.952 49.6839 176.934 43.1816C177.007 42.8958 177.301 42.7529 177.521 42.7529C178.402 42.7529 179.356 42.7529 180.237 42.7529C180.897 42.6814 181.704 41.2523 180.75 41.2523C176.934 41.2523 172.016 41.2523 168.2 41.2523C167.686 41.1809 167.025 42.61 167.612 42.6814Z" fill="#43B02A"/>
<path fill-rule="evenodd" clip-rule="evenodd" d="M130.546 41.6767L122.325 57.1822C122.325 57.1822 122.325 57.1108 122.325 57.0393C122.472 55.6103 122.765 54.1811 122.912 52.7521C123.352 49.3937 123.793 46.0354 124.307 42.6056C124.38 42.1055 124.087 41.7482 123.867 41.5338C123.573 41.3195 123.279 41.1765 122.325 41.1765C122.325 41.1765 123.426 41.1765 122.325 41.1765C121.224 41.1765 119.903 41.6053 119.609 42.7485C119.389 43.8203 119.169 45.6781 119.022 46.75L114.618 55.6817C114.472 55.9675 114.251 56.3248 114.105 56.6106C113.884 56.8964 113.664 56.9679 113.738 56.6106C114.618 51.8232 114.985 47.393 115.866 42.6056C116.16 40.9622 111.829 40.6049 111.242 42.6056L108.453 61.8268C108.38 62.3984 108.6 62.6842 109.187 62.7556C109.994 62.8271 112.196 62.97 112.71 62.3269C113.297 61.5409 113.444 61.1837 113.884 60.4691C114.325 59.6831 118.508 51.1801 118.508 51.1801C117.995 54.7528 117.407 58.397 116.967 61.9696C116.894 62.5413 117.114 62.8271 117.481 62.8271C118.215 62.8271 120.637 63.0414 121.224 62.3269C121.738 61.6838 121.811 61.5409 122.178 60.9693L132.013 42.034C132.601 41.0336 130.986 40.8193 130.546 41.6767Z" fill="#43B02A"/>
</g>
</g>
<defs>
<clipPath id="clip0">
<rect width="238" height="104" rx="40" fill="white"/>
</clipPath>
<clipPath id="clip1">
<rect width="127.188" height="22" fill="white" transform="translate(54 41)"/>
</clipPath>
</defs>
</svg>
