<svg width="237" height="104" viewBox="0 0 237 104" fill="none" xmlns="http://www.w3.org/2000/svg">
<g clip-path="url(#clip0)">
<g clip-path="url(#clip1)">
<path d="M44.125 65.7076C51.7415 65.7076 57.9159 59.5332 57.9159 51.9166C57.9159 44.3001 51.7415 38.1257 44.125 38.1257C36.5084 38.1257 30.334 44.3001 30.334 51.9166C30.334 59.5332 36.5084 65.7076 44.125 65.7076Z" fill="#16932B"/>
<path d="M44.1243 64.2032C50.91 64.2032 56.4108 58.7023 56.4108 51.9167C56.4108 45.1311 50.91 39.6302 44.1243 39.6302C37.3387 39.6302 31.8379 45.1311 31.8379 51.9167C31.8379 58.7023 37.3387 64.2032 44.1243 64.2032Z" fill="#FF6927"/>
<path fill-rule="evenodd" clip-rule="evenodd" d="M54.1969 48.1133C54.4478 48.0717 54.6149 47.9045 54.5731 47.7373C54.5315 47.5702 54.3222 47.4864 54.0713 47.5283C53.8207 47.5699 53.6535 47.7373 53.6954 47.9045C53.737 48.0717 53.9463 48.1551 54.1972 48.1135L54.1969 48.1133ZM38.6505 56.1373C38.6089 56.597 38.5252 57.0566 38.0656 57.015C38.0656 57.015 37.7731 56.9313 37.5222 56.9313C36.9788 56.9313 36.8535 57.2238 36.8535 57.4747C36.8535 58.1849 37.6059 58.394 38.0656 58.394C38.5252 58.394 39.0267 58.2268 39.4029 57.9343C40.1134 57.4328 40.5728 56.3042 40.7821 55.803C40.5731 55.7193 40.3222 55.6358 40.1134 55.5521C39.7372 55.9283 39.1939 56.1371 38.6505 56.1371V56.1373Z" fill="white"/>
<path fill-rule="evenodd" clip-rule="evenodd" d="M45.8808 54.2989C45.9643 54.5913 46.0896 55.1766 46.1733 55.4272C46.1733 55.4272 45.7553 55.5943 45.7137 55.6362C45.5881 55.6778 45.5881 55.8034 45.63 55.9287C45.6715 56.054 45.7971 56.054 45.9224 56.0124C46.4658 55.7197 48.0122 55.051 48.6809 55.7197C49.0568 56.054 49.3911 57.1826 49.1405 57.9347C49.0152 58.3943 48.6809 58.6452 48.1375 58.6868C47.845 58.7287 47.5941 58.6452 47.4269 58.4781C46.9673 58.06 46.9673 57.2242 46.9673 57.2242C46.9673 57.1407 46.9257 57.0989 46.842 57.057C46.8001 57.0154 46.7167 57.0154 46.633 57.057C46.633 57.057 45.4631 57.8928 44.5016 57.4332C43.1224 56.7645 43.4568 54.9675 43.4568 54.9257C43.4568 54.8004 43.4152 54.7169 43.2896 54.7169C43.1643 54.7169 43.0808 54.7585 43.0808 54.8838C43.0808 54.8838 42.9971 55.3856 43.0808 55.929C42.0778 55.8034 41.2001 55.6362 40.448 55.3437C40.8658 54.8838 41.0745 54.2989 41.0745 53.6305C41.0745 53.5049 40.9914 53.4212 40.8658 53.4212C40.7405 53.4212 40.6568 53.5049 40.6568 53.6302C40.6568 54.8422 39.6538 55.8034 38.4836 55.8034C37.6062 55.8034 36.8119 55.26 36.436 54.4242C36.4776 54.2989 36.3944 54.2989 36.2688 54.2989C36.1435 54.3404 36.1435 54.466 36.1435 54.5498C36.2688 54.8422 36.436 55.0931 36.645 55.3437C36.1851 56.3467 35.3495 57.4751 33.9284 57.057C33.4688 56.9317 33.1763 56.6392 33.0926 56.263C33.051 55.9705 33.0926 55.6781 33.3016 55.5525C33.4688 55.4272 33.7194 55.3853 33.9703 55.5109C34.6808 55.7615 35.0986 54.5913 35.5167 53.463C35.7254 52.8362 36.0179 52.1257 36.2269 52.0004C36.4778 51.8332 37.1046 51.8332 37.439 52.2928C37.4806 52.4182 37.5224 52.7109 37.5224 52.7109C37.5224 52.7943 37.648 52.8781 37.7315 52.8362C37.8568 52.8362 37.8986 52.7109 37.8986 52.6272C37.6896 51.4154 38.0239 50.663 38.3167 50.2868C38.3167 50.2868 36.1432 48.657 36.4778 46.4838C36.4778 46.3585 36.5613 46.2751 36.6031 46.2751C36.6447 46.2751 36.7284 46.4004 36.7284 46.5675C36.8538 46.9853 37.0628 47.6124 37.648 48.2808C38.1914 48.9498 38.6507 49.326 39.1107 49.4928C39.1522 49.4928 40.1974 49.7019 42.1613 49.7019C43.2896 49.7019 44.7523 49.5766 44.836 49.5347C44.9705 50.3106 45.3177 51.034 45.839 51.6242C46.4658 52.3347 47.1345 52.6272 47.636 52.8362C48.3465 53.1287 48.9733 53.254 49.3911 53.3377C49.3911 53.3793 49.3495 53.3793 49.3495 53.4212C49.0986 54.0483 48.6809 54.5913 48.0956 55.0513C47.5941 55.0094 47.0089 55.1347 46.5495 55.3019C46.5077 55.1766 46.4239 54.8422 46.2568 54.257C46.2152 54.1317 46.1315 54.0898 46.0062 54.1317C45.9224 54.0901 45.8808 54.2154 45.8808 54.2989ZM50.4778 43.7675C50.1016 43.726 49.6836 44.7705 49.5167 45.1467C49.8508 45.1883 50.1851 45.2721 50.5194 45.4392C50.6031 45.3139 50.7285 43.7675 50.4778 43.7675Z" fill="white"/>
<path d="M50.2692 50.6207C50.2692 50.6207 50.1439 50.5791 49.9767 50.6207C50.1439 51.0388 50.5201 51.3313 51.0213 51.4566C51.8572 51.6656 52.8183 51.6237 53.8213 50.7044C54.3231 50.2448 54.8244 49.409 54.9081 48.6566C54.8244 48.7822 54.699 48.8237 54.5737 48.9075C54.0304 49.0746 53.3617 48.8237 53.1945 48.3225C53.0692 48.0298 53.1945 47.7791 53.4036 47.5701C53.2364 47.6117 53.0692 47.6536 52.8602 47.6954C52.3168 47.8207 51.899 47.9044 51.6903 47.737C51.5228 47.5701 51.4813 47.3192 51.3557 47.0267C51.2304 46.609 51.1051 46.1493 50.687 45.8984C49.8096 45.3551 48.8066 45.5222 48.7647 45.5222C48.6813 45.5222 48.6394 45.5222 48.5975 45.4388C48.556 45.3972 48.4304 44.2686 48.2213 43.9343C48.0126 43.5165 47.8454 43.4746 47.8036 43.4746C47.3855 43.4746 46.7168 44.5192 46.4662 46.0237C46.4662 46.0656 46.4246 46.0656 46.4246 46.1075C45.9228 46.6508 45.3379 48.5313 45.3379 49.1581V49.2418C45.3795 49.8683 46.4246 52.5852 49.5587 52.6683H49.6424C50.7707 52.5852 51.9828 52.0834 52.5259 51.7909C52.1499 51.9165 51.4813 51.9581 50.896 51.8328C50.2692 51.6656 49.8512 51.2894 49.6005 50.7879C49.5171 50.8298 49.4752 50.9135 49.4334 51.0388C49.3918 51.1222 49.2662 51.1641 49.1828 51.1222C49.0572 51.0806 49.0572 50.9551 49.099 50.8716C49.4334 50.2448 50.0602 50.1611 50.3527 50.2029C50.4783 50.2029 50.5198 50.3283 50.5198 50.412C50.4783 50.5791 50.3945 50.6207 50.2692 50.6207ZM51.1469 47.4448C51.2722 47.4448 51.3557 47.5701 51.3557 47.7791C51.3557 47.9463 51.2304 48.1135 51.1469 48.1135C51.0213 48.1135 50.9379 47.9879 50.9379 47.7791C50.8963 47.612 51.0213 47.4448 51.1469 47.4448ZM48.1798 45.606C48.096 45.6475 47.9289 45.7313 47.678 45.7313C47.4692 45.7728 47.4692 45.606 47.6364 45.1463C47.8036 44.7283 47.9289 44.5192 47.9289 44.5192C48.096 44.3521 48.2213 45.606 48.1798 45.606ZM50.1439 48.7822C49.9349 48.7822 49.7677 48.5313 49.7677 48.2388C49.7677 47.9463 49.9349 47.6538 50.1439 47.6538C50.3527 47.6538 50.5198 47.9044 50.5198 48.1972C50.5198 48.4894 50.3527 48.7822 50.1439 48.7822Z" fill="white"/>
<path fill-rule="evenodd" clip-rule="evenodd" d="M49.2234 54.4659C49.0562 54.7168 48.8474 54.9256 48.5547 55.1765C48.6803 55.2181 48.8056 55.3018 48.9309 55.3852C49.0981 55.5524 49.2652 55.8033 49.3905 56.0958C49.7667 55.9705 50.0592 55.8033 50.0592 55.8033C50.1011 55.7617 50.1845 55.7617 50.2264 55.8033C50.268 55.8449 50.3101 55.8867 50.3517 55.9705C50.5188 57.1404 51.0204 57.475 51.48 57.3078C51.8562 57.1825 52.0652 56.9316 52.149 56.5973C52.3161 55.8451 51.8981 54.884 51.5219 54.5497C51.0622 54.0897 50.0173 54.2569 49.2236 54.4659H49.2234Z" fill="white"/>
<path fill-rule="evenodd" clip-rule="evenodd" d="M49.6833 52.7523L49.4327 53.2541L49.3911 53.2956C48.5134 53.2122 45.4628 52.5435 44.752 49.4926C44.752 49.4926 44.752 49.451 44.7938 49.451L45.2535 49.2836C45.2953 49.2836 45.2953 49.2836 45.2953 49.3255C45.4206 50.036 46.6745 52.5851 49.6417 52.7104C49.6833 52.7104 49.7251 52.7104 49.6833 52.7523Z" fill="#1F9E38"/>
<path fill-rule="evenodd" clip-rule="evenodd" d="M69.2266 45.7626C69.2266 45.2636 69.6424 44.82 70.1692 44.82H71.5553C72.0543 44.82 72.4979 45.2359 72.4979 45.7626V58.127C72.4979 58.626 72.082 59.0696 71.5553 59.0696H70.1692C69.6701 59.0696 69.2266 58.6537 69.2266 58.127V53.6082C68.5058 54.1626 67.5078 54.4398 66.1771 54.4398C64.1256 54.4398 61.7969 53.3309 61.7969 49.8933V45.7626C61.7969 45.2636 62.2127 44.82 62.7395 44.82H64.1256C64.6246 44.82 65.0682 45.2359 65.0682 45.7626V48.923C65.0682 50.8082 65.8444 51.3903 67.0642 51.3903C67.8127 51.3903 68.5612 51.1408 69.2266 50.6418V45.7626ZM84.3632 58.0993C84.3632 58.5983 83.9474 59.0418 83.4207 59.0418H76.6563C76.1573 59.0418 75.7137 58.626 75.7137 58.0993V45.7626C75.7137 45.2636 76.1296 44.82 76.6563 44.82H83.2266C83.7256 44.82 84.1692 45.2359 84.1692 45.7626V46.927C84.1692 47.426 83.7533 47.8695 83.2266 47.8695H78.985V50.3646H82.6167C83.1157 50.3646 83.5593 50.7804 83.5593 51.3072V52.4715C83.5593 52.9705 83.1434 53.4141 82.6167 53.4141H78.985V55.9923H83.4207C83.9197 55.9923 84.3632 56.4082 84.3632 56.9349V58.0993ZM91.7929 59.0418C91.2939 59.0418 90.8504 58.626 90.8504 58.0993V47.8695H87.5236C87.0246 47.8695 86.581 47.4537 86.581 46.927V45.7626C86.581 45.2636 86.9969 44.82 87.5236 44.82H97.4484C97.9474 44.82 98.391 45.2359 98.391 45.7626V46.927C98.391 47.426 97.9751 47.8695 97.4484 47.8695H94.1216V58.0993C94.1216 58.5983 93.7058 59.0418 93.1791 59.0418H91.7929Z" fill="#FF6927"/>
<path d="M100.832 45.7625C100.832 45.2635 101.248 44.8199 101.775 44.8199H103.161C103.66 44.8199 104.103 45.2358 104.103 45.7625V49.2833C104.547 49.2278 104.99 49.2001 105.351 49.2001C108.761 49.2001 110.535 51.0021 110.535 53.9962C110.535 57.0734 108.373 59.0972 104.658 59.0972C103.854 59.0972 102.884 59.0694 101.775 59.0694C101.276 59.0694 100.832 58.6259 100.832 58.1269V45.7625ZM104.076 55.9645C104.575 56.0199 104.88 56.0476 105.046 56.0476C106.404 56.0476 107.07 55.41 107.07 54.0793C107.07 52.8595 106.293 52.2496 105.046 52.2496C104.852 52.2496 104.519 52.2773 104.076 52.3605V55.9645ZM115.137 58.0991C115.137 58.5981 114.721 59.0417 114.194 59.0417H112.808C112.309 59.0417 111.866 58.6259 111.866 58.0991V45.7625C111.866 45.2635 112.282 44.8199 112.808 44.8199H114.194C114.693 44.8199 115.137 45.2358 115.137 45.7625V58.0991ZM127.141 46.0952C128.056 46.9823 128.499 48.1189 128.499 49.4773C128.499 50.808 128 51.9447 127.058 52.8595C126.115 53.8021 124.812 54.2734 123.232 54.2734C122.511 54.2734 121.985 54.2457 121.652 54.2179V58.1269C121.652 58.6259 121.236 59.0694 120.709 59.0694H119.323C118.824 59.0694 118.381 58.6536 118.381 58.1269V45.7902C118.381 45.2912 118.796 44.8199 119.323 44.8199C120.765 44.7922 121.901 44.7922 122.733 44.7922C124.757 44.7922 126.226 45.2358 127.141 46.0952ZM121.652 51.113C122.151 51.1684 122.678 51.2239 123.149 51.2239C124.175 51.2239 125.062 50.7249 125.062 49.4773C125.062 48.3684 124.424 47.8417 123.093 47.8417C123.038 47.8417 122.567 47.8694 121.68 47.8971V51.113H121.652Z" fill="#FF6927"/>
<path fill-rule="evenodd" clip-rule="evenodd" d="M139.782 58.0993C139.782 58.5983 139.366 59.0418 138.84 59.0418H132.075C131.576 59.0418 131.133 58.626 131.133 58.0993V45.7626C131.133 45.2636 131.549 44.82 132.075 44.82H138.646C139.145 44.82 139.588 45.2359 139.588 45.7626V46.927C139.588 47.426 139.172 47.8696 138.646 47.8696H134.404V50.3646H138.036C138.535 50.3646 138.978 50.7804 138.978 51.3072V52.4715C138.978 52.9705 138.563 53.4141 138.036 53.4141H134.404V55.9923H138.867C139.366 55.9923 139.81 56.4082 139.81 56.9349V58.0993H139.782ZM158.079 58.0993C158.079 58.5983 157.664 59.0418 157.137 59.0418H155.751C155.252 59.0418 154.808 58.626 154.808 58.0993V47.8696H151.703L151.398 50.5587C150.539 57.3785 149.236 59.125 146.353 59.1527C145.798 59.1527 145.438 58.82 145.438 58.321V57.1012C145.438 56.4636 145.632 56.2141 146.297 55.9092C146.852 55.6597 147.323 54.9943 147.628 53.8854C147.933 52.7765 148.21 50.725 148.432 47.6755L148.57 45.7626C148.626 45.2082 149.069 44.82 149.568 44.82H157.137C157.636 44.82 158.079 45.2359 158.079 45.7626V58.0993Z" fill="#FF6927"/>
<path d="M169.944 56.0478H164.316L163.401 58.3765C163.207 58.82 162.902 59.0418 162.431 59.0418H161.184C160.685 59.0418 160.324 58.626 160.324 58.1547C160.324 58.0438 160.352 57.9052 160.38 57.822L165.508 45.4854C165.702 45.0418 166.035 44.82 166.506 44.82H167.976C168.447 44.82 168.78 45.0418 168.974 45.4854L174.102 57.822C174.13 57.9329 174.158 58.0438 174.158 58.1547C174.158 58.626 173.77 59.0418 173.298 59.0418H171.857C171.386 59.0418 171.053 58.82 170.887 58.3765L169.944 56.0478ZM167.144 48.9785L165.536 52.9983H168.724L167.144 48.9785Z" fill="#FF6927"/>
<path fill-rule="evenodd" clip-rule="evenodd" d="M187.88 58.0993C187.88 58.5983 187.464 59.0418 186.938 59.0418H185.552C185.053 59.0418 184.609 58.626 184.609 58.0993V47.8696H179.619V58.0993C179.619 58.5983 179.203 59.0418 178.676 59.0418H177.29C176.791 59.0418 176.348 58.626 176.348 58.0993V45.7626C176.348 45.2636 176.763 44.82 177.29 44.82H186.91C187.409 44.82 187.853 45.2359 187.853 45.7626V58.0993H187.88Z" fill="#FF6927"/>
<path d="M191.125 45.7626C191.125 45.2636 191.541 44.82 192.068 44.82H193.454C193.953 44.82 194.396 45.2359 194.396 45.7626V49.2834C194.84 49.228 195.256 49.2002 195.644 49.2002C199.054 49.2002 200.828 51.0022 200.828 53.9963C200.828 57.0735 198.666 59.0973 194.951 59.0973C194.147 59.0973 193.176 59.0695 192.068 59.0695C191.569 59.0695 191.125 58.626 191.125 58.127V45.7626ZM194.369 55.9646C194.868 56.02 195.173 56.0478 195.311 56.0478C196.67 56.0478 197.335 55.4101 197.335 54.0794C197.335 52.8596 196.559 52.2497 195.311 52.2497C195.117 52.2497 194.784 52.2775 194.341 52.3606V55.9646H194.369ZM205.458 58.0992C205.458 58.5983 205.042 59.0418 204.515 59.0418H203.129C202.63 59.0418 202.186 58.626 202.186 58.0992V45.7626C202.186 45.2636 202.602 44.82 203.129 44.82H204.515C205.014 44.82 205.458 45.2359 205.458 45.7626V58.0992Z" fill="#FF6927"/>
</g>
</g>
<defs>
<clipPath id="clip0">
<rect width="237" height="104" rx="40" fill="white"/>
</clipPath>
<clipPath id="clip1">
<rect width="175.485" height="28" fill="white" transform="translate(30 38)"/>
</clipPath>
</defs>
</svg>
