<svg width="64" height="64" viewBox="0 0 64 64" fill="none" xmlns="http://www.w3.org/2000/svg">
<path d="M56.0007 32.0001H45.334M50.6673 37.3334L50.6673 26.6667" stroke="#008CEF" stroke-width="2" stroke-linecap="round"/>
<path d="M8 50.9638C8 44.5289 12.5262 39.0478 18.6774 38.0337L19.2315 37.9423C24.1571 37.1302 29.1762 37.1302 34.1018 37.9423L34.6559 38.0337C40.8071 39.0478 45.3333 44.5289 45.3333 50.9638C45.3333 53.7452 43.1507 55.9999 40.4583 55.9999H12.875C10.1826 55.9999 8 53.7452 8 50.9638Z" stroke="#ACE3FF" stroke-width="2"/>
<path d="M37.5551 18.5C37.5551 24.299 32.68 29 26.6662 29C20.6525 29 15.7773 24.299 15.7773 18.5C15.7773 12.701 20.6525 8 26.6662 8C32.68 8 37.5551 12.701 37.5551 18.5Z" stroke="#0095FF" stroke-width="2"/>
</svg>
