<svg width="64" height="64" viewBox="0 0 64 64" fill="none" xmlns="http://www.w3.org/2000/svg">
<path d="M10.6237 30.9616L24.3146 49.3619C28.2546 54.6572 35.7453 54.6573 39.6854 49.3619L53.3763 30.9616C56.8746 26.26 56.8746 19.5792 53.3763 14.8776C48.2553 7.99502 36.419 10.0391 32 17.4629C27.581 10.0391 15.7447 7.99502 10.6237 14.8776C7.12543 19.5792 7.12542 26.26 10.6237 30.9616Z" stroke="#008CEF" stroke-width="2" stroke-linecap="round" stroke-linejoin="round"/>
<path d="M53.3763 30.9616L39.6854 49.3619C35.7453 54.6573 28.2546 54.6572 24.3146 49.3619L10.6237 30.9616C7.12542 26.26 7.12543 19.5792 10.6237 14.8776C15.7447 7.99502 27.581 10.0391 32 17.4629" stroke="#ACE3FF" stroke-width="2" stroke-linecap="round" stroke-linejoin="round"/>
</svg>
