<svg width="64" height="64" viewBox="0 0 64 64" fill="none" xmlns="http://www.w3.org/2000/svg">
<path d="M10.2227 40.6626L11.1974 40.4392L10.2227 40.6626ZM10.2227 24.9419L11.1974 25.1653L10.2227 24.9419ZM53.7786 24.942L52.8039 25.1654L53.7786 24.942ZM53.7786 40.6626L52.8039 40.4392L53.7786 40.6626ZM39.681 55.0905L39.9145 56.0628L39.681 55.0905ZM24.3203 55.0905L24.5537 54.1181L24.3203 55.0905ZM24.3203 10.5141L24.5537 11.4865L24.3203 10.5141ZM39.681 10.5141L39.9145 9.54174L39.681 10.5141ZM22.5209 8C22.5209 7.44772 22.0731 7 21.5209 7C20.9686 7 20.5209 7.44772 20.5209 8H22.5209ZM20.5209 14.7033C20.5209 15.2556 20.9686 15.7033 21.5209 15.7033C22.0731 15.7033 22.5209 15.2556 22.5209 14.7033H20.5209ZM43.4804 8C43.4804 7.44772 43.0327 7 42.4804 7C41.9282 7 41.4804 7.44772 41.4804 8H43.4804ZM41.4804 14.7033C41.4804 15.2556 41.9282 15.7033 42.4804 15.7033C43.0327 15.7033 43.4804 15.2556 43.4804 14.7033H41.4804ZM11.1974 40.4392C10.0462 35.4162 10.0462 30.1884 11.1974 25.1653L9.24799 24.7185C8.02932 30.0356 8.02932 35.5689 9.24799 40.886L11.1974 40.4392ZM52.8039 25.1654C53.9551 30.1884 53.9551 35.4162 52.8039 40.4392L54.7533 40.886C55.972 35.5689 55.972 30.0356 54.7533 24.7186L52.8039 25.1654ZM39.4476 54.1181C34.5494 55.294 29.452 55.294 24.5537 54.1181L24.0868 56.0628C29.292 57.3124 34.7093 57.3124 39.9145 56.0628L39.4476 54.1181ZM24.5537 11.4865C29.452 10.3106 34.5494 10.3106 39.4476 11.4865L39.9145 9.54174C34.7093 8.29218 29.292 8.29218 24.0868 9.54174L24.5537 11.4865ZM24.5537 54.1181C17.9377 52.5298 12.7557 47.2378 11.1974 40.4392L9.24799 40.886C10.9714 48.4052 16.7128 54.2926 24.0868 56.0628L24.5537 54.1181ZM39.9145 56.0628C47.2885 54.2926 53.0299 48.4052 54.7533 40.886L52.8039 40.4392C51.2456 47.2378 46.0636 52.5298 39.4476 54.1181L39.9145 56.0628ZM39.4476 11.4865C46.0636 13.0747 51.2456 18.3668 52.8039 25.1654L54.7533 24.7186C53.0299 17.1994 47.2885 11.312 39.9145 9.54174L39.4476 11.4865ZM24.0868 9.54174C16.7128 11.312 10.9714 17.1994 9.24799 24.7185L11.1974 25.1653C12.7557 18.3668 17.9377 13.0747 24.5537 11.4865L24.0868 9.54174ZM20.5209 8V14.7033H22.5209V8H20.5209ZM41.4804 8V14.7033H43.4804V8H41.4804Z" fill="#008CEF"/>
<path d="M9.24799 40.886C9.37137 41.4244 9.90779 41.7607 10.4461 41.6374C10.9844 41.514 11.3208 40.9776 11.1974 40.4392L9.24799 40.886ZM10.2227 24.9419L9.24799 24.7185L10.2227 24.9419ZM53.7786 24.942L54.7533 24.7186L53.7786 24.942ZM53.7786 40.6626L52.8039 40.4392L53.7786 40.6626ZM39.4476 54.1181C38.9106 54.247 38.5797 54.7869 38.7087 55.3239C38.8376 55.8609 39.3774 56.1917 39.9145 56.0628L39.4476 54.1181ZM24.3203 10.5141L24.0868 9.54174L24.3203 10.5141ZM39.681 10.5141L39.9145 9.54174L39.681 10.5141ZM22.5209 8C22.5209 7.44772 22.0731 7 21.5209 7C20.9686 7 20.5209 7.44772 20.5209 8H22.5209ZM20.5209 14.7033C20.5209 15.2556 20.9686 15.7033 21.5209 15.7033C22.0731 15.7033 22.5209 15.2556 22.5209 14.7033H20.5209ZM43.4804 8C43.4804 7.44772 43.0327 7 42.4804 7C41.9282 7 41.4804 7.44772 41.4804 8H43.4804ZM41.4804 14.7033C41.4804 15.2556 41.9282 15.7033 42.4804 15.7033C43.0327 15.7033 43.4804 15.2556 43.4804 14.7033H41.4804ZM11.1974 40.4392C10.0462 35.4162 10.0462 30.1884 11.1974 25.1653L9.24799 24.7185C8.02932 30.0356 8.02932 35.5689 9.24799 40.886L11.1974 40.4392ZM52.8039 25.1654C53.9551 30.1884 53.9551 35.4162 52.8039 40.4392L54.7533 40.886C55.972 35.5689 55.972 30.0356 54.7533 24.7186L52.8039 25.1654ZM24.5537 11.4865C29.452 10.3106 34.5494 10.3106 39.4476 11.4865L39.9145 9.54174C34.7093 8.29218 29.292 8.29218 24.0868 9.54174L24.5537 11.4865ZM39.9145 56.0628C47.2885 54.2926 53.0299 48.4052 54.7533 40.886L52.8039 40.4392C51.2456 47.2378 46.0636 52.5298 39.4476 54.1181L39.9145 56.0628ZM39.4476 11.4865C46.0636 13.0747 51.2456 18.3668 52.8039 25.1654L54.7533 24.7186C53.0299 17.1994 47.2885 11.312 39.9145 9.54174L39.4476 11.4865ZM24.0868 9.54174C16.7128 11.312 10.9714 17.1994 9.24799 24.7185L11.1974 25.1653C12.7557 18.3668 17.9377 13.0747 24.5537 11.4865L24.0868 9.54174ZM20.5209 8V14.7033H22.5209V8H20.5209ZM41.4804 8V14.7033H43.4804V8H41.4804Z" fill="#ACE3FF"/>
<path d="M20.6508 28.1931C20.2315 27.8337 19.6002 27.8822 19.2407 28.3015C18.8813 28.7209 18.9299 29.3522 19.3492 29.7116L20.6508 28.1931ZM22.6667 31.2381L22.0159 31.9973C22.3904 32.3183 22.943 32.3183 23.3175 31.9973L22.6667 31.2381ZM28.6508 27.4259C29.0701 27.0665 29.1187 26.4352 28.7593 26.0158C28.3998 25.5965 27.7685 25.5479 27.3492 25.9074L28.6508 27.4259ZM20.6508 39.6217C20.2315 39.2622 19.6002 39.3108 19.2407 39.7301C18.8813 40.1494 18.9299 40.7807 19.3492 41.1402L20.6508 39.6217ZM22.6667 42.6666L22.0159 43.4259C22.3904 43.7469 22.943 43.7469 23.3175 43.4259L22.6667 42.6666ZM28.6508 38.8545C29.0701 38.495 29.1187 37.8637 28.7593 37.4444C28.3998 37.0251 27.7685 36.9765 27.3492 37.3359L28.6508 38.8545ZM34.6667 29.0952C34.1144 29.0952 33.6667 29.5429 33.6667 30.0952C33.6667 30.6475 34.1144 31.0952 34.6667 31.0952V29.0952ZM44 31.0952C44.5523 31.0952 45 30.6475 45 30.0952C45 29.5429 44.5523 29.0952 44 29.0952V31.0952ZM34.6667 40.5238C34.1144 40.5238 33.6667 40.9715 33.6667 41.5238C33.6667 42.0761 34.1144 42.5238 34.6667 42.5238V40.5238ZM44 42.5238C44.5523 42.5238 45 42.0761 45 41.5238C45 40.9715 44.5523 40.5238 44 40.5238V42.5238ZM19.3492 29.7116L22.0159 31.9973L23.3175 30.4788L20.6508 28.1931L19.3492 29.7116ZM23.3175 31.9973L28.6508 27.4259L27.3492 25.9074L22.0159 30.4788L23.3175 31.9973ZM19.3492 41.1402L22.0159 43.4259L23.3175 41.9074L20.6508 39.6217L19.3492 41.1402ZM23.3175 43.4259L28.6508 38.8545L27.3492 37.3359L22.0159 41.9074L23.3175 43.4259ZM34.6667 31.0952H44V29.0952H34.6667V31.0952ZM34.6667 42.5238H44V40.5238H34.6667V42.5238Z" fill="#008CEF"/>
</svg>
