<svg width="64" height="64" viewBox="0 0 64 64" fill="none" xmlns="http://www.w3.org/2000/svg">
<path d="M9.83426 24.1827C11.5043 17.063 17.0635 11.5038 24.1832 9.83377C29.325 8.62767 34.6761 8.62767 39.8179 9.83377C46.9377 11.5038 52.4968 17.063 54.1669 24.1827C55.373 29.3245 55.373 34.6756 54.1669 39.8174C52.4968 46.9372 46.9376 52.4963 39.8179 54.1664C34.6761 55.3725 29.325 55.3725 24.1832 54.1664C17.0635 52.4963 11.5043 46.9372 9.83426 39.8174C8.62816 34.6756 8.62816 29.3245 9.83426 24.1827Z" stroke="#ACE3FF" stroke-width="2"/>
<path d="M24 24H34.6667M24 40H32M24 32H40" stroke="#008CEF" stroke-width="2" stroke-linecap="round"/>
</svg>
