<svg fill="none" height="16" viewBox="0 0 16 16" width="16" xmlns="http://www.w3.org/2000/svg"><g fill="currentColor"><path d="m7.33203 6.88893c0-.30683.24873-.55556.55556-.55556h1.11111c.30682 0 .55555.24873.55555.55556v2.77778h1.11115c.3068 0 .5555.24873.5555.55559 0 .3068-.2487.5555-.5555.5555h-3.33337c-.30682 0-.55555-.2487-.55555-.5555 0-.30686.24873-.55559.55555-.55559h1.11111v-2.22223h-.55555c-.30683 0-.55556-.24873-.55556-.55555z"/><path d="m8.72092 5.77782c.46024 0 .83333-.3731.83333-.83334 0-.46023-.37309-.83333-.83333-.83333s-.83333.3731-.83333.83333c0 .46024.37309.83334.83333.83334z"/><path clip-rule="evenodd" d="m2.33203 8.00004c0-3.6819 2.98477-6.66667 6.66667-6.66667s6.6667 2.98477 6.6667 6.66667c0 3.68186-2.9848 6.66666-6.6667 6.66666s-6.66667-2.9848-6.66667-6.66666zm6.66667-5.55555c-3.06825 0-5.55556 2.4873-5.55556 5.55555 0 3.06826 2.48731 5.55556 5.55556 5.55556 3.0682 0 5.5556-2.4873 5.5556-5.55556 0-3.06825-2.4874-5.55555-5.5556-5.55555z" fill-rule="evenodd"/></g></svg>