<svg width="64" height="64" viewBox="0 0 64 64" fill="none" xmlns="http://www.w3.org/2000/svg">
<path d="M12.4076 45.4564L13.3332 45.0779L13.3332 45.0779L12.4076 45.4564ZM11.4823 30.5205L10.5173 30.2581L10.5173 30.2581L11.4823 30.5205ZM52.5165 30.5205L53.4814 30.2581V30.2581L52.5165 30.5205ZM51.5911 45.4564L50.6655 45.0779V45.0779L51.5911 45.4564ZM37.4299 55.58L37.2761 54.5919L37.4299 55.58ZM26.5687 55.58L26.7225 54.5919H26.7225L26.5687 55.58ZM21.5525 20.7609L21.3541 19.7807V19.7807L21.5525 20.7609ZM42.4463 20.7609L42.2479 21.741L42.4463 20.7609ZM24.5721 55.2693L24.4184 56.2574H24.4184L24.5721 55.2693ZM12.6553 46.0622L11.7297 46.4407L11.7297 46.4407L12.6553 46.0622ZM39.4265 55.2693L39.5803 56.2574H39.5803L39.4265 55.2693ZM51.3433 46.0622L52.269 46.4407V46.4407L51.3433 46.0622ZM52.3124 29.7699L51.3474 30.0323V30.0323L52.3124 29.7699ZM11.6863 29.7699L12.6513 30.0323V30.0323L11.6863 29.7699ZM39.2728 54.2812L37.2761 54.5919L37.5837 56.5681L39.5803 56.2574L39.2728 54.2812ZM26.7225 54.5919L24.7259 54.2812L24.4184 56.2574L26.415 56.5681L26.7225 54.5919ZM51.3474 30.0323L51.5515 30.7828L53.4814 30.2581L53.2773 29.5075L51.3474 30.0323ZM50.6655 45.0779L50.4177 45.6838L52.269 46.4407L52.5167 45.8349L50.6655 45.0779ZM13.5809 45.6837L13.3332 45.0779L11.482 45.8349L11.7297 46.4407L13.5809 45.6837ZM12.4472 30.7829L12.6513 30.0323L10.7214 29.5075L10.5173 30.2581L12.4472 30.7829ZM13.3332 45.0779C11.4694 40.5195 11.1598 35.5175 12.4472 30.7829L10.5173 30.2581C9.11414 35.4185 9.45231 40.8709 11.482 45.8349L13.3332 45.0779ZM51.5515 30.7828C52.8389 35.5175 52.5293 40.5195 50.6655 45.0779L52.5167 45.8349C54.5464 40.8709 54.8846 35.4185 53.4814 30.2581L51.5515 30.7828ZM37.2761 54.5919C33.7813 55.1358 30.2173 55.1358 26.7225 54.5919L26.415 56.5681C30.1136 57.1437 33.885 57.1437 37.5837 56.5681L37.2761 54.5919ZM21.7508 21.741C28.5082 20.3736 35.4906 20.3736 42.2479 21.741L42.6446 19.7807C35.6254 18.3604 28.3733 18.3604 21.3541 19.7807L21.7508 21.741ZM24.7259 54.2812C19.6599 53.4929 15.4321 50.211 13.5809 45.6837L11.7297 46.4407C13.8584 51.6469 18.6924 55.3664 24.4184 56.2574L24.7259 54.2812ZM39.5803 56.2574C45.3062 55.3664 50.1402 51.6469 52.269 46.4407L50.4177 45.6838C48.5666 50.211 44.3387 53.4929 39.2728 54.2812L39.5803 56.2574ZM42.2479 21.741C46.7059 22.6431 50.2152 25.8685 51.3474 30.0323L53.2773 29.5075C51.9365 24.5765 47.8053 20.825 42.6446 19.7807L42.2479 21.741ZM21.3541 19.7807C16.1934 20.825 12.0622 24.5765 10.7214 29.5075L12.6513 30.0323C13.7835 25.8685 17.2928 22.6431 21.7508 21.741L21.3541 19.7807Z" fill="#ACE3FF"/>
<path d="M40.4718 21.4021L39.5563 20.9998V20.9998L40.4718 21.4021ZM38.9882 22.2924C38.7661 22.7981 38.9958 23.3881 39.5014 23.6103C40.0071 23.8324 40.5971 23.6027 40.8193 23.0971L38.9882 22.2924ZM23.525 21.4021L24.4405 20.9998L24.4405 20.9998L23.525 21.4021ZM23.1776 23.0971C23.3998 23.6027 23.9898 23.8324 24.4954 23.6103C25.001 23.3881 25.2308 22.7981 25.0086 22.2924L23.1776 23.0971ZM29.9796 8.19787L30.1478 9.18361L30.1478 9.18361L29.9796 8.19787ZM30.2928 8.14441L30.1246 7.15866L30.1246 7.15866L30.2928 8.14441ZM33.704 8.14441L33.5358 9.13016L33.5358 9.13016L33.704 8.14441ZM34.0173 8.19787L34.1855 7.21212L34.1855 7.21212L34.0173 8.19787ZM41.1327 14.7956L42.1094 14.581L41.1327 14.7956ZM22.8642 14.7956L23.8409 15.0102H23.8409L22.8642 14.7956ZM39.5563 20.9998L38.9882 22.2924L40.8193 23.0971L41.3873 21.8044L39.5563 20.9998ZM22.6095 21.8044L23.1776 23.0971L25.0086 22.2924L24.4405 20.9998L22.6095 21.8044ZM30.1478 9.18361L30.461 9.13016L30.1246 7.15866L29.8113 7.21212L30.1478 9.18361ZM33.5358 9.13016L33.849 9.18361L34.1855 7.21212L33.8723 7.15866L33.5358 9.13016ZM40.156 15.0102C40.597 17.0174 40.3886 19.1057 39.5563 20.9998L41.3873 21.8044C42.3891 19.5246 42.6418 17.0043 42.1094 14.581L40.156 15.0102ZM21.8875 14.581C21.355 17.0043 21.6077 19.5246 22.6095 21.8044L24.4405 20.9998C23.6082 19.1057 23.3999 17.0174 23.8409 15.0102L21.8875 14.581ZM30.461 9.13016C31.4778 8.95661 32.519 8.95661 33.5358 9.13016L33.8723 7.15866C32.6328 6.94711 31.3641 6.94711 30.1246 7.15866L30.461 9.13016ZM42.1094 14.581C41.2745 10.7814 38.1216 7.8839 34.1855 7.21212L33.849 9.18361C37.0276 9.72611 39.5055 12.0498 40.156 15.0102L42.1094 14.581ZM23.8409 15.0102C24.4913 12.0498 26.9692 9.72611 30.1478 9.18361L29.8113 7.21212C25.8752 7.8839 22.7223 10.7814 21.8875 14.581L23.8409 15.0102Z" fill="#13CE66"/>
</svg>
