<svg width="64" height="64" viewBox="0 0 64 64" fill="none" xmlns="http://www.w3.org/2000/svg">
<path d="M24.0215 47.7426L24.1332 46.7488L22.9368 46.6143L23.0241 47.8151L24.0215 47.7426ZM39.9729 47.7426L40.9703 47.8151L41.0577 46.6143L39.8612 46.7488L39.9729 47.7426ZM39.7309 49.2727L40.702 49.5115V49.5115L39.7309 49.2727ZM39.5123 50.1617L38.5413 49.9229V49.9229L39.5123 50.1617ZM33.8742 55.7788L34.1069 56.7513H34.1069L33.8742 55.7788ZM30.1202 55.7788L29.8875 56.7513H29.8875L30.1202 55.7788ZM24.4821 50.1617L25.4531 49.9229V49.9229L24.4821 50.1617ZM24.2635 49.2727L23.2924 49.5115V49.5115L24.2635 49.2727ZM23.9098 48.7363C29.2846 49.3406 34.7099 49.3406 40.0847 48.7363L39.8612 46.7488C34.6349 47.3364 29.3595 47.3364 24.1332 46.7488L23.9098 48.7363ZM40.702 49.5115C40.839 48.9542 40.9287 48.3867 40.9703 47.8151L38.9756 47.67C38.9421 48.1296 38.87 48.5859 38.7599 49.0339L40.702 49.5115ZM40.4834 50.4005L40.702 49.5115L38.7599 49.0339L38.5413 49.9229L40.4834 50.4005ZM34.1069 56.7513C37.2505 55.9993 39.7097 53.5471 40.4834 50.4005L38.5413 49.9229C37.9454 52.3464 36.0532 54.2293 33.6416 54.8062L34.1069 56.7513ZM29.8875 56.7513C31.2746 57.0831 32.7198 57.0831 34.1069 56.7513L33.6416 54.8062C32.5604 55.0648 31.434 55.0648 30.3529 54.8062L29.8875 56.7513ZM23.511 50.4005C24.2847 53.5471 26.7439 55.9993 29.8875 56.7513L30.3529 54.8062C27.9412 54.2293 26.0491 52.3464 25.4531 49.9229L23.511 50.4005ZM23.2924 49.5115L23.511 50.4005L25.4531 49.9229L25.2346 49.0339L23.2924 49.5115ZM23.0241 47.8151C23.0657 48.3867 23.1554 48.9542 23.2924 49.5115L25.2346 49.0339C25.1244 48.5859 25.0523 48.1296 25.0188 47.67L23.0241 47.8151Z" fill="#13CE66"/>
<path d="M33 8C33 7.44772 32.5523 7 32 7C31.4477 7 31 7.44772 31 8H33ZM31 10.6793C31 11.2316 31.4477 11.6793 32 11.6793C32.5523 11.6793 33 11.2316 33 10.6793H31ZM31 8V10.6793H33V8H31Z" fill="#13CE66"/>
<path d="M16.0741 23.0203L17.0393 23.2818L17.0393 23.2818L16.0741 23.0203ZM27.089 11.4727L26.7807 10.5214V10.5214L27.089 11.4727ZM15.9546 23.4615L14.9894 23.2V23.2L15.9546 23.4615ZM15.4388 34.3132L16.4245 34.1445L15.4388 34.3132ZM15.4988 34.6638L14.5132 34.8325L14.5132 34.8325L15.4988 34.6638ZM16.7669 46.5525L16.9665 45.5726H16.9665L16.7669 46.5525ZM17.7472 46.7522L17.5475 47.7321H17.5475L17.7472 46.7522ZM46.2528 46.7522L46.4525 47.7321L46.2528 46.7522ZM47.2331 46.5525L47.0335 45.5726H47.0335L47.2331 46.5525ZM48.5127 34.5966L49.4983 34.7653V34.7653L48.5127 34.5966ZM48.5763 34.2248L47.5907 34.056V34.056L48.5763 34.2248ZM48.1112 23.5367L49.0785 23.2829V23.2829L48.1112 23.5367ZM47.9448 22.9023L46.9775 23.1561V23.1561L47.9448 22.9023ZM37.2455 11.4891L37.5591 10.5395V10.5395L37.2455 11.4891ZM48.9413 35.4688L48.453 36.3415L48.9413 35.4688ZM15.1146 35.4379L14.6357 34.56H14.6357L15.1146 35.4379ZM17.0393 23.2818C18.4285 18.1548 22.3607 14.0566 27.3974 12.4239L26.7807 10.5214C21.106 12.3609 16.6762 16.9746 15.1089 22.7588L17.0393 23.2818ZM16.9198 23.723L17.0393 23.2818L15.1089 22.7588L14.9894 23.2L16.9198 23.723ZM16.4245 34.1445C15.8306 30.676 15.9997 27.1188 16.9198 23.723L14.9894 23.2C13.9933 26.8763 13.8103 30.7271 14.4532 34.482L16.4245 34.1445ZM16.4845 34.495L16.4245 34.1445L14.4532 34.482L14.5132 34.8325L16.4845 34.495ZM13 40.6944C13 38.8031 14.0482 37.1587 15.5935 36.3158L14.6357 34.56C12.4707 35.741 11 38.0456 11 40.6944H13ZM16.9665 45.5726C14.662 45.1031 13 43.0656 13 40.6944H11C11 44.0099 13.3249 46.8718 16.5673 47.5324L16.9665 45.5726ZM17.9468 45.7723L16.9665 45.5726L16.5673 47.5324L17.5475 47.7321L17.9468 45.7723ZM46.0532 45.7723C36.7787 47.6617 27.2212 47.6617 17.9468 45.7723L17.5475 47.7321C27.0855 49.6752 36.9145 49.6752 46.4525 47.7321L46.0532 45.7723ZM47.0335 45.5726L46.0532 45.7723L46.4525 47.7321L47.4327 47.5324L47.0335 45.5726ZM51 40.6944C51 43.0656 49.338 45.1031 47.0335 45.5726L47.4327 47.5324C50.6751 46.8718 53 44.0099 53 40.6944H51ZM48.453 36.3415C49.9729 37.1919 51 38.8222 51 40.6944H53C53 38.0724 51.5587 35.7875 49.4297 34.5961L48.453 36.3415ZM47.5907 34.056L47.527 34.4278L49.4983 34.7653L49.562 34.3935L47.5907 34.056ZM47.144 23.7905C48.0229 27.1406 48.1753 30.6415 47.5907 34.056L49.562 34.3935C50.1947 30.698 50.0299 26.909 49.0785 23.2829L47.144 23.7905ZM46.9775 23.1561L47.144 23.7905L49.0785 23.2829L48.9121 22.6486L46.9775 23.1561ZM36.9319 12.4386C41.8693 14.0693 45.6516 18.1022 46.9775 23.1561L48.9121 22.6486C47.415 16.9424 43.143 12.3837 37.5591 10.5395L36.9319 12.4386ZM27.3974 12.4239C30.489 11.4218 33.8504 11.4209 36.9319 12.4386L37.5591 10.5395C34.0693 9.38697 30.2722 9.38962 26.7807 10.5214L27.3974 12.4239ZM49.4297 34.5961C49.4526 34.609 49.4712 34.6283 49.4837 34.6534C49.4969 34.6798 49.5062 34.7195 49.4983 34.7653L47.527 34.4278C47.391 35.222 47.7982 35.975 48.453 36.3415L49.4297 34.5961ZM14.5132 34.8325C14.4905 34.7003 14.5587 34.602 14.6357 34.56L15.5935 36.3158C16.2248 35.9714 16.6141 35.2518 16.4845 34.495L14.5132 34.8325Z" fill="#ACE3FF"/>
</svg>
