<svg width="64" height="64" viewBox="0 0 64 64" fill="none" xmlns="http://www.w3.org/2000/svg">
<path d="M44.9618 40.9962C45.0983 41.0415 45.2315 41.0962 45.3602 41.1602L49.8505 43.3902C53.2888 45.0978 57.3343 42.6144 57.3343 38.7962L57.3343 26.1604C57.3343 22.1261 52.8667 19.6667 49.4224 21.8048L45.4606 24.2643C45.2654 24.3854 45.0847 24.5282 44.9219 24.6899" stroke="#13CE66" stroke-width="2"/>
<path d="M44.4348 40.8223C45.6267 35.5643 45.7397 30.1273 44.7738 24.8353M7.68601 41.1783L7.85039 41.9088C8.84593 46.3334 12.278 49.8165 16.7101 50.9003C22.7518 52.3778 29.1332 52.3609 35.175 50.8834C39.5515 49.8132 43.029 46.4175 44.1301 42.0764L44.1968 41.8136C45.8308 35.3719 45.8308 28.6282 44.1968 22.1864L44.1301 21.9236C43.029 17.5825 39.5515 14.1868 35.175 13.1166C29.1333 11.6391 22.7518 11.6222 16.7101 13.0997C12.278 14.1835 8.84593 17.6666 7.85039 22.0911L7.68601 22.8217C6.32602 28.866 6.32602 35.134 7.68601 41.1783Z" stroke="#ACE3FF" stroke-width="2"/>
</svg>
