<svg width="64" height="64" viewBox="0 0 64 64" fill="none" xmlns="http://www.w3.org/2000/svg">
<path d="M14.6673 24H9.33398" stroke="#13CE66" stroke-width="2" stroke-linecap="round"/>
<path d="M13.3327 40L10.666 40" stroke="#13CE66" stroke-width="2" stroke-linecap="round"/>
<path d="M10.6673 32H5.33398" stroke="#13CE66" stroke-width="2" stroke-linecap="round"/>
<path d="M32.1093 33.0398C32.6616 33.0398 33.1093 32.5921 33.1093 32.0398C33.1093 31.4875 32.6616 31.0398 32.1093 31.0398V33.0398ZM24.7148 33.0398H32.1093V31.0398H24.7148V33.0398Z" fill="#13CE66"/>
<path d="M31.5656 12.8229L32.0383 11.9417V11.9417L31.5656 12.8229ZM54.7718 25.2716L54.299 26.1528L54.7718 25.2716ZM54.7622 38.7875L55.2335 39.6695L54.7622 38.7875ZM31.5683 51.1823L31.097 50.3004H31.097L31.5683 51.1823ZM21.6987 42.115L20.7407 41.8282L21.6987 42.115ZM21.684 21.8771L20.7258 22.1629L21.684 21.8771ZM24.6295 32.3261L25.5875 32.6129L24.6295 32.3261ZM24.6298 31.7535L25.5881 31.4677L24.6298 31.7535ZM31.0929 13.7041L54.299 26.1528L55.2445 24.3903L32.0383 11.9417L31.0929 13.7041ZM54.2908 37.9056L31.097 50.3004L32.0396 52.0643L55.2335 39.6695L54.2908 37.9056ZM22.6567 42.4018L25.5875 32.6129L23.6715 32.0393L20.7407 41.8282L22.6567 42.4018ZM25.5881 31.4677L22.6423 21.5913L20.7258 22.1629L23.6715 32.0393L25.5881 31.4677ZM31.097 50.3004C28.7226 51.5692 26.2333 51.0123 24.4999 49.4198C22.7594 47.8208 21.8191 45.1995 22.6567 42.4018L20.7407 41.8282C19.6719 45.3981 20.8727 48.8034 23.1468 50.8926C25.4279 52.9883 28.8266 53.7813 32.0396 52.0643L31.097 50.3004ZM54.299 26.1528C58.7941 28.5641 58.7888 35.5018 54.2908 37.9056L55.2335 39.6695C61.1404 36.5128 61.1464 27.5564 55.2445 24.3903L54.299 26.1528ZM32.0383 11.9417C28.8272 10.219 25.4267 11.0071 23.1425 13.1001C20.8654 15.1866 19.6604 18.5909 20.7258 22.1629L22.6423 21.5913C21.8074 18.792 22.751 16.1714 24.4937 14.5747C26.2292 12.9844 28.7197 12.431 31.0929 13.7041L32.0383 11.9417ZM25.5875 32.6129C25.6993 32.2394 25.6995 31.8413 25.5881 31.4677L23.6715 32.0393L25.5875 32.6129Z" fill="#ACE3FF"/>
</svg>
