<svg width="160" height="160" fill="none" xmlns="http://www.w3.org/2000/svg"><g filter="url(#filter0_d)"><circle cx="74.168" cy="62.5" fill="#FF9519" r="7.5"/><path d="M102.64 87.64c7.172 0 12.986-5.815 12.986-12.987s-5.814-12.986-12.986-12.986c-7.172 0-12.986 5.814-12.986 12.986 0 7.172 5.814 12.986 12.986 12.986zm-25.76 27.367c1.632-12.773 12.543-22.646 25.76-22.646 13.218 0 24.129 9.873 25.762 22.646.233 1.827-1.282 3.327-3.123 3.327H80.002c-1.841 0-3.356-1.5-3.123-3.327z" fill="#FF9519"/><g filter="url(#filter1_biii)" fill="#FF9519" fill-opacity=".24"><path d="M68.335 75c10.125 0 18.333-8.208 18.333-18.334 0-10.125-8.208-18.333-18.333-18.333-10.125 0-18.333 8.208-18.333 18.333C50.002 66.792 58.21 75 68.334 75zm-36.068 36.7c3.121-17.084 18.082-30.034 36.068-30.034 17.985 0 32.946 12.95 36.068 30.034.662 3.622-2.386 6.633-6.068 6.633h-60c-3.682 0-6.73-3.011-6.068-6.633z"/></g><path d="M68.333 88.333a3.333 3.333 0 100 6.667 3.333 3.333 0 000-6.667zm0 10A3.333 3.333 0 0065 101.666v6.667a3.333 3.333 0 006.667 0v-6.667a3.333 3.333 0 00-3.334-3.333z" fill="#fff"/></g><defs><filter id="filter0_d" x="-20" y="-3" width="200" height="200" filterUnits="userSpaceOnUse" color-interpolation-filters="sRGB"><feFlood flood-opacity="0" result="BackgroundImageFix"/><feColorMatrix in="SourceAlpha" values="0 0 0 0 0 0 0 0 0 0 0 0 0 0 0 0 0 0 127 0"/><feOffset dy="17"/><feGaussianBlur stdDeviation="10"/><feColorMatrix values="0 0 0 0 0 0 0 0 0 0 0 0 0 0 0 0 0 0 0.02 0"/><feBlend in2="BackgroundImageFix" result="effect1_dropShadow"/><feBlend in="SourceGraphic" in2="effect1_dropShadow" result="shape"/></filter><filter id="filter1_biii" x="18.176" y="24.333" width="100.318" height="108" filterUnits="userSpaceOnUse" color-interpolation-filters="sRGB"><feFlood flood-opacity="0" result="BackgroundImageFix"/><feGaussianBlur in="BackgroundImage" stdDeviation="7"/><feComposite in2="SourceAlpha" operator="in" result="effect1_backgroundBlur"/><feBlend in="SourceGraphic" in2="effect1_backgroundBlur" result="shape"/><feColorMatrix in="SourceAlpha" values="0 0 0 0 0 0 0 0 0 0 0 0 0 0 0 0 0 0 127 0" result="hardAlpha"/><feOffset dy="-3"/><feGaussianBlur stdDeviation="1.5"/><feComposite in2="hardAlpha" operator="arithmetic" k2="-1" k3="1"/><feColorMatrix values="0 0 0 0 1 0 0 0 0 1 0 0 0 0 1 0 0 0 0.3 0"/><feBlend in2="shape" result="effect2_innerShadow"/><feColorMatrix in="SourceAlpha" values="0 0 0 0 0 0 0 0 0 0 0 0 0 0 0 0 0 0 127 0" result="hardAlpha"/><feOffset dy="4"/><feGaussianBlur stdDeviation="2"/><feComposite in2="hardAlpha" operator="arithmetic" k2="-1" k3="1"/><feColorMatrix values="0 0 0 0 1 0 0 0 0 1 0 0 0 0 1 0 0 0 0.25 0"/><feBlend in2="effect2_innerShadow" result="effect3_innerShadow"/><feColorMatrix in="SourceAlpha" values="0 0 0 0 0 0 0 0 0 0 0 0 0 0 0 0 0 0 127 0" result="hardAlpha"/><feOffset dy="-1"/><feGaussianBlur stdDeviation=".5"/><feComposite in2="hardAlpha" operator="arithmetic" k2="-1" k3="1"/><feColorMatrix values="0 0 0 0 1 0 0 0 0 1 0 0 0 0 1 0 0 0 0.35 0"/><feBlend in2="effect3_innerShadow" result="effect4_innerShadow"/></filter></defs></svg>