<svg width="180" height="269" fill="none" xmlns="http://www.w3.org/2000/svg"><g clip-path="url(#clip0)"><path d="M177.17 234.434l-10.786-6.208c.995.919 1.454 1.916 1.454 2.989v7.204c0 1.38-.918 2.836-2.754 3.832l-34.501 19.928c-1.836 1.073-4.284 1.609-6.655 1.609h12.316c2.371-.076 4.666-.536 6.502-1.609l34.501-19.928c3.672-2.146 3.672-5.671-.077-7.817z" fill="url(#paint0_linear)"/><path d="M57.908 220.638l59.286 34.26c3.749 2.146 9.792 2.146 13.54 0l34.425-19.928c1.835-1.073 2.753-2.452 2.753-3.909v7.205c0 1.379-.918 2.836-2.753 3.909l-34.425 19.927c-3.748 2.146-9.791 2.146-13.54 0l-59.286-34.26c-1.836-1.073-2.754-2.452-2.754-3.832v-7.204c0 1.379.918 2.835 2.754 3.832z" fill="url(#paint1_linear)"/><path d="M57.909 212.82c-3.748 2.146-3.748 5.672 0 7.818l59.286 34.259c3.748 2.146 9.792 2.146 13.54 0l34.424-19.927c3.749-2.146 3.749-5.672 0-7.818l-59.286-34.259c-3.748-2.146-9.791-2.146-13.54 0L57.91 212.82z" fill="#F5F5FA"/><path d="M165.161 227.228l-37.178-21.537H81.625l61.428 35.64-6.273 3.602h11.092l17.212-9.964c3.749-2.069 3.749-5.595.077-7.741z" fill="url(#paint2_linear)"/><path d="M143.054 185.688l-6.273 3.602v55.72l6.273-3.679v-55.643z" fill="#949BC5"/><path d="M136.781 176.107l-61.658-35.793v68.903l61.658 35.793v-68.903z" fill="#BBBEDE"/><path d="M82.619 103.909c1.53-2.069 4.59-2.682 6.884-1.38l71.985 41.618c2.219 1.303 2.754 4.062 1.224 6.131l-40.314 53.881c-1.53 2.069-4.59 2.683-6.885 1.38l-71.985-41.618c-2.218-1.303-2.754-4.062-1.224-6.131l40.315-53.881z" fill="#F5F5FA"/><path d="M115.512 205.539c2.218 1.303 5.278.69 6.885-1.38l40.314-53.88c1.224-1.686 1.148-3.756-.153-5.135l5.126 6.054c1.3 1.457 1.453 3.603.229 5.289l-40.314 53.88c-1.53 2.07-4.59 2.683-6.885 1.38l-71.985-41.618c-.535-.306-.994-.689-1.3-1.149l-4.82-5.749c.306.307.612.614.995.844l71.908 41.464z" fill="url(#paint3_linear)"/><path d="M118.725 202.626c13.617-18.241 27.004-36.176 40.62-54.34-20.501-11.88-54.619-31.577-73.361-42.461-13.693 18.395-26.928 36.023-40.62 54.341 19.965 11.573 48.193 27.898 73.361 42.46z" fill="url(#paint4_linear)"/><path d="M65.406 240.642l-38.86.076-5.126 8.584h6.273l-2.678 4.446h40.391v-13.106z" fill="url(#paint5_linear)"/><path d="M30.064 164.151c0 .767 2.754 11.037 3.366 12.033.842 1.457 2.372 2.99 2.678 3.986.382.92.688 2.836.688 3.296 0 .46-.612 2.222-1.224 1.992-.612-.23.306-1.149 0-1.456-.153.307-.841.997-1.453.843-.612-.153-.383-.383-.383-.383-.306.153-.765.153-.918-.153-.306.076-.765.306-.841-.383-.153-.69-.23-1.84-.46-2.3-.917-1.456-.84-4.905-.994-5.288-.153-.46-3.595-8.968-3.825-10.73-.306-1.763-.23-10.807 1.3-10.884 1.53-.076 2.066 6.822 2.066 9.427z" fill="#F4D1AD"/><path d="M25.016 240.181c-1.912.307-2.448 3.372-1.453 5.212.611.69 2.065 1.303 2.065 1.303s5.967 2.452 7.267 2.529c1.3.077 4.284-.383 4.514-2.682-.23-1.38-1.377-1.763-2.83-2.606-1.837-1.15-3.443-2.759-4.973-3.449-1.3-.613-4.59-.307-4.59-.307z" fill="url(#paint6_linear)"/><path d="M28.612 238.265c-.918.153-3.825.843-3.825.843s-1.07 3.065.612 3.602c3.366 1.073 6.196-1.226 4.896-1.916-.918-.46-1.836-1.073-1.683-2.529z" fill="#F4D1AD"/><path d="M32.818 248.689c-1.377-.077-7.497-2.606-7.497-2.606s-1.453-.613-2.065-1.227l.23.69c.611.69 2.065 1.303 2.065 1.303s5.967 2.453 7.267 2.529c1.3.077 4.284-.383 4.514-2.682v-.153c-.613 1.762-3.29 2.222-4.514 2.146z" fill="#121244"/><path d="M30.829 241.254c-.23-.307-.842-1.227-1.836-.46-1.071.766-1.3 1.686-1.147 2.452.152.767 2.294.23 2.37.077.077-.153.613-2.069.613-2.069z" fill="#34318D"/><path d="M31.825 242.173c-.459.153-1.53.92-1.989 1.916-.153.307-.535.46-.765.307-.306-.153-.459-.537-.306-.767.612-1.303 1.913-2.222 2.601-2.529.306-.153.688 0 .765.307.153.306 0 .69-.306.766zm1.836 1.227c-.459.153-1.53.919-1.989 1.916-.153.306-.535.46-.765.306-.306-.153-.459-.536-.306-.766.612-1.303 1.913-2.223 2.601-2.529.306-.154.689 0 .765.306.153.307 0 .613-.306.767z" fill="#fff"/><path d="M28.076 178.253c.918 11.19 2.371 21.843 2.371 30.811 0 10.27-1.76 21.077-1.912 29.661.076 2.606-2.907 4.675-4.131 2.376-.076-.767.306-1.763.153-2.836-.765-6.592-2.983-16.632-1.147-25.139-2.601-11.267-9.716-25.139-8.645-33.953 3.29-1.533 10.863-1.687 13.31-.92zm-1.455-35.409c2.907 1.456 3.978 3.679 3.978 8.047-1.913-1.226-3.978-8.047-3.978-8.047z" fill="#F4D1AD"/><path d="M25.093 182.546v1.839l-1.607-.919 1.607-.92z" fill="#4141A8"/><path d="M17.137 244.704c-1.912.306-2.448 3.372-1.453 5.211.612.69 2.065 1.303 2.065 1.303s5.967 2.453 7.267 2.53c1.3.076 4.284-.384 4.514-2.683-.23-1.38-1.377-1.763-2.83-2.606-1.837-1.15-3.443-2.759-4.973-3.449-1.224-.613-4.59-.306-4.59-.306z" fill="url(#paint7_linear)"/><path d="M20.81 242.788c-.919.153-3.826.843-3.826.843s-1.07 3.066.612 3.602c3.366 1.073 6.197-1.226 4.896-1.916-.918-.536-1.836-1.073-1.683-2.529z" fill="#F4D1AD"/><path d="M24.94 253.135c-1.378-.077-7.498-2.606-7.498-2.606s-1.453-.613-2.065-1.226l.23.69c.611.689 2.065 1.302 2.065 1.302s5.967 2.453 7.267 2.53c1.3.076 4.284-.384 4.514-2.683v-.153c-.536 1.839-3.213 2.299-4.514 2.146z" fill="#121244"/><path d="M22.95 245.777c-.23-.306-.841-1.226-1.836-.46-1.07.767-1.3 1.686-1.147 2.453.153.766 2.295.23 2.371.076.076-.153.612-2.069.612-2.069z" fill="#34318D"/><path d="M24.022 246.697c-.459.153-1.53.919-1.989 1.916-.153.306-.535.46-.765.306-.306-.153-.459-.536-.306-.766.612-1.303 1.913-2.223 2.601-2.529.306-.154.689 0 .765.306.077.307 0 .69-.306.767zm1.836 1.226c-.459.153-1.53.92-1.989 1.916-.153.307-.535.46-.765.307-.306-.153-.459-.537-.306-.767.612-1.303 1.913-2.222 2.601-2.529.306-.153.689 0 .765.307.153.306 0 .613-.306.766z" fill="#fff"/><path d="M21.956 183.082c0 10.271.077 21.767.077 30.734 0 10.271-1.148 20.847-1.3 29.432.076 2.605-2.907 4.675-4.131 2.376-.077-.767.306-1.763.153-2.836-.765-6.592-2.984-16.632-1.148-25.139-2.6-11.267-6.579-23.07-4.207-34.567 3.29-1.533 8.032-.766 10.556 0z" fill="#F4D1AD"/><path d="M14.23 169.823c.841-7.741-2.83-15.022-3.443-19.928-.459-3.065-.765-6.668 2.066-7.511 2.83-.919 3.978-1.303 6.502-1.226 5.967.153 8.72 1.38 9.945 5.518 1.147 3.832 1.989 5.059 2.907 8.814.459 1.686-4.284 5.365-3.672 12.723 4.13 6.285 7.114 20.464 8.338 31.577.46 3.373-2.907 7.665-8.95 10.654-7.573 3.832-16.447 4.139-19.737.69-.841-.843-1.224-1.84-1.224-2.836-.153-3.909 2.066-32.037 7.268-38.475z" fill="url(#paint8_linear)"/><path d="M17.138 133.954c.076-1.84 6.35 1.839 6.273 4.215-.077 1.993-.383 3.986.382 4.216.841.613 3.366 7.127 1.836 8.66-5.355-2.146-8.109-6.821-12.852-8.66 1.99-.307 4.055-2.453 4.36-8.431z" fill="#F4D1AD"/><path d="M15.684 131.424l1.912-4.752H29.53v7.204c0 3.986-2.678 7.205-5.967 7.205-3.213 0-5.814-3.066-5.967-6.821h-.841l-1.071-2.836z" fill="#F4D1AD"/><path d="M18.59 137.938c.994 1.84 2.754 3.066 4.666 3.143 0 .613.077.996.306 1.15-.306 0-.612 0-.918-.077-1.989-.46-3.442-2.07-4.054-4.216z" fill="#E9C3A1"/><path d="M22.721 121.69h.076c6.503.154 7.038 5.059 6.656 5.825-2.066.767-3.366-.69-4.667-.536-.612.076-3.136.383-4.207 1.763-1.148 1.456-.765 3.755-1.836 3.755-.459 0-.612-1.609-1.3-1.609-.612 0-1.148.536-1.071 1.379.076 1.226 1.224 1.916 1.07 2.529-.305.92-2.677-.766-2.6-4.138 0-3.526 2.295-9.198 7.879-8.968z" fill="#333389"/><path d="M11.17 173.578l-1.301 3.219c-4.437-2.299-7.114-8.43-7.344-13.336-.382-6.591 6.502-17.858 6.885-18.394 1.76-2.606 5.89-.307 4.513 2.989-.306.69-7.343 12.263-6.579 16.172.536 2.682 1.377 7.588 3.825 9.35z" fill="#F4D1AD"/><path d="M21.88 121.69c-6.962.46-7.727 7.358-10.557 9.198-1.683 1.073-5.355-.997-7.497 2.759-2.448 4.292 1.53 5.825-1.071 7.664-2.601 1.84-4.667 7.358-.23 10.73 4.36 3.373 9.869.384 9.256-4.598-.459-3.603.612-5.442 3.596-4.292 2.218.843 3.136-.92 2.065-3.219 4.973.536-.23-9.044 7.344-13.03-.23-1.916-2.907-5.212-2.907-5.212z" fill="#333389"/><path d="M11.17 173.578c.535.307 3.366-.307 4.054-.307.689 0 2.525 0 4.131.537 1.53.537 2.601 1.073 1.53 1.303.612.153 1.913.69.842.996-.077.384-.46.843-1.683.843-.383.307-3.137.92-3.978.767-.918.23-5.508.153-6.273-.843.076-1.84 1.377-3.296 1.377-3.296z" fill="#F4D1AD"/><path d="M117.656 161.852c-9.562-5.518-19.201-10.96-28.763-16.478 1.376-1.917 2.141-2.836 3.519-4.676 9.638 5.519 19.201 10.96 28.839 16.479a190.507 190.507 0 00-3.595 4.675z" fill="url(#paint9_linear)"/><path d="M111.228 170.435c-9.562-5.518-19.2-10.96-28.763-16.478 1.377-1.916 2.142-2.836 3.519-4.752 9.562 5.518 19.201 10.96 28.763 16.478-1.377 1.917-2.065 2.913-3.519 4.752z" fill="url(#paint10_linear)"/><path d="M82.465 118.548c2.218-2.989 6.502-3.526 9.792-1.61 3.29 1.916 4.284 5.518 2.142 8.431-2.219 2.989-6.809 4.062-10.098 2.223-3.29-1.84-4.054-6.055-1.836-9.044z" fill="url(#paint11_linear)"/><path d="M117.119 159.092c-9.563-5.518-19.201-10.96-28.763-16.478 1.376-1.916 2.141-2.836 3.518-4.676 9.639 5.519 19.201 10.961 28.84 16.479-1.53 1.839-2.218 2.836-3.595 4.675z" fill="#ED995A"/><path d="M110.693 167.677c-9.562-5.519-19.201-10.96-28.763-16.479 1.377-1.916 2.142-2.836 3.519-4.752 9.562 5.519 19.201 10.96 28.763 16.479-1.454 1.916-2.142 2.912-3.519 4.752zM81.93 115.942c2.218-2.989 6.502-3.525 9.792-1.609 3.289 1.916 4.284 5.518 2.142 8.43-2.219 2.99-6.809 4.063-10.098 2.223-3.29-1.839-4.055-6.055-1.836-9.044z" fill="#D67747"/><path d="M85.602 118.088c.842-1.15 2.601-1.456 3.901-.69 1.301.767 1.683 2.223.766 3.449-.842 1.15-2.678 1.533-3.978.843-1.224-.843-1.607-2.452-.689-3.602z" fill="#F6F6FB"/><path d="M107.939 261.105H65.023V269h42.916v-7.895z" fill="url(#paint12_linear)"/><path d="M88.585 249.686H45.67v7.894h42.915v-7.894z" fill="url(#paint13_linear)"/><path d="M40.928 255.127c0-6.208 3.901-6.362 3.901-6.362s2.142 0 5.584-1.456c3.443-1.456 8.186-.843 5.508 4.062 0 .077-.076.154-.076.154-.153.229-.46.536-.842.766l-8.567 5.058c-1.3.767-5.508-.919-5.508-2.222z" fill="url(#paint14_linear)"/><path d="M40.928 254.591c.076 1.302 4.207 2.989 5.508 2.222l8.567-5.058c.306-.154.765-.46 1.224-.92a3.763 3.763 0 00-.23.536c0 .077-.076.154-.076.154-.153.23-.459.536-.841.766l-8.568 5.059c-1.224.689-4.972-.767-5.431-1.993v-.23c-.153-.153-.153-.383-.153-.536z" fill="#1D1E67"/><path d="M42.534 247.923c.995 0 4.59.92 4.59.92s0 .459.306.919c0 .077.077.077.077.154.688.459 1.453 1.226-.23 2.299-1.377.843-2.448.306-2.983-.23-.23-.383-.536-.843-.995-1.073-.459-.23-.765-.383-.918-.383v-.077s-.306-2.529.153-2.529z" fill="#fff"/><path d="M42.458 187.221c3.901.076 13.616.23 17.441.306-1.453 11.65-4.36 22.304-6.273 33.647-2.065 11.037-4.436 18.701-6.502 27.898-.765 1.686-4.207 1.073-4.896-.613-.535-8.431-1.147-18.701 1.3-28.435-.305-10.5-1.3-22.226-1.07-32.803z" fill="url(#paint15_linear)"/><path d="M60.512 266.547c0-6.208 3.901-6.362 3.901-6.362s2.142 0 5.585-1.456c3.442-1.456 8.185-.843 5.507 4.062 0 .077-.076.153-.076.153-.153.23-.46.537-.842.767l-8.567 5.058c-1.3.767-5.508-.919-5.508-2.222z" fill="url(#paint16_linear)"/><path d="M60.512 266.01c.076 1.303 4.207 2.99 5.431 2.223l8.568-5.058c.306-.154.765-.46 1.224-.92a3.71 3.71 0 00-.23.536c0 .077-.076.154-.076.154-.153.23-.46.536-.842.766l-8.567 5.059c-1.224.689-4.973-.767-5.432-1.993v-.23c-.076-.153-.076-.383-.076-.537z" fill="#1D1E67"/><path d="M62.118 259.343c.995 0 4.59.919 4.59.919s0 .46.306.92c0 .077.077.077.077.153.688.46 1.453 1.227-.23 2.3-1.377.843-2.448.306-2.983-.23-.23-.383-.536-.843-.995-1.073-.459-.23-.765-.383-.918-.383v-.077s-.306-2.529.153-2.529z" fill="#fff"/><path d="M54.774 215.042c-1.07-5.058-13.31-5.671-12.469-25.369 3.825-.536 23.179 8.508 27.08 7.971.46 11.803-.688 22.687-.764 34.183-.23 11.19-1.301 19.238-1.837 28.588-.459 1.84-3.977 1.763-4.895.23-1.913-8.2-4.208-18.241-3.29-28.281-1.224-5.595-2.6-11.497-3.825-17.322z" fill="url(#paint17_linear)"/><path d="M51.101 151.274c-13.693 9.121-15.3 27.286-7.88 38.859 0-.077-1.606-25.599 7.88-38.859z" fill="url(#paint18_linear)"/><path d="M50.49 200.786c8.338 4.676 16.982 4.676 19.966-1.073-1.148-10.73-2.142-19.39 0-29.661-.612-5.671-1.071-6.514-.383-9.81-.23-1.073-3.672-3.449-6.12-5.748-2.677-2.453-4.513-4.752-5.89-5.059-11.398-2.299-16.906 18.011-15.912 39.625.918 5.748 4.284 9.427 8.339 11.726z" fill="url(#paint19_linear)"/><path d="M51.866 150.738c2.448-1.763 2.065-2.989 1.76-5.365-.46-1.303-.766-2.682-.766-4.215 0-5.442 3.443-10.117 7.65-9.811 8.491.613 6.962 5.059 6.962 10.5 0 4.982-2.295 8.431-6.044 9.044 0 .843.23 1.303 1.224 2.3-2.754 1.686-6.808.919-8.415.153-1.76-.766-3.595-1.38-2.371-2.606zm30.906 13.03c0-2.069.459-3.296 1.224-3.679.153-.536.382-1.073.535-1.533 1.071-2.989 4.36-5.518 5.126-4.828.459.46-1.3 1.763-2.142 3.142-.612.92-.612 1.456-.765 2.223 0 0 3.978.383 3.978 3.679 0 2.682-1.454 1.609-1.454 1.073-.994 2.759-2.218 1.149-2.754 3.372l-4.284-1.916c.077 0 .23-.613.536-1.533z" fill="#F4D1AD"/><path d="M56.762 129.968c1.07-.536 2.065-.306 2.677-.69 1.454-.919 2.83-1.456 3.596-.996.382.23 1.07.843 1.07.843.766.766 2.295-.843 2.678 1.073.076.613.153 1.073.153 1.533 3.595.46 1.836 3.755-1.071 10.193 0-1.073-2.218-3.448-2.218 1.15 0 .46.382.613.076 1.226-.306.69-2.448 2.3-3.825 3.679-1.912 1.916-3.06.23-6.196.537 0-1.38-.383-2.07-.842-2.913-.306-.536-2.065-2.222-2.065-5.211 2.448.383-1.913-6.362 5.967-10.424z" fill="#5557BE"/><path d="M61.964 166.297c.918 4.982 2.142 16.709 8.491 19.085 6.503-.997 15.606-14.869 16.524-18.242l-4.896-2.069c-2.983 4.829-6.196 6.438-9.715 10.04-.306-3.908-1.224-10.653-2.295-14.869-1.53-4.215-9.486-1.302-8.109 6.055z" fill="url(#paint20_linear)"/></g><g clip-path="url(#clip1)"><path d="M165.019 120.114L123.271 12.322c-2.164-5.57-5.458-8.182-8.015-6.802l8.9-5.175c2.557-1.38 5.852 1.232 8.015 6.801L173.87 114.94c1.524 3.943 1.426 6.604 0 7.541l-.148.049c-.049.049-.098.049-.147.098l-8.556 5.028c1.376-.937 1.524-3.598 0-7.541z" fill="#E33C5C"/><path d="M123.271 12.322c-2.606-6.703-6.835-9.167-9.441-5.47l-41.698 59.49c-2.607 3.696-.492 9.216 4.72 12.223l83.446 48.302c5.212 3.006 7.327 0 4.721-6.753L123.271 12.322z" fill="#FF826A"/><path d="M115.502 78.86l6.097 3.55v7.047l-6.097-3.548V78.86zm-1.18-45.69l8.458 4.88-1.18 37.212-6.098-3.55-1.18-38.542z" fill="#fff"/></g><defs><linearGradient id="paint0_linear" x1="123.888" y1="245.992" x2="179.976" y2="245.992" gradientUnits="userSpaceOnUse"><stop stop-color="#C6CAE4"/><stop offset=".633" stop-color="#EDEFF7"/><stop offset="1" stop-color="#fff"/></linearGradient><linearGradient id="paint1_linear" x1="167.931" y1="240.303" x2="55.153" y2="240.303" gradientUnits="userSpaceOnUse"><stop offset=".311" stop-color="#BBBFE2"/><stop offset=".464" stop-color="#CED2F4"/></linearGradient><linearGradient id="paint2_linear" x1="81.614" y1="225.348" x2="167.935" y2="225.348" gradientUnits="userSpaceOnUse"><stop stop-color="#C6CAE4"/><stop offset=".241" stop-color="#CDD0E7"/><stop offset=".583" stop-color="#DFE1F0"/><stop offset=".983" stop-color="#FEFEFE"/><stop offset="1" stop-color="#fff"/></linearGradient><linearGradient id="paint3_linear" x1="137.51" y1="124.019" x2="78.038" y2="194.76" gradientUnits="userSpaceOnUse"><stop offset=".758" stop-color="#BDC0E0"/><stop offset=".837" stop-color="#D0D3F2"/></linearGradient><linearGradient id="paint4_linear" x1="159.344" y1="154.217" x2="45.329" y2="154.217" gradientUnits="userSpaceOnUse"><stop stop-color="#FF826A"/><stop offset="1" stop-color="#4143A3"/></linearGradient><linearGradient id="paint5_linear" x1="21.456" y1="247.22" x2="65.392" y2="247.22" gradientUnits="userSpaceOnUse"><stop stop-color="#C4C9E5"/><stop offset=".095" stop-color="#CED2E9"/><stop offset=".409" stop-color="#E9EBF5"/><stop offset=".687" stop-color="#F9FAFC"/><stop offset=".899" stop-color="#fff"/></linearGradient><linearGradient id="paint6_linear" x1="25.535" y1="248.093" x2="33.948" y2="241.662" gradientUnits="userSpaceOnUse"><stop stop-color="#4141A8"/><stop offset=".465" stop-color="#302F8A"/><stop offset="1" stop-color="#1E1C6B"/></linearGradient><linearGradient id="paint7_linear" x1="17.707" y1="252.605" x2="26.12" y2="246.174" gradientUnits="userSpaceOnUse"><stop stop-color="#4141A8"/><stop offset=".465" stop-color="#302F8A"/><stop offset="1" stop-color="#1E1C6B"/></linearGradient><linearGradient id="paint8_linear" x1="36.835" y1="177.405" x2="6.826" y2="177.405" gradientUnits="userSpaceOnUse"><stop stop-color="#34318D"/><stop offset="1" stop-color="#6A6AE0"/></linearGradient><linearGradient id="paint9_linear" x1="88.855" y1="151.308" x2="121.162" y2="151.308" gradientUnits="userSpaceOnUse"><stop/><stop offset=".148" stop-color="#0F0A03"/><stop offset=".435" stop-color="#37240B"/><stop offset=".828" stop-color="#784E17"/><stop offset="1" stop-color="#96621D"/></linearGradient><linearGradient id="paint10_linear" x1="82.463" y1="159.854" x2="114.781" y2="159.854" gradientUnits="userSpaceOnUse"><stop/><stop offset=".194" stop-color="#0F0A04"/><stop offset=".568" stop-color="#37240D"/><stop offset="1" stop-color="#6D4719"/></linearGradient><linearGradient id="paint11_linear" x1="81.232" y1="122.206" x2="95.599" y2="122.206" gradientUnits="userSpaceOnUse"><stop/><stop offset=".194" stop-color="#0F0A04"/><stop offset=".568" stop-color="#37240D"/><stop offset="1" stop-color="#6D4719"/></linearGradient><linearGradient id="paint12_linear" x1="65.034" y1="265.038" x2="107.96" y2="265.038" gradientUnits="userSpaceOnUse"><stop stop-color="#C4C8E1"/><stop offset=".095" stop-color="#CED1E6"/><stop offset=".409" stop-color="#E9EAF4"/><stop offset=".687" stop-color="#F9FAFC"/><stop offset=".899" stop-color="#fff"/></linearGradient><linearGradient id="paint13_linear" x1="45.68" y1="253.624" x2="88.606" y2="253.624" gradientUnits="userSpaceOnUse"><stop stop-color="#C4C8E1"/><stop offset=".095" stop-color="#CED1E6"/><stop offset=".409" stop-color="#E9EAF4"/><stop offset=".687" stop-color="#F9FAFC"/><stop offset=".899" stop-color="#fff"/></linearGradient><linearGradient id="paint14_linear" x1="56.754" y1="252.111" x2="40.931" y2="252.111" gradientUnits="userSpaceOnUse"><stop stop-color="#333386"/><stop offset=".249" stop-color="#3D3E95"/><stop offset=".731" stop-color="#585ABE"/><stop offset="1" stop-color="#696CD7"/></linearGradient><linearGradient id="paint15_linear" x1="41.784" y1="218.634" x2="59.923" y2="218.634" gradientUnits="userSpaceOnUse"><stop stop-color="#4143A3"/><stop offset=".265" stop-color="#35378F"/><stop offset=".733" stop-color="#242572"/><stop offset="1" stop-color="#1D1E67"/></linearGradient><linearGradient id="paint16_linear" x1="76.318" y1="263.52" x2="60.495" y2="263.52" gradientUnits="userSpaceOnUse"><stop stop-color="#333386"/><stop offset=".249" stop-color="#3D3E95"/><stop offset=".731" stop-color="#585ABE"/><stop offset="1" stop-color="#696CD7"/></linearGradient><linearGradient id="paint17_linear" x1="69.448" y1="225.642" x2="42.246" y2="225.642" gradientUnits="userSpaceOnUse"><stop stop-color="#1D1E67"/><stop offset=".203" stop-color="#242572"/><stop offset=".561" stop-color="#373990"/><stop offset="1" stop-color="#5457BC"/></linearGradient><linearGradient id="paint18_linear" x1="50.234" y1="151.663" x2="37.709" y2="190.264" gradientUnits="userSpaceOnUse"><stop stop-color="#CED1F0"/><stop offset=".432" stop-color="#C4C7E6"/><stop offset="1" stop-color="#BBBEDE"/></linearGradient><linearGradient id="paint19_linear" x1="70.497" y1="176.733" x2="42.084" y2="176.733" gradientUnits="userSpaceOnUse"><stop stop-color="#CED1F0"/><stop offset=".339" stop-color="#D4D6F1"/><stop offset=".781" stop-color="#E4E5F2"/><stop offset="1" stop-color="#EFEFF3"/></linearGradient><linearGradient id="paint20_linear" x1="87.037" y1="171.854" x2="61.839" y2="171.854" gradientUnits="userSpaceOnUse"><stop stop-color="#CED1F0"/><stop offset=".634" stop-color="#F0F1FB"/><stop offset="1" stop-color="#fff"/></linearGradient><clipPath id="clip0"><path fill="#fff" transform="translate(0 58)" d="M0 0h180v211H0z"/></clipPath><clipPath id="clip1"><path fill="#fff" transform="translate(71)" d="M0 0h104v128H0z"/></clipPath></defs></svg>