<svg width="64" height="64" fill="none" xmlns="http://www.w3.org/2000/svg"><path d="M32 22.667v18.666m0 0l6.666-6.666m-6.667 6.666l-6.666-6.666" stroke="#008CEF" stroke-width="2" stroke-linecap="round" stroke-linejoin="round"/><path d="M55.059 40.132A20.03 20.03 0 0140.132 55.06a35.61 35.61 0 01-16.264 0A20.03 20.03 0 018.94 40.132a35.61 35.61 0 010-16.264A20.03 20.03 0 0123.868 8.94a35.61 35.61 0 0116.264 0A20.03 20.03 0 0155.06 23.868a35.61 35.61 0 010 16.264z" stroke="#008CEF" stroke-width="2"/><path d="M55.059 40.132a35.61 35.61 0 000-16.264A20.03 20.03 0 0040.132 8.94a35.61 35.61 0 00-16.264 0A20.03 20.03 0 008.94 23.868a35.61 35.61 0 000 16.264A20.03 20.03 0 0023.868 55.06" stroke="#ACE3FF" stroke-width="2" stroke-linecap="round"/></svg>