<svg width="64" height="64" fill="none" xmlns="http://www.w3.org/2000/svg"><path d="M14.667 24H9.334m3.999 16h-2.667m.001-8H5.334" stroke="#008CEF" stroke-width="2" stroke-linecap="round"/><path d="M32.11 33.04a1 1 0 100-2v2zm-7.395 0h7.394v-2h-7.394v2z" fill="#008CEF"/><path d="M31.566 12.823l.472-.881-.472.88zm23.206 12.449l-.473.88.473-.88zm-.01 13.516l.471.882-.47-.883zM31.568 51.181l-.471-.882.471.882zm-9.87-9.067l-.957-.287.958.287zm-.014-20.238l-.958.286.958-.286zm2.945 10.45l.958.286-.957-.287zm0-.573l.96-.286-.96.285zm6.464-18.05l23.206 12.449.946-1.763-23.207-12.448-.945 1.762zM54.29 37.906L31.097 50.3l.943 1.764L55.234 39.67l-.943-1.763zm-31.634 4.496l2.93-9.79-1.915-.573-2.931 9.79 1.916.573zm2.931-10.934l-2.946-9.877-1.916.572 2.946 9.876 1.916-.571zm5.51 18.832c-2.374 1.27-4.864.712-6.597-.88-1.74-1.6-2.68-4.22-1.843-7.018l-1.916-.574c-1.07 3.57.132 6.975 2.406 9.065 2.28 2.095 5.68 2.888 8.893 1.171l-.943-1.764zm23.202-24.147c4.495 2.411 4.49 9.349-.008 11.753l.943 1.764c5.906-3.157 5.912-12.114.01-15.28l-.945 1.763zm-22.26-14.211c-3.212-1.723-6.612-.935-8.897 1.158-2.277 2.087-3.482 5.49-2.416 9.063l1.916-.572c-.835-2.799.109-5.42 1.852-7.016 1.735-1.59 4.226-2.144 6.599-.87l.945-1.763zm-6.452 20.67a2 2 0 00.001-1.144l-1.916.571 1.915.574z" fill="#ACE3FF"/></svg>