<svg width="64" height="64" viewBox="0 0 64 64" fill="none" xmlns="http://www.w3.org/2000/svg">
<path d="M62.3714 26.1331H22.1678V25.3283C22.1678 23.8544 20.9653 22.6616 19.5011 22.6616H16.2914V17.3283H23.826C24.7569 17.3283 25.5229 16.5622 25.5229 15.6313V5.25556C25.5229 4.31496 24.7569 3.55859 23.826 3.55859H2.59931C1.65871 3.55859 0.902344 4.31496 0.902344 5.25556V15.6313C0.902344 16.5622 1.65871 17.3283 2.59931 17.3283H10.1242V22.6616H6.92416C5.45022 22.6616 4.25749 23.8544 4.25749 25.3283V54.2737C2.37628 54.4095 0.902344 55.9804 0.902344 57.8907V59.7137C0.902344 60.1113 1.22234 60.441 1.62962 60.441H24.7957C25.1933 60.441 25.5229 60.1113 25.5229 59.7137V57.8907C25.5229 55.9804 24.0393 54.4095 22.1678 54.2737V34.8895H62.3714C62.7787 34.8895 63.0987 34.5598 63.0987 34.1622V26.8604C63.0987 26.4628 62.7788 26.1331 62.3714 26.1331ZM2.59931 15.8737C2.46356 15.8737 2.35689 15.7573 2.35689 15.6313V5.25556C2.35689 5.11981 2.46356 5.01314 2.59931 5.01314H23.826C23.952 5.01314 24.0684 5.11981 24.0684 5.25556V15.6313C24.0684 15.7573 23.952 15.8737 23.826 15.8737H2.59931ZM14.837 17.3283V22.6616H11.5788V17.3283H14.837ZM5.71204 25.3283C5.71204 24.6592 6.25507 24.1162 6.92416 24.1162C7.18598 24.1162 19.5011 24.1162 19.5011 24.1162C20.1605 24.1162 20.7133 24.6592 20.7133 25.3283V36.9065H5.71204V25.3283ZM5.71204 38.3707H20.7133V54.2543H5.71204V38.3707ZM24.0684 57.8907V58.9865H2.35689V57.8907C2.35689 56.6883 3.33628 55.7089 4.53871 55.7089H21.8866C23.089 55.7089 24.0684 56.6883 24.0684 57.8907ZM61.6442 30.1477H61.4114C61.2078 30.1477 61.0429 30.3125 61.0429 30.5162C61.0429 30.7101 61.2078 30.875 61.4114 30.875H61.6442V33.435H22.1678V27.5877H61.6442V30.1477Z" fill="#008CEF"/>
<path d="M27.471 30.1475H26.5013C26.2977 30.1475 26.1328 30.3123 26.1328 30.5159C26.1328 30.7099 26.2977 30.8747 26.5013 30.8747H27.471C27.6649 30.8747 27.8298 30.7099 27.8298 30.5159C27.8298 30.3123 27.6649 30.1475 27.471 30.1475Z" fill="#ACE3FF"/>
<path d="M30.3811 30.1475H29.4115C29.2078 30.1475 29.043 30.3123 29.043 30.5159C29.043 30.7099 29.2078 30.8747 29.4115 30.8747H30.3811C30.5751 30.8747 30.7399 30.7099 30.7399 30.5159C30.7399 30.3123 30.5751 30.1475 30.3811 30.1475Z" fill="#ACE3FF"/>
<path d="M24.5628 30.1475H23.5931C23.3895 30.1475 23.2246 30.3123 23.2246 30.5159C23.2246 30.7099 23.3895 30.8747 23.5931 30.8747H24.5628C24.7567 30.8747 24.9216 30.7099 24.9216 30.5159C24.9216 30.3123 24.7567 30.1475 24.5628 30.1475Z" fill="#ACE3FF"/>
<path d="M53.6546 30.1475H52.6849C52.4813 30.1475 52.3164 30.3123 52.3164 30.5159C52.3164 30.7099 52.4813 30.8747 52.6849 30.8747H53.6546C53.8485 30.8747 54.0134 30.7099 54.0134 30.5159C54.0134 30.3123 53.8485 30.1475 53.6546 30.1475Z" fill="#ACE3FF"/>
<path d="M50.7444 30.1475H49.7747C49.5711 30.1475 49.4062 30.3123 49.4062 30.5159C49.4062 30.7099 49.5711 30.8747 49.7747 30.8747H50.7444C50.9384 30.8747 51.1032 30.7099 51.1032 30.5159C51.1032 30.3123 50.9384 30.1475 50.7444 30.1475Z" fill="#ACE3FF"/>
<path d="M59.471 30.1475H58.5013C58.2977 30.1475 58.1328 30.3123 58.1328 30.5159C58.1328 30.7099 58.2977 30.8747 58.5013 30.8747H59.471C59.6649 30.8747 59.8298 30.7099 59.8298 30.5159C59.8298 30.3123 59.6649 30.1475 59.471 30.1475Z" fill="#ACE3FF"/>
<path d="M56.5628 30.1475H55.5931C55.3895 30.1475 55.2246 30.3123 55.2246 30.5159C55.2246 30.7099 55.3895 30.8747 55.5931 30.8747H56.5628C56.7567 30.8747 56.9216 30.7099 56.9216 30.5159C56.9216 30.3123 56.7567 30.1475 56.5628 30.1475Z" fill="#ACE3FF"/>
<path d="M47.8362 30.1475H46.8665C46.6629 30.1475 46.498 30.3123 46.498 30.5159C46.498 30.7099 46.6629 30.8747 46.8665 30.8747H47.8362C48.0302 30.8747 48.195 30.7099 48.195 30.5159C48.195 30.3123 48.0302 30.1475 47.8362 30.1475Z" fill="#ACE3FF"/>
<path d="M33.2894 30.1475H32.3197C32.116 30.1475 31.9512 30.3123 31.9512 30.5159C31.9512 30.7099 32.116 30.8747 32.3197 30.8747H33.2894C33.4833 30.8747 33.6481 30.7099 33.6481 30.5159C33.6481 30.3123 33.4833 30.1475 33.2894 30.1475Z" fill="#ACE3FF"/>
<path d="M36.1995 30.1475H35.2298C35.0262 30.1475 34.8613 30.3123 34.8613 30.5159C34.8613 30.7099 35.0262 30.8747 35.2298 30.8747H36.1995C36.3935 30.8747 36.5583 30.7099 36.5583 30.5159C36.5583 30.3123 36.3935 30.1475 36.1995 30.1475Z" fill="#ACE3FF"/>
<path d="M39.1077 30.1475H38.138C37.9344 30.1475 37.7695 30.3123 37.7695 30.5159C37.7695 30.7099 37.9344 30.8747 38.138 30.8747H39.1077C39.3017 30.8747 39.4665 30.7099 39.4665 30.5159C39.4665 30.3123 39.3017 30.1475 39.1077 30.1475Z" fill="#ACE3FF"/>
<path d="M44.928 30.1475H43.9583C43.7547 30.1475 43.5898 30.3123 43.5898 30.5159C43.5898 30.7099 43.7547 30.8747 43.9583 30.8747H44.928C45.122 30.8747 45.2868 30.7099 45.2868 30.5159C45.2868 30.3123 45.122 30.1475 44.928 30.1475Z" fill="#ACE3FF"/>
<path d="M42.0179 30.1475H41.0482C40.8445 30.1475 40.6797 30.3123 40.6797 30.5159C40.6797 30.7099 40.8445 30.8747 41.0482 30.8747H42.0179C42.2118 30.8747 42.3767 30.7099 42.3767 30.5159C42.3767 30.3123 42.2118 30.1475 42.0179 30.1475Z" fill="#ACE3FF"/>
<path d="M8.35956 6.33203C6.09047 6.33203 4.24805 8.17446 4.24805 10.4435C4.24805 12.7029 6.09047 14.5454 8.35956 14.5454C10.5414 14.5454 12.4614 12.7708 12.4614 10.4435C12.4614 8.17446 10.619 6.33203 8.35956 6.33203ZM10.8711 11.2775C10.522 12.3345 9.5135 13.0908 8.35956 13.0908C6.89542 13.0908 5.70259 11.8981 5.70259 10.4435C5.70259 8.9793 6.89532 7.78658 8.35956 7.78658C9.81411 7.78658 11.0068 8.9793 11.0068 10.4435C11.0068 10.7345 10.9584 11.0157 10.8711 11.2775Z" fill="#ACE3FF"/>
<path d="M18.0666 6.33203C15.7975 6.33203 13.9551 8.17446 13.9551 10.4435C13.9551 12.7611 15.8557 14.5454 18.0666 14.5454C20.326 14.5454 22.1684 12.7029 22.1684 10.4435C22.1684 8.17446 20.326 6.33203 18.0666 6.33203ZM18.0666 13.0908C16.6217 13.0908 15.4096 11.9175 15.4096 10.4435C15.4096 8.9793 16.6024 7.78658 18.0666 7.78658C19.5211 7.78658 20.7139 8.9793 20.7139 10.4435C20.7139 11.8981 19.5211 13.0908 18.0666 13.0908Z" fill="#ACE3FF"/>
</svg>
