<svg width="64" height="64" viewBox="0 0 64 64" fill="none" xmlns="http://www.w3.org/2000/svg">
<path d="M45.9534 35.6829L46.8197 33.1377C46.9105 32.8705 46.867 32.5855 46.7027 32.356C46.5384 32.1266 46.2734 32 45.9913 32H18.0078C17.7274 32 17.4642 32.1258 17.2995 32.3526C17.1349 32.5794 17.089 32.8673 17.176 33.1336L18.0043 35.665C18.5705 37.3981 20.4423 38.75 22.2655 38.75H41.6649C43.4839 38.75 45.3677 37.4049 45.9534 35.6829ZM19.6679 35.1281L19.2139 33.75H44.7694L44.2967 35.1279C43.9552 36.1318 42.7254 37 41.665 37H22.2657C21.2098 37 19.9958 36.1319 19.6679 35.1281Z" fill="#008CEF"/>
<path d="M59.3543 28.5679C58.7121 27.9072 57.1099 26.625 56.0443 25.875H58.486C60.1349 25.875 61.4765 24.6339 61.4765 23.1251C61.4765 21.4883 59.8328 20.375 57.386 20.375H54.4641C54.1069 18.625 53.696 16.7161 53.3261 15.7235C52.1001 12.4314 49.5425 10.375 46.6515 10.375H17.4116C14.4609 10.375 11.748 12.535 10.6611 15.7332C10.3226 16.7296 9.92075 18.625 9.5625 20.375H6.614C4.16737 20.375 2.5235 21.4883 2.5235 23.1251C2.5235 24.6339 3.865 25.875 5.514 25.875H7.91262C7.86212 25.875 7.81087 25.9493 7.75812 25.9897C7.37512 26.2844 7.3035 26.8319 7.59825 27.2149C7.77063 27.4389 8.03 27.5554 8.29237 27.5554C8.47862 27.5554 8.66637 27.4956 8.82537 27.3734C9.1735 27.1055 9.47563 26.8757 9.67838 26.7221C11.5426 26.9185 21.6895 27.9357 31.7594 27.9357C41.765 27.9357 52.2337 26.9313 54.2673 26.7261C55.3146 27.4979 57.4362 29.1015 58.0991 29.7836C58.7629 30.4667 59.2729 31.2401 59.5726 31.985C58.2911 31.9785 55.7181 31.9688 54.9029 31.9893C52.3051 32.0543 50.3795 32.9659 49.1802 34.6989C48.3312 35.9255 48.307 37.6848 48.307 37.8821C48.3071 38.3653 48.6987 38.75 49.182 38.75H59.875V41.332C59.875 43.7008 57.9479 45.625 55.5791 45.625H8.42087C6.05212 45.625 4.125 43.7008 4.125 41.332V38.75H14.818C15.3012 38.75 15.693 38.3653 15.693 37.8821C15.693 37.6848 15.6686 35.9221 14.8197 34.6954C13.6204 32.9625 11.6949 32.0525 9.09725 31.9876C8.29675 31.9674 5.76625 31.9774 4.44325 31.9839C4.78313 31.1543 5.34612 30.3275 5.88837 29.7763C6.22725 29.4318 6.22262 28.8779 5.878 28.5391C5.53362 28.2005 4.9795 28.2049 4.64062 28.5496C3.5495 29.6589 2.375 31.6405 2.375 33.3691V41.332C2.375 43.9254 4 46.1419 6.375 46.9989V51.3994C6.375 52.6034 7.2945 53.625 8.49862 53.625H12.5355C13.7395 53.625 14.75 52.6034 14.75 51.3994V47.375H49V51.3994C49 52.6034 49.9731 53.625 51.1772 53.625H55.5018C56.7059 53.625 57.625 52.6034 57.625 51.3994V46.9987C60 46.1419 61.625 43.9253 61.625 41.332V33.3691C61.625 31.8237 60.7761 30.0312 59.3543 28.5679ZM57.386 22.125C58.6984 22.125 59.7265 22.5719 59.7265 23.1251C59.7265 23.6598 59.1585 24.125 58.486 24.125H55.1377C55.0427 23.5 54.9259 22.875 54.7938 22.125H57.386ZM4.2735 23.1251C4.2735 22.5719 5.30162 22.125 6.614 22.125H9.22825C9.093 22.875 8.97225 23.5 8.87387 24.125H5.514C4.84162 24.125 4.2735 23.6598 4.2735 23.1251ZM31.7594 26.1855C22.604 26.1855 13.3779 25.3364 10.4897 25.046C10.8403 23.0026 11.7121 18.0899 12.3181 16.306C13.1637 13.8177 15.2106 12.125 17.4116 12.125H46.6515C48.7928 12.125 50.7219 13.7545 51.6862 16.3441C52.3386 18.0946 53.1814 22.9916 53.5166 25.0312C50.5612 25.3181 40.9608 26.1855 31.7594 26.1855ZM9.05338 33.7388C11.0895 33.7895 12.505 34.4225 13.3807 35.6878C13.6307 36.0493 13.7751 36.625 13.8547 37H4.125V33.7364C5.29338 33.7304 8.21475 33.7178 9.05338 33.7388ZM13 51.3994C13 51.6385 12.7746 51.875 12.5355 51.875H8.49862C8.2595 51.875 8.125 51.6385 8.125 51.3994V47.3665C8.125 47.3735 8.30137 47.3749 8.42087 47.3749H13V51.3994ZM55.875 51.3994C55.875 51.6385 55.7407 51.875 55.5018 51.875H51.1772C50.9383 51.875 50.75 51.6385 50.75 51.3994V47.375H55.5791C55.6987 47.375 55.875 47.3735 55.875 47.3666V51.3994ZM50.1457 37C50.2256 36.625 50.3699 36.048 50.6193 35.6878C51.495 34.4225 52.9105 33.7861 54.9468 33.7354C55.7995 33.7139 58.7664 33.7306 59.875 33.7366V37H50.1457Z" fill="#ACE3FF"/>
<path d="M23.5195 40.25C23.0363 40.25 22.6445 40.6418 22.6445 41.125C22.6445 41.6083 23.0363 42 23.5195 42H40.4798C40.963 42 41.3548 41.6083 41.3548 41.125C41.3548 40.6418 40.963 40.25 40.4798 40.25H23.5195Z" fill="#008CEF"/>
</svg>
