<svg width="64" height="64" viewBox="0 0 64 64" fill="none" xmlns="http://www.w3.org/2000/svg">
<path d="M8.94101 39.4979L9.91355 39.2652L8.94101 39.4979ZM8.94101 23.5546L9.91355 23.7873L8.94101 23.5546ZM55.059 23.5546L54.0865 23.7873L55.059 23.5546ZM55.059 39.4979L54.0865 39.2652L55.059 39.4979ZM40.1322 54.1301L39.9081 53.1555L40.1322 54.1301ZM23.8678 54.1301L23.6437 55.1047L23.8678 54.1301ZM23.8678 8.92243L24.0919 9.897L23.8678 8.92243ZM40.1322 8.92243L39.9081 9.897L40.1322 8.92243ZM9.91355 39.2652C8.69548 34.1749 8.69548 28.8776 9.91355 23.7873L7.96846 23.3219C6.67718 28.7182 6.67718 34.3344 7.96846 39.7307L9.91355 39.2652ZM54.0865 23.7873C55.3045 28.8776 55.3045 34.1749 54.0865 39.2652L56.0315 39.7306C57.3228 34.3344 57.3228 28.7182 56.0315 23.3219L54.0865 23.7873ZM39.9081 53.1555C34.7067 54.3515 29.2933 54.3515 24.0919 53.1555L23.6437 55.1047C29.1401 56.3685 34.8599 56.3685 40.3563 55.1047L39.9081 53.1555ZM24.0919 9.897C29.2933 8.701 34.7067 8.701 39.9081 9.897L40.3563 7.94786C34.8599 6.68405 29.1401 6.68405 23.6437 7.94786L24.0919 9.897ZM24.0919 53.1555C17.0471 51.5357 11.5605 46.1477 9.91355 39.2652L7.96846 39.7307C9.79618 47.3687 15.8757 53.3185 23.6437 55.1047L24.0919 53.1555ZM40.3563 55.1047C48.1244 53.3185 54.2038 47.3687 56.0315 39.7306L54.0865 39.2652C52.4395 46.1477 46.9529 51.5357 39.9081 53.1555L40.3563 55.1047ZM39.9081 9.897C46.9529 11.5169 52.4395 16.9048 54.0865 23.7873L56.0315 23.3219C54.2038 15.6839 48.1244 9.73404 40.3563 7.94786L39.9081 9.897ZM23.6437 7.94786C15.8757 9.73404 9.79618 15.6839 7.96846 23.3219L9.91355 23.7873C11.5605 16.9048 17.0471 11.5169 24.0919 9.897L23.6437 7.94786ZM38.5481 53.3333C38.5481 49.4343 38.5531 47.3419 38.8341 45.9075C39.0877 44.6135 39.558 43.8931 40.6857 42.7877L39.2856 41.3595C37.9758 42.6434 37.2273 43.7073 36.8715 45.5229C36.5432 47.1982 36.5481 49.541 36.5481 53.3333H38.5481ZM54.1925 38.6842C50.2971 38.6842 47.2769 38.6821 44.9301 38.9914C42.5566 39.3042 40.7219 39.9516 39.2856 41.3595L40.6857 42.7877C41.6869 41.8062 43.0325 41.2588 45.1915 40.9743C47.3772 40.6862 50.2416 40.6842 54.1925 40.6842V38.6842Z" fill="#008CEF"/>
<path d="M8.94101 39.4979L9.91355 39.2652L8.94101 39.4979ZM8.94101 23.5546L9.91355 23.7873L8.94101 23.5546ZM55.059 23.5546L54.0865 23.7873L55.059 23.5546ZM55.059 39.4979L54.0865 39.2652L55.059 39.4979ZM40.1322 54.1301L39.9081 53.1555L40.1322 54.1301ZM23.8678 54.1301L23.6437 55.1047L23.8678 54.1301ZM23.8678 8.92243L24.0919 9.897L23.8678 8.92243ZM40.1322 8.92243L39.9081 9.897L40.1322 8.92243ZM9.91355 39.2652C8.69548 34.1749 8.69548 28.8776 9.91355 23.7873L7.96846 23.3219C6.67718 28.7182 6.67718 34.3344 7.96846 39.7307L9.91355 39.2652ZM54.0865 23.7873C55.3045 28.8776 55.3045 34.1749 54.0865 39.2652L56.0315 39.7306C57.3228 34.3344 57.3228 28.7182 56.0315 23.3219L54.0865 23.7873ZM39.9081 53.1555C34.7067 54.3515 29.2933 54.3515 24.0919 53.1555L23.6437 55.1047C29.1401 56.3685 34.8599 56.3685 40.3563 55.1047L39.9081 53.1555ZM24.0919 9.897C29.2933 8.701 34.7067 8.701 39.9081 9.897L40.3563 7.94786C34.8599 6.68405 29.1401 6.68405 23.6437 7.94786L24.0919 9.897ZM24.0919 53.1555C17.0471 51.5357 11.5605 46.1477 9.91355 39.2652L7.96846 39.7307C9.79618 47.3687 15.8757 53.3185 23.6437 55.1047L24.0919 53.1555ZM40.3563 55.1047C48.1244 53.3185 54.2038 47.3687 56.0315 39.7306L54.0865 39.2652C52.4395 46.1477 46.9529 51.5357 39.9081 53.1555L40.3563 55.1047ZM39.9081 9.897C46.9529 11.5169 52.4395 16.9048 54.0865 23.7873L56.0315 23.3219C54.2038 15.6839 48.1244 9.73404 40.3563 7.94786L39.9081 9.897ZM23.6437 7.94786C15.8757 9.73404 9.79618 15.6839 7.96846 23.3219L9.91355 23.7873C11.5605 16.9048 17.0471 11.5169 24.0919 9.897L23.6437 7.94786Z" fill="#ACE3FF"/>
<path d="M24 24H32M24 32H37.3333" stroke="#008CEF" stroke-width="1.5" stroke-linecap="round"/>
</svg>
