<svg width="64" height="64" viewBox="0 0 64 64" fill="none" xmlns="http://www.w3.org/2000/svg">
<path d="M8.94101 23.8678C10.6783 16.4614 16.4614 10.6783 23.8678 8.941C29.2167 7.68633 34.7833 7.68633 40.1322 8.941C47.5387 10.6783 53.3217 16.4614 55.059 23.8678C56.3137 29.2167 56.3137 34.7833 55.059 40.1322C53.3217 47.5386 47.5387 53.3217 40.1322 55.059C34.7833 56.3137 29.2167 56.3137 23.8678 55.059C16.4614 53.3217 10.6783 47.5387 8.94101 40.1322C7.68633 34.7833 7.68633 29.2167 8.94101 23.8678Z" stroke="#ACE3FF" stroke-width="2"/>
<path d="M21.334 25.333L26.8757 29.9511C28.155 31.0172 28.155 32.9821 26.8757 34.0483L21.334 38.6663" stroke="#008CEF" stroke-width="2" stroke-linecap="round" stroke-linejoin="round"/>
<path d="M33.334 38.667H42.6673" stroke="#0095FF" stroke-width="1.5" stroke-linecap="round"/>
</svg>
