<svg width="56" height="56" fill="none" xmlns="http://www.w3.org/2000/svg"><rect width="56" height="56" rx="28" fill="#E6F6FE"/><path d="M38.96 40.374a1 1 0 001.414-1.415l-1.414 1.415zm-4.751-4.751l4.75 4.75 1.415-1.413-4.75-4.751-1.415 1.414z" fill="#008CEF"/><path d="M16.743 30.309l.974-.229-.974.229zm0-7.074l.974.228-.974-.228zm20.059 0l.973-.229-.973.229zm0 7.074l-.974-.229.974.229zM30.309 36.8l-.228-.974.228.974zm-7.074 0l-.228.974.228-.974zm0-20.058l-.228-.974.228.974zm7.074 0l.229-.974-.229.974zM17.717 30.08a14.49 14.49 0 010-6.617l-1.947-.457a16.488 16.488 0 000 7.531l1.947-.457zm18.111-6.617a14.5 14.5 0 010 6.617l1.947.457a16.483 16.483 0 000-7.53l-1.947.456zm-5.747 12.364a14.5 14.5 0 01-6.617 0l-.457 1.948c2.477.58 5.054.58 7.53 0l-.456-1.948zm-6.617-18.11a14.472 14.472 0 016.617 0l.457-1.948a16.489 16.489 0 00-7.53 0l.456 1.947zm0 18.11a7.712 7.712 0 01-5.747-5.747l-1.947.457a9.712 9.712 0 007.237 7.238l.457-1.948zm7.074 1.948a9.712 9.712 0 007.237-7.238l-1.947-.457a7.712 7.712 0 01-5.747 5.747l.457 1.948zm-.457-20.059a7.712 7.712 0 015.747 5.747l1.947-.457a9.712 9.712 0 00-7.237-7.237l-.457 1.947zm-7.074-1.947a9.712 9.712 0 00-7.237 7.237l1.947.457a7.712 7.712 0 015.747-5.747l-.457-1.947z" fill="#008CEF"/><path d="M16.743 30.309l.974-.229-.974.229zm.974-6.846a1 1 0 10-1.947-.457l1.947.457zm19.085-.228l.973-.229-.973.229zm0 7.074l-.974-.229.974.229zM30.309 36.8l-.228-.974.228.974zm-7.074 0l-.228.974.228-.974zm-.228-21.032a1 1 0 00.457 1.947l-.457-1.947zm7.302.974l.229-.974-.229.974zM17.717 30.08a14.49 14.49 0 010-6.617l-1.947-.457a16.488 16.488 0 000 7.531l1.947-.457zm18.111-6.617a14.5 14.5 0 010 6.617l1.947.457a16.483 16.483 0 000-7.53l-1.947.456zm-5.747 12.364a14.5 14.5 0 01-6.617 0l-.457 1.948c2.477.58 5.054.58 7.53 0l-.456-1.948zm-6.617-18.11a14.472 14.472 0 016.617 0l.457-1.948a16.489 16.489 0 00-7.53 0l.456 1.947zm0 18.11a7.712 7.712 0 01-5.747-5.747l-1.947.457a9.712 9.712 0 007.237 7.238l.457-1.948zm7.074 1.948a9.712 9.712 0 007.237-7.238l-1.947-.457a7.712 7.712 0 01-5.747 5.747l.457 1.948zm-.457-20.059a7.712 7.712 0 015.747 5.747l1.947-.457a9.712 9.712 0 00-7.237-7.237l-.457 1.947z" fill="#0063BF"/></svg>