<svg width="56" height="56" fill="none" xmlns="http://www.w3.org/2000/svg"><rect width="56" height="56" rx="28" fill="#E6F6FE"/><path d="M16.791 31.953l-.973.229.973-.229zm0-7.906l-.973-.229.973.229zm22.419 0l-.974.228.974-.228zm0 7.906l-.974-.228.974.228zm-7.256 7.256l-.229-.973.229.973zm-7.907 0l-.228.974.229-.974zm0-22.418l-.228-.974.229.974zm7.907 0l-.229.973.229-.973zM17.765 31.725c-.575-2.45-.575-5 0-7.45l-1.947-.456a18.312 18.312 0 000 8.363l1.947-.457zm20.471-7.45c.575 2.45.575 5 0 7.45l1.948.457c.645-2.75.645-5.613 0-8.364l-1.948.457zm-6.51 13.96c-2.45.575-5 .575-7.45 0l-.457 1.948c2.75.645 5.613.645 8.363 0l-.457-1.947zm-7.45-20.47c2.45-.575 5-.575 7.45 0l.456-1.948a18.312 18.312 0 00-8.363 0l.457 1.947zm0 20.47a8.737 8.737 0 01-6.511-6.51l-1.947.457a10.737 10.737 0 008.001 8l.457-1.946zm7.906 1.948a10.737 10.737 0 008.002-8.001l-1.948-.457a8.737 8.737 0 01-6.51 6.51l.456 1.948zm-.457-22.419a8.737 8.737 0 016.511 6.511l1.948-.456a10.737 10.737 0 00-8.002-8.002l-.457 1.947zm-7.906-1.947a10.737 10.737 0 00-8.001 8.002l1.947.456a8.737 8.737 0 016.51-6.51l-.456-1.948z" fill="#0063BF"/><path d="M22.955 32.045a1 1 0 102 0h-2zm2-5.394a1 1 0 10-2 0h2zm6.091 5.394a1 1 0 102 0h-2zm2-4.045a1 1 0 00-2 0h2zm-6.045 2.697a1 1 0 102 0h-2zm2-6.742a1 1 0 10-2 0h2zm-4.046 8.09v-5.394h-2v5.394h2zm8.091 0V28h-2v4.045h2zm-4.045-1.348v-6.742h-2v6.742h2z" fill="#008CEF"/></svg>