<svg width="56" height="56" fill="none" xmlns="http://www.w3.org/2000/svg"><rect width="56" height="56" rx="28" fill="#E6F6FE"/><path d="M28.408 37.71l-.931-.365.931.364zm-11.064-6.94l.975-.224-.975.224zm-.004-6.366l-.975-.224.975.224zm21.352.286l.975-.224-.975.224zm0 5.775l-.974-.224.974.224zm-14.17 8.972l-.393.92.393-.92zm.484-22.753l.233.973-.233-.973zm5.954 0l-.232.973.232-.973zm-6.592 22.687l.394-.92-.394.92zm7.087-22.569l.232-.972-.233.973zm7.122 7.387l-.974.224.974-.224zm-13.86-7.436l-.233-.972.233.972zm.233.973l.289-.07-.466-1.944-.289.069.466 1.945zm5.778-.07l.494.119.465-1.945-.494-.118-.465 1.945zm-5.813 20.861l-.153-.065-.787 1.839.153.065.787-1.839zm12.688-14.104l.115.501 1.949-.448-.115-.5-1.95.447zM30.817 35.98H29.44v2h1.376v-2zm-1.376 0c-.892 0-1.653.57-1.964 1.366l1.863.729c.032-.083.089-.095.1-.095v-2zm-11.122-5.432a13.27 13.27 0 01-.005-5.918l-1.949-.448a15.271 15.271 0 00.005 6.814l1.949-.448zm19.399-5.632c.402 1.75.402 3.576 0 5.327l1.949.448c.47-2.045.47-4.178 0-6.223l-1.95.448zm-13.59 15.442c2.08.89 4.398-.203 5.212-2.283l-1.863-.729c-.434 1.11-1.6 1.584-2.562 1.173l-.787 1.84zm1.11-22.7a11.775 11.775 0 015.49 0l.465-1.944a13.771 13.771 0 00-6.42 0l.466 1.945zm-.476 20.796c-3.204-1.37-5.62-4.325-6.443-7.906l-1.95.448c.959 4.168 3.782 7.662 7.606 9.297l.787-1.84zm12.956-8.211c-.781 3.398-3.657 5.737-6.901 5.737v2c4.239 0 7.874-3.045 8.85-7.29l-1.95-.447zm-6.496-12.466c3.126.748 5.614 3.304 6.38 6.638l1.95-.448c-.927-4.032-3.958-7.2-7.865-8.135l-.465 1.945zm-6.738-1.994c-4.032.965-7.162 4.235-8.119 8.399l1.95.448c.796-3.466 3.382-6.123 6.635-6.902l-.466-1.945z" fill="#0063BF"/><path d="M23.719 23.186a1 1 0 100 2v-2zm7.819 2a1 1 0 100-2v2zm-7.82 2.48a1 1 0 100 2v-2zm4.976 2a1 1 0 100-2v2zm-4.975-4.48h7.819v-2h-7.82v2zm0 4.48h4.975v-2H23.72v2z" fill="#008CEF"/></svg>