<svg width="56" height="56" fill="none" xmlns="http://www.w3.org/2000/svg"><rect width="56" height="56" rx="28" fill="#E6F6FE"/><path d="M16.791 24.047a9.737 9.737 0 017.256-7.256c2.6-.61 5.307-.61 7.907 0a9.737 9.737 0 017.256 7.256c.61 2.6.61 5.306 0 7.906a9.737 9.737 0 01-7.256 7.256c-2.6.61-5.306.61-7.907 0a9.737 9.737 0 01-7.256-7.256 17.31 17.31 0 010-7.906z" stroke="#008CEF" stroke-width="2"/><path d="M16.791 24.047a17.31 17.31 0 000 7.906 9.737 9.737 0 007.256 7.256c2.6.61 5.307.61 7.907 0a9.737 9.737 0 007.256-7.256c.61-2.6.61-5.306 0-7.906a9.737 9.737 0 00-7.256-7.256" stroke="#0063BF" stroke-width="2" stroke-linecap="round"/><path d="M22.64 23.922a1 1 0 10-1.413 1.414l1.414-1.414zm.642 2.055l-.707.707a1 1 0 001.414 0l-.707-.707zm3.404-1.99a1 1 0 00-1.414-1.414l1.414 1.414zm2.664.316a1 1 0 100 2v-2zm4.72 2a1 1 0 100-2v2zm-11.43 4.361a1 1 0 00-1.413 1.414l1.414-1.414zm.642 2.056l-.707.707a1 1 0 001.414 0l-.707-.707zm3.404-1.99a1 1 0 00-1.414-1.414l1.414 1.414zm2.664.316a1 1 0 100 2v-2zm4.72 2a1 1 0 100-2v2zm-12.843-7.71l1.348 1.348 1.414-1.414-1.348-1.348-1.414 1.414zm2.762 1.348l2.697-2.697-1.414-1.414-2.697 2.697 1.414 1.414zm5.361-.381h4.72v-2h-4.72v2zm-8.123 5.775l1.348 1.349 1.414-1.414-1.348-1.349-1.414 1.414zm2.762 1.349l2.697-2.697-1.414-1.414-2.697 2.697 1.414 1.414zm5.361-.382h4.72v-2h-4.72v2z" fill="#008CEF"/></svg>