<svg width="56" height="56" fill="none" xmlns="http://www.w3.org/2000/svg"><rect width="56" height="56" rx="28" fill="#E6F6FE"/><path d="M24.123 35.653l.112-.994-1.197-.135.088 1.201.997-.072zm7.754 0l.998.072.087-1.2-1.197.134.112.994zm-.117.743l.97.24-.97-.24zm-.107.433l-.97-.24.97.24zm-2.74 2.73l.232.973-.232-.973zm-1.825 0l-.233.973.233-.973zm-2.741-2.73l.971-.24-.971.24zm-.106-.433l-.971.24.97-.24zm-.23.25a35.71 35.71 0 007.978 0l-.224-1.987a33.706 33.706 0 01-7.53 0l-.224 1.987zm8.72-.01c.073-.3.121-.604.144-.91l-1.995-.146a3.476 3.476 0 01-.091.578l1.942.477zm-.107.431l.107-.432-1.943-.477-.106.432 1.942.477zm-3.479 3.465a4.716 4.716 0 003.48-3.465l-1.943-.477a2.716 2.716 0 01-2.002 1.996l.465 1.946zm-2.29 0c.753.18 1.537.18 2.29 0l-.465-1.945a2.919 2.919 0 01-1.36 0l-.465 1.945zm-3.48-3.465a4.716 4.716 0 003.48 3.465l.465-1.945a2.716 2.716 0 01-2.002-1.997l-1.942.477zm-.105-.432l.106.432 1.942-.477-.106-.432-1.942.477zm-.144-.91c.022.307.07.611.144.91l1.942-.477a3.476 3.476 0 01-.092-.578l-1.994.145zM29 16.333a1 1 0 10-2 0h2zm-2 1.303a1 1 0 102 0h-2zm0-1.303v1.303h2v-1.303h-2z" fill="#008CEF"/><path d="M20.26 23.635l.965.261-.965-.261zm5.354-5.614l-.308-.95.308.95zm-5.412 5.828l-.966-.261.966.261zm-.251 5.276l.986-.17-.986.17zm.03.17l-.987.169.986-.17zm.615 5.78l.2-.98-.2.98zm.477.096l-.2.98.2-.98zm13.857 0l.2.98-.2-.98zm.477-.097l-.2-.98.2.98zm.622-5.812l.985.169-.986-.169zm.03-.18l-.985-.17.986.17zm-.226-5.196l-.967.254.967-.254zm-.08-.308l.967-.254-.968.253zm-5.202-5.549l.314-.95-.314.95zm5.686 11.657l-.488.873.488-.873zm-16.444-.015l.48.878-.48-.878zm1.432-5.775a7.17 7.17 0 014.698-4.923l-.617-1.903a9.17 9.17 0 00-6.011 6.303l1.93.523zm-.058.215l.058-.215-1.93-.523-.059.215 1.93.523zm-.23 4.845a11.26 11.26 0 01.23-4.845l-1.93-.523a13.26 13.26 0 00-.272 5.705l1.972-.337zm.029.17l-.03-.17-1.97.337.028.17 1.972-.337zm-1.687 3.1c0-.724.401-1.354.993-1.677l-.958-1.756a3.907 3.907 0 00-2.035 3.433h2zm1.517 1.868a1.902 1.902 0 01-1.517-1.868h-2c0 1.855 1.3 3.458 3.118 3.828l.4-1.96zm.477.097l-.477-.097-.4 1.96.477.097.4-1.96zm13.457 0a33.69 33.69 0 01-13.457 0l-.4 1.96c4.705.958 9.552.958 14.257 0l-.4-1.96zm.477-.097l-.477.097.4 1.96.476-.097-.4-1.96zm1.517-1.868c0 .91-.638 1.69-1.517 1.868l.4 1.96a3.902 3.902 0 003.117-3.828h-2zm-.975-1.667c.582.326.975.95.975 1.667h2a3.907 3.907 0 00-1.999-3.412l-.976 1.745zm-.675-1.646l-.031.18 1.971.338.031-.18-1.971-.338zm-.208-4.773c.409 1.557.48 3.185.208 4.773l1.971.337c.32-1.868.237-3.784-.244-5.618l-1.935.508zm-.08-.309l.08.309 1.935-.508-.081-.308-1.935.507zm-4.548-4.852a6.966 6.966 0 014.547 4.852l1.935-.507a8.966 8.966 0 00-5.855-6.244l-.627 1.899zm-4.315-.006a6.962 6.962 0 014.315.006l.627-1.9a8.963 8.963 0 00-5.56-.009l.618 1.903zm10.802 9.84a.59.59 0 01.29.618l-1.972-.338a1.41 1.41 0 00.706 1.466l.976-1.745zm-17.73.65c-.05-.292.1-.55.32-.67l.957 1.756c.49-.267.796-.827.694-1.423l-1.972.338z" fill="#0063BF"/></svg>