<svg width="238" height="104" fill="none" xmlns="http://www.w3.org/2000/svg"><g clip-path="url(#clip0)"><g clip-path="url(#clip1)" fill-rule="evenodd" clip-rule="evenodd" fill="#43B02A"><path d="M158.73 41.178c-3.67 0-6.826 3.001-7.193 5.93-.293 2.287.587 4.86 1.248 6.074 1.908 3.144-1.688 7.217-3.303 8.86-.293.286-.22.715.294.715h4.257c.514 0 .514.071 1.174-.572 1.542-1.572 4.991-6.216 1.248-12.218-1.395-2.358-.734-7.217 2.789-7.217 2.862 0 1.908 2.93.954 5.145-.44 1.143 1.982 1.214 2.275.428 1.468-3.43.881-7.145-3.743-7.145zm-60.478.929L92.307 60.97c-.073.5.074 1.643 1.028 1.786h8.22c.954 0 1.468-1.5.367-1.5h-3.376c-.294 0-.367-.215-.367-.43 1.982-6.144 4.11-12.575 5.872-18.792.147-.571-.147-.857-.661-.857h-3.963c-.44.071-.954.5-1.175.929zm-26.276 1.15c-.66-1.143-1.614-2-3.523-2h-7.12c-.587.07-1.1.428-1.32.928L54.067 61.05c-.367 1.5.881 1.787.955 1.787h7.34c1.174 0 2.568-.072 3.302-.358.808-.285.88-.357 1.688-1 .881-.643 1.835-2.287 2.349-3.859.514-1.572.734-3.144.294-4.072-.368-.93-1.322-1.572-2.423-1.858.954-.358 1.688-.5 2.57-1.286.88-.786 1.54-2.144 1.834-3.502.44-1.5.44-3 0-3.644zM64.71 56.905c-.514 1.5-1.395 3.072-2.275 3.644-.074 0-.074.072-.147.072-.88.5-1.248.571-1.982.571-.147-.071-.293-.214-.22-.429.88-2.858 2.642-8.36 2.716-8.503.073-.142.22-.142.367-.142 2.715.428 2.128 3.215 1.54 4.787zm2.936-9.932c-.514 1.5-1.174 2.5-2.275 3.215-.588.357-1.468.643-1.762.572-.294 0-.294-.143-.294-.215a176.607 176.607 0 002.35-7.574c.072-.285.293-.285.513-.285 2.716.285 2.055 2.715 1.468 4.287zm65.103 15.784h8.734c.735-.071 1.248-1.429.515-1.429h-4.184c-.294 0-.294-.286-.22-.429.807-2.715 1.761-5.359 2.642-8.074.147-.214.367-.5.954-.572.954-.071 1.908 0 2.863 0 .513 0 1.32-1.429.44-1.429h-2.936c-.147 0-.587-.143-.441-.786l2.202-6.93c.074-.215.441-.572.955-.572h3.522c.588-.072 1.175-1.287.515-1.358h-9.469c-.66 0-1.174.429-1.321.857L131.575 60.9c-.22.786.22 1.858 1.174 1.858zm-56.369 0h8.734c.734-.071 1.174-1.429.514-1.429h-4.11c-.294 0-.294-.286-.22-.428.807-2.716 1.76-5.36 2.642-8.003.146-.286.293-.572.88-.572h2.863c.514 0 1.32-1.429.44-1.429h-3.01c-.146 0-.586-.071-.44-.786l2.129-6.788c.147-.214.44-.572.954-.572h3.523c.587-.071 1.175-1.429.514-1.5h-9.468c-.66 0-1.175.428-1.321.857l-5.945 18.864c0 .715.44 1.786 1.32 1.786zm91.232-20.076h2.789c.367 0 .661.215.514.572-1.982 6.431-3.743 12.004-5.725 18.435-.146.5.147 1.072.661 1.143h4.184c.366 0 .88-.357.953-.857 2.056-6.502 3.964-12.29 5.946-18.792.073-.286.367-.43.587-.43h2.716c.66-.07 1.467-1.5.513-1.5H168.2c-.514-.071-1.175 1.358-.588 1.43zm-37.066-1.004l-8.221 15.505v-.143c.147-1.429.44-2.858.587-4.287.44-3.358.881-6.717 1.395-10.146.073-.5-.22-.858-.44-1.072-.294-.215-.588-.358-1.542-.358 0 0 1.101 0 0 0s-2.422.43-2.716 1.572c-.22 1.072-.44 2.93-.587 4.002l-4.404 8.932c-.146.285-.367.643-.513.929-.221.285-.441.357-.367 0 .88-4.788 1.247-9.218 2.128-14.005.294-1.644-4.037-2.001-4.624 0l-2.789 19.22c-.073.572.147.858.734.93.807.071 3.009.214 3.523-.43.587-.785.734-1.142 1.174-1.857.441-.786 4.624-9.289 4.624-9.289-.513 3.573-1.101 7.217-1.541 10.79-.073.571.147.857.514.857.734 0 3.156.214 3.743-.5.514-.643.587-.786.954-1.358l9.835-18.935c.588-1-1.027-1.215-1.467-.357z"/></g></g><defs><clipPath id="clip0"><rect width="238" height="104" rx="40" fill="#fff"/></clipPath><clipPath id="clip1"><path fill="#fff" transform="translate(54 41)" d="M0 0h127.188v22H0z"/></clipPath></defs></svg>