<svg width="64" height="64" fill="none" xmlns="http://www.w3.org/2000/svg"><path d="M9.258 36.145l.96-.278-.96.278zm0-17.728l-.96-.278.96.278zm45.484 0l.96-.277-.96.277zm0 17.728l-.96-.278.96.278zm-9.903 9.208l-.186-.982.186.982zm-25.678 0l.186-.982-.186.982zm0-36.144l-.187-.982.187.982zm25.678 0l.187-.982-.187.982zM9.387 36.59l-.96.278.96-.278zm45.226 0l.96.278-.96-.278zm0-18.617l-.96.278.96-.278zm-45.226 0l.96.278-.96-.278zM33 47.795a1 1 0 10-2 0h2zM31 56a1 1 0 102 0h-2zm-6.03-1a1 1 0 100 2v-2zm14.06 2a1 1 0 100-2v2zm14.623-38.75l.128.445 1.922-.555-.13-.445-1.92.556zm.128 17.617l-.128.445 1.92.556.13-.445-1.922-.556zm-43.434.445l-.128-.445-1.921.556.128.445 1.921-.556zm-.128-17.617l.128-.444-1.92-.556-.13.444 1.922.556zm0 17.172a30.854 30.854 0 010-17.172l-1.922-.556a32.855 32.855 0 000 18.284l1.922-.556zM53.78 18.695a30.854 30.854 0 010 17.172l1.922.556a32.854 32.854 0 000-18.284l-1.922.556zm-9.128 25.676a67.77 67.77 0 01-25.306 0l-.373 1.965a69.771 69.771 0 0026.052 0l-.373-1.965zm-25.306-34.18a67.77 67.77 0 0125.306 0l.373-1.964a69.77 69.77 0 00-26.052 0l.373 1.965zm0 34.18c-4.338-.825-7.81-3.951-9-8.059l-1.92.556c1.404 4.854 5.491 8.507 10.547 9.468l.373-1.965zm25.68 1.965c5.055-.961 9.142-4.614 10.547-9.468l-1.921-.556c-1.19 4.108-4.662 7.234-9 8.059l.373 1.965zm-.374-36.144c4.338.825 7.81 3.95 9 8.059l1.92-.556c-1.404-4.854-5.491-8.507-10.547-9.468l-.373 1.965zm-25.68-1.965c-5.055.961-9.142 4.614-10.547 9.468l1.921.556c1.19-4.108 4.662-7.235 9-8.06l-.373-1.964zM31 47.795V56h2v-8.205h-2zM24.97 57h14.06v-2H24.97v2z" fill="#ACE3FF"/><path d="M21.334 30l6.82-5.371c.377-.296.564-.444.772-.418.208.027.353.217.643.597l4.863 6.384c.29.38.435.57.643.597.208.026.396-.122.772-.418L42.667 26" stroke="#008CEF" stroke-width="2" stroke-linecap="round"/></svg>