<svg width="64" height="64" fill="none" xmlns="http://www.w3.org/2000/svg"><path d="M32.849 8.056a5.176 5.176 0 014.497 5.131v3.688a16.082 16.082 0 019.779 9.78h3.688a5.176 5.176 0 015.131 4.496 6.473 6.473 0 010 1.698 5.176 5.176 0 01-5.131 4.497h-3.688a16.082 16.082 0 01-9.78 9.779v3.688a5.176 5.176 0 01-4.496 5.131 6.473 6.473 0 01-1.698 0 5.176 5.176 0 01-4.497-5.131v-3.688a16.082 16.082 0 01-9.779-9.78h-3.688a5.176 5.176 0 01-5.131-4.496 6.47 6.47 0 010-1.698 5.176 5.176 0 015.131-4.497h3.688a16.082 16.082 0 019.78-9.779v-3.688a5.176 5.176 0 014.496-5.131 6.47 6.47 0 011.698 0z" stroke="#ACE3FF" stroke-width="2" stroke-linecap="round" stroke-linejoin="round"/><path d="M25.334 32a6.667 6.667 0 1113.333 0 6.667 6.667 0 01-13.333 0z" stroke="#008CEF" stroke-width="2"/></svg>