<svg fill="none" height="64" width="64" xmlns="http://www.w3.org/2000/svg"><g stroke-width="2"><path d="M22.666 41.976c0-2.623 1.89-4.856 4.458-5.27 3.23-.52 6.521-.52 9.75 0 2.569.414 4.459 2.647 4.459 5.27v.58c0 1.534-1.233 2.777-2.754 2.777h-13.16c-1.52 0-2.753-1.243-2.753-2.777zm14.778-17.819c0 3.032-2.438 5.49-5.445 5.49-3.006 0-5.444-2.458-5.444-5.49s2.438-5.49 5.444-5.49c3.007 0 5.445 2.458 5.445 5.49z" stroke="#0095ff"/><path d="M56 18.667C56 12.776 50.03 8 42.667 8M8 42.667C8 50.03 12.776 56 18.667 56m0-48C12.776 8 8 12.776 8 18.667M42.667 56C50.03 56 56 50.03 56 42.667" stroke="#ace3ff" stroke-linecap="round"/></g></svg>