<svg width="237" height="104" fill="none" xmlns="http://www.w3.org/2000/svg"><g clip-path="url(#clip0)"><g clip-path="url(#clip1)"><path d="M44.125 65.708c7.617 0 13.79-6.175 13.79-13.791 0-7.617-6.173-13.791-13.79-13.791-7.617 0-13.791 6.174-13.791 13.79 0 7.617 6.174 13.792 13.791 13.792z" fill="#16932B"/><path d="M44.124 64.203c6.786 0 12.287-5.5 12.287-12.286S50.91 39.63 44.124 39.63c-6.785 0-12.286 5.501-12.286 12.287 0 6.785 5.5 12.286 12.286 12.286z" fill="#FF6927"/><path fill-rule="evenodd" clip-rule="evenodd" d="M54.197 48.113c.25-.041.418-.209.376-.376-.041-.167-.25-.25-.502-.209-.25.042-.417.21-.376.377.042.167.251.25.502.209zM38.65 56.137c-.041.46-.125.92-.584.878 0 0-.293-.084-.544-.084-.543 0-.669.293-.669.544 0 .71.753.919 1.213.919.46 0 .96-.167 1.337-.46.71-.501 1.17-1.63 1.38-2.131-.21-.084-.46-.167-.67-.25-.376.375-.92.584-1.462.584z" fill="#fff"/><path fill-rule="evenodd" clip-rule="evenodd" d="M45.88 54.299c.084.292.21.878.293 1.128 0 0-.418.167-.46.21-.125.04-.125.166-.083.292.041.125.167.125.292.083.544-.292 2.09-.961 2.759-.292.376.334.71 1.463.46 2.215-.126.46-.46.71-1.003.752-.293.042-.544-.042-.711-.209-.46-.418-.46-1.254-.46-1.254 0-.083-.041-.125-.125-.167-.042-.042-.125-.042-.209 0 0 0-1.17.836-2.131.376-1.38-.669-1.045-2.465-1.045-2.507 0-.126-.042-.21-.167-.21-.126 0-.21.042-.21.168 0 0-.083.502 0 1.045-1.002-.126-1.88-.293-2.632-.585.418-.46.627-1.045.627-1.714 0-.125-.084-.209-.21-.209-.125 0-.208.084-.208.21a2.185 2.185 0 01-2.173 2.172c-.878 0-1.672-.543-2.048-1.379.042-.125-.042-.125-.167-.125-.125.041-.125.167-.125.25.125.293.292.544.501.795-.46 1.003-1.296 2.131-2.717 1.713-.46-.125-.752-.418-.835-.794-.042-.292 0-.585.209-.71a.63.63 0 01.668-.042c.71.25 1.129-.92 1.547-2.048.208-.627.5-1.337.71-1.463.25-.167.878-.167 1.212.293.042.125.083.418.083.418 0 .083.126.167.21.125.125 0 .167-.125.167-.209-.21-1.212.125-1.964.418-2.34 0 0-2.174-1.63-1.84-3.803 0-.126.084-.209.126-.209.042 0 .125.125.125.293.126.417.335 1.044.92 1.713.543.669 1.003 1.045 1.463 1.212.041 0 1.086.209 3.05.209 1.129 0 2.591-.125 2.675-.167a4.265 4.265 0 001.003 2.09c.627.71 1.296 1.002 1.797 1.211.71.293 1.337.418 1.755.502 0 .041-.041.041-.041.083-.251.627-.67 1.17-1.254 1.63-.502-.042-1.087.084-1.546.25-.042-.124-.126-.459-.293-1.044-.042-.125-.125-.167-.25-.125-.085-.042-.126.083-.126.167zm4.598-10.532c-.376-.041-.794 1.003-.961 1.38a3.04 3.04 0 011.002.292c.084-.125.21-1.672-.041-1.672z" fill="#fff"/><path d="M50.27 50.62s-.126-.04-.293 0c.167.419.543.711 1.044.837.836.209 1.797.167 2.8-.753.502-.46 1.003-1.295 1.087-2.047-.084.125-.209.167-.334.25-.544.168-1.212-.083-1.38-.584-.125-.293 0-.544.21-.753-.168.042-.335.084-.544.125-.543.126-.961.21-1.17.042-.167-.167-.209-.418-.334-.71-.126-.418-.25-.878-.669-1.129-.877-.543-1.88-.376-1.922-.376-.084 0-.126 0-.168-.083-.041-.042-.167-1.17-.376-1.505-.208-.417-.376-.46-.417-.46-.419 0-1.087 1.045-1.338 2.55 0 .042-.041.042-.041.084-.502.543-1.087 2.423-1.087 3.05v.084c.041.626 1.087 3.343 4.22 3.426h.084c1.129-.083 2.34-.585 2.884-.877-.376.126-1.045.167-1.63.042a1.951 1.951 0 01-1.296-1.045c-.083.042-.125.126-.167.25-.041.084-.167.126-.25.084-.126-.041-.126-.167-.084-.25.334-.627.961-.71 1.254-.67.125 0 .167.126.167.21-.042.167-.126.209-.25.209zm.877-3.175c.125 0 .209.125.209.334 0 .167-.126.334-.21.334-.125 0-.208-.125-.208-.334-.042-.167.083-.334.209-.334zm-2.967-1.839c-.084.041-.251.125-.502.125-.209.042-.209-.125-.042-.585.168-.418.293-.627.293-.627.167-.167.292 1.087.25 1.087zm1.964 3.176c-.21 0-.376-.25-.376-.543 0-.293.167-.585.376-.585s.376.25.376.543c0 .292-.167.585-.376.585z" fill="#fff"/><path fill-rule="evenodd" clip-rule="evenodd" d="M49.223 54.466c-.167.25-.376.46-.668.71.125.042.25.126.376.21.167.166.334.417.46.71.376-.125.668-.293.668-.293a.128.128 0 01.167 0c.042.042.084.084.126.168.167 1.17.668 1.504 1.128 1.337.376-.126.585-.376.669-.71.167-.753-.25-1.714-.627-2.048-.46-.46-1.505-.293-2.298-.084z" fill="#fff"/><path fill-rule="evenodd" clip-rule="evenodd" d="M49.683 52.752l-.25.502-.042.042c-.878-.084-3.928-.752-4.639-3.803 0 0 0-.042.042-.042l.46-.167c.041 0 .041 0 .041.041.126.711 1.38 3.26 4.347 3.385.041 0 .083 0 .041.042z" fill="#1F9E38"/><path fill-rule="evenodd" clip-rule="evenodd" d="M69.227 45.763c0-.5.415-.943.942-.943h1.386c.5 0 .943.416.943.943v12.364a.953.953 0 01-.943.943H70.17a.953.953 0 01-.942-.943v-4.519c-.721.555-1.72.832-3.05.832-2.051 0-4.38-1.11-4.38-4.547v-4.13c0-.5.416-.943.943-.943h1.386c.499 0 .942.416.942.943v3.16c0 1.885.776 2.467 1.996 2.467.749 0 1.497-.25 2.163-.748v-4.88zm15.136 12.336a.952.952 0 01-.942.943h-6.765a.953.953 0 01-.942-.943V45.763c0-.5.416-.943.942-.943h6.57c.5 0 .943.416.943.943v1.164a.953.953 0 01-.942.943h-4.242v2.495h3.632c.499 0 .942.415.942.942v1.164a.953.953 0 01-.942.943h-3.632v2.578h4.436c.499 0 .942.416.942.943v1.164zm7.43.943a.952.952 0 01-.943-.943V47.87h-3.326a.953.953 0 01-.943-.942v-1.164c0-.5.416-.943.943-.943h9.924c.5 0 .943.416.943.943v1.164a.953.953 0 01-.943.943h-3.326V58.1a.952.952 0 01-.943.942h-1.386z" fill="#FF6927"/><path d="M100.832 45.763c0-.5.416-.943.943-.943h1.386c.499 0 .942.416.942.943v3.52a10.44 10.44 0 011.248-.083c3.41 0 5.184 1.802 5.184 4.796 0 3.077-2.162 5.101-5.877 5.101-.804 0-1.774-.028-2.883-.028a.972.972 0 01-.943-.942V45.763zm3.244 10.202c.499.055.804.083.97.083 1.358 0 2.024-.638 2.024-1.969 0-1.22-.777-1.83-2.024-1.83a5.65 5.65 0 00-.97.111v3.605zm11.061 2.134a.953.953 0 01-.943.943h-1.386a.952.952 0 01-.942-.943V45.763c0-.5.416-.943.942-.943h1.386c.499 0 .943.416.943.943v12.336zm12.004-12.004c.915.887 1.358 2.024 1.358 3.382 0 1.331-.499 2.468-1.441 3.383-.943.942-2.246 1.413-3.826 1.413-.721 0-1.247-.027-1.58-.055v3.909a.953.953 0 01-.943.942h-1.386a.952.952 0 01-.942-.942V45.79c0-.499.415-.97.942-.97 1.442-.028 2.578-.028 3.41-.028 2.024 0 3.493.444 4.408 1.303zm-5.489 5.018c.499.055 1.026.11 1.497.11 1.026 0 1.913-.498 1.913-1.746 0-1.109-.638-1.635-1.969-1.635-.055 0-.526.027-1.413.055v3.216h-.028z" fill="#FF6927"/><path fill-rule="evenodd" clip-rule="evenodd" d="M139.782 58.1a.952.952 0 01-.942.942h-6.765a.952.952 0 01-.942-.943V45.763c0-.5.416-.943.942-.943h6.571c.499 0 .942.416.942.943v1.164a.953.953 0 01-.942.943h-4.242v2.495h3.632c.499 0 .942.415.942.942v1.164a.952.952 0 01-.942.943h-3.632v2.578h4.463c.499 0 .943.416.943.943v1.164h-.028zm18.297 0a.952.952 0 01-.942.942h-1.386a.953.953 0 01-.943-.943V47.87h-3.105l-.305 2.69c-.859 6.82-2.162 8.566-5.045 8.594-.555 0-.915-.333-.915-.832v-1.22c0-.637.194-.887.859-1.192.555-.25 1.026-.915 1.331-2.024.305-1.108.582-3.16.804-6.21l.138-1.912c.056-.555.499-.943.998-.943h7.569c.499 0 .942.416.942.943V58.1z" fill="#FF6927"/><path d="M169.944 56.048h-5.628l-.915 2.328c-.194.444-.499.666-.97.666h-1.247c-.499 0-.86-.416-.86-.887 0-.111.028-.25.056-.333l5.128-12.337c.194-.443.527-.665.998-.665h1.47c.471 0 .804.222.998.665l5.128 12.337c.028.11.056.222.056.333 0 .471-.388.887-.86.887h-1.441c-.471 0-.804-.222-.97-.666l-.943-2.328zm-2.8-7.07l-1.608 4.02h3.188l-1.58-4.02z" fill="#FF6927"/><path fill-rule="evenodd" clip-rule="evenodd" d="M187.88 58.1a.952.952 0 01-.942.942h-1.386a.953.953 0 01-.943-.943V47.87h-4.99V58.1a.953.953 0 01-.943.943h-1.386a.952.952 0 01-.942-.943V45.763c0-.5.415-.943.942-.943h9.62c.499 0 .943.416.943.943v12.336h.027z" fill="#FF6927"/><path d="M191.125 45.763c0-.5.416-.943.943-.943h1.386c.499 0 .942.416.942.943v3.52c.444-.055.86-.083 1.248-.083 3.41 0 5.184 1.802 5.184 4.796 0 3.078-2.162 5.101-5.877 5.101-.804 0-1.775-.028-2.883-.028a.972.972 0 01-.943-.942V45.763zm3.244 10.202c.499.055.804.083.942.083 1.359 0 2.024-.638 2.024-1.969 0-1.22-.776-1.83-2.024-1.83-.194 0-.527.029-.97.112v3.604h.028zm11.089 2.134c0 .5-.416.943-.943.943h-1.386a.953.953 0 01-.943-.943V45.763c0-.5.416-.943.943-.943h1.386c.499 0 .943.416.943.943v12.336z" fill="#FF6927"/></g></g><defs><clipPath id="clip0"><rect width="237" height="104" rx="40" fill="#fff"/></clipPath><clipPath id="clip1"><path fill="#fff" transform="translate(30 38)" d="M0 0h175.485v28H0z"/></clipPath></defs></svg>