<svg width="64" height="64" fill="none" xmlns="http://www.w3.org/2000/svg"><path d="M8.941 23.868A20.03 20.03 0 0123.868 8.94a35.61 35.61 0 0116.264 0A20.03 20.03 0 0155.06 23.868a35.61 35.61 0 010 16.264A20.03 20.03 0 0140.132 55.06a35.61 35.61 0 01-16.264 0A20.03 20.03 0 018.94 40.132a35.61 35.61 0 010-16.264z" stroke="#008CEF" stroke-width="2"/><path d="M8.941 23.868a35.61 35.61 0 000 16.264A20.03 20.03 0 0023.868 55.06a35.61 35.61 0 0016.264 0A20.03 20.03 0 0055.06 40.132a35.61 35.61 0 000-16.264A20.03 20.03 0 0040.132 8.94" stroke="#ACE3FF" stroke-width="2" stroke-linecap="round"/><path d="M20.225 24.358a1 1 0 00-1.415 1.414l1.415-1.414zm2.067 3.481l-.708.707a1 1 0 001.415 0l-.707-.707zm6.255-4.841a1 1 0 00-1.414-1.414l1.414 1.414zm6.228 2.454a1 1 0 100 2v-2zm9.71 2a1 1 0 100-2v2zm-24.26 10.776a1 1 0 10-1.415 1.414l1.415-1.414zm2.067 3.481l-.708.707a1 1 0 001.415 0l-.707-.707zm6.255-4.84a1 1 0 00-1.414-1.415l1.414 1.414zm6.228 2.453a1 1 0 100 2v-2zm9.71 2a1 1 0 100-2v2zM18.81 25.772l2.773 2.774L23 27.132l-2.774-2.774-1.415 1.414zm4.188 2.774l5.548-5.548-1.414-1.414-5.549 5.548L23 28.546zm11.776-1.094h9.71v-2h-9.71v2zM18.81 39.642l2.773 2.774L23 41.002l-2.774-2.774-1.415 1.414zm4.188 2.774l5.548-5.548-1.414-1.414-5.549 5.548L23 42.416zm11.776-1.094h9.71v-2h-9.71v2z" fill="#008CEF"/></svg>