<svg width="180" height="269" viewBox="0 0 180 269" fill="none" xmlns="http://www.w3.org/2000/svg">
<g clip-path="url(#clip0)">
<path d="M177.17 234.434L166.384 228.226C167.379 229.145 167.838 230.142 167.838 231.215V238.419C167.838 239.799 166.92 241.255 165.084 242.251L130.583 262.179C128.747 263.252 126.299 263.788 123.928 263.788H136.244C138.615 263.712 140.91 263.252 142.746 262.179L177.247 242.251C180.919 240.105 180.919 236.58 177.17 234.434Z" fill="url(#paint0_linear)"/>
<path d="M57.9082 220.638L117.194 254.898C120.943 257.044 126.986 257.044 130.734 254.898L165.159 234.97C166.994 233.897 167.912 232.518 167.912 231.061V238.266C167.912 239.645 166.994 241.102 165.159 242.175L130.734 262.102C126.986 264.248 120.943 264.248 117.194 262.102L57.9082 227.842C56.0723 226.769 55.1543 225.39 55.1543 224.01V216.806C55.1543 218.185 56.0723 219.641 57.9082 220.638Z" fill="url(#paint1_linear)"/>
<path d="M57.909 212.82C54.1606 214.966 54.1606 218.492 57.909 220.638L117.195 254.897C120.943 257.043 126.987 257.043 130.735 254.897L165.159 234.97C168.908 232.824 168.908 229.298 165.159 227.152L105.873 192.893C102.125 190.747 96.0815 190.747 92.3331 192.893L57.909 212.82Z" fill="#F5F5FA"/>
<path d="M165.161 227.228L127.983 205.691H81.625L143.053 241.331L136.78 244.933H147.872L165.084 234.969C168.833 232.9 168.833 229.374 165.161 227.228Z" fill="url(#paint2_linear)"/>
<path d="M143.054 185.688L136.781 189.29V245.01L143.054 241.331V185.688Z" fill="#949BC5"/>
<path d="M136.781 176.107L75.123 140.314V209.217L136.781 245.01V176.107Z" fill="#BBBEDE"/>
<path d="M82.6186 103.909C84.1485 101.84 87.2085 101.227 89.5034 102.529L161.488 144.147C163.707 145.45 164.242 148.209 162.712 150.278L122.398 204.159C120.868 206.228 117.808 206.842 115.513 205.539L43.528 163.921C41.3096 162.618 40.7741 159.859 42.3041 157.79L82.6186 103.909Z" fill="#F5F5FA"/>
<path d="M115.512 205.539C117.73 206.842 120.79 206.229 122.397 204.159L162.711 150.279C163.935 148.593 163.859 146.523 162.558 145.144L167.684 151.198C168.984 152.655 169.137 154.801 167.913 156.487L127.599 210.367C126.069 212.437 123.009 213.05 120.714 211.747L48.7292 170.129C48.1937 169.823 47.7347 169.44 47.4288 168.98L42.6094 163.231C42.9154 163.538 43.2214 163.845 43.6038 164.075L115.512 205.539Z" fill="url(#paint3_linear)"/>
<path d="M118.725 202.626C132.342 184.385 145.729 166.45 159.345 148.286C138.844 136.406 104.726 116.709 85.9838 105.825C72.2906 124.22 59.0564 141.848 45.3633 160.166C65.3293 171.739 93.5571 188.064 118.725 202.626Z" fill="url(#paint4_linear)"/>
<path d="M65.4063 240.642L26.5453 240.718L21.4199 249.302H27.6928L25.0153 253.748H65.4063V240.642Z" fill="url(#paint5_linear)"/>
<path d="M30.0642 164.151C30.0642 164.918 32.8182 175.188 33.4301 176.184C34.2716 177.641 35.8016 179.174 36.1076 180.17C36.4901 181.09 36.7961 183.006 36.7961 183.466C36.7961 183.926 36.1841 185.688 35.5721 185.458C34.9601 185.228 35.8781 184.309 35.5721 184.002C35.4191 184.309 34.7306 184.999 34.1186 184.845C33.5066 184.692 33.7361 184.462 33.7361 184.462C33.4301 184.615 32.9712 184.615 32.8182 184.309C32.5122 184.385 32.0532 184.615 31.9767 183.926C31.8237 183.236 31.7472 182.086 31.5177 181.626C30.5997 180.17 30.6762 176.721 30.5232 176.338C30.3702 175.878 26.9278 167.37 26.6983 165.608C26.3923 163.845 26.4688 154.801 27.9988 154.724C29.5287 154.648 30.0642 161.546 30.0642 164.151Z" fill="#F4D1AD"/>
<path d="M25.0159 240.181C23.1035 240.488 22.568 243.553 23.5625 245.393C24.1744 246.083 25.6279 246.696 25.6279 246.696C25.6279 246.696 31.5948 249.148 32.8952 249.225C34.1957 249.302 37.1791 248.842 37.4086 246.543C37.1791 245.163 36.0316 244.78 34.5782 243.937C32.7422 242.787 31.1358 241.178 29.6058 240.488C28.3053 239.875 25.0159 240.181 25.0159 240.181Z" fill="url(#paint6_linear)"/>
<path d="M28.6119 238.265C27.694 238.418 24.787 239.108 24.787 239.108C24.787 239.108 23.7161 242.173 25.399 242.71C28.7649 243.783 31.5954 241.484 30.2949 240.794C29.3769 240.334 28.4589 239.721 28.6119 238.265Z" fill="#F4D1AD"/>
<path d="M32.8181 248.689C31.4412 248.612 25.3213 246.083 25.3213 246.083C25.3213 246.083 23.8678 245.47 23.2559 244.856C23.3324 245.086 23.4089 245.316 23.4854 245.546C24.0973 246.236 25.5508 246.849 25.5508 246.849C25.5508 246.849 31.5177 249.302 32.8181 249.378C34.1186 249.455 37.102 248.995 37.3315 246.696C37.3315 246.619 37.3315 246.619 37.3315 246.543C36.7195 248.305 34.0421 248.765 32.8181 248.689Z" fill="#121244"/>
<path d="M30.8289 241.254C30.5994 240.947 29.9874 240.027 28.993 240.794C27.922 241.56 27.6925 242.48 27.8455 243.246C27.9985 244.013 30.1404 243.476 30.2169 243.323C30.2934 243.17 30.8289 241.254 30.8289 241.254Z" fill="#34318D"/>
<path d="M31.825 242.173C31.366 242.326 30.2951 243.093 29.8361 244.089C29.6831 244.396 29.3006 244.549 29.0711 244.396C28.7651 244.243 28.6121 243.859 28.7651 243.629C29.3771 242.326 30.6776 241.407 31.366 241.1C31.672 240.947 32.0545 241.1 32.131 241.407C32.284 241.713 32.131 242.097 31.825 242.173Z" fill="white"/>
<path d="M33.661 243.4C33.202 243.553 32.131 244.319 31.672 245.316C31.519 245.622 31.1365 245.776 30.907 245.622C30.601 245.469 30.448 245.086 30.601 244.856C31.213 243.553 32.5135 242.633 33.202 242.327C33.508 242.173 33.8905 242.327 33.967 242.633C34.1199 242.94 33.967 243.246 33.661 243.4Z" fill="white"/>
<path d="M28.0759 178.253C28.9938 189.443 30.4473 200.096 30.4473 209.064C30.4473 219.334 28.6879 230.141 28.5349 238.725C28.6114 241.331 25.6279 243.4 24.404 241.101C24.3275 240.334 24.71 239.338 24.557 238.265C23.792 231.673 21.5735 221.633 23.4095 213.126C20.8086 201.859 13.6942 187.987 14.7652 179.173C18.0546 177.64 25.6279 177.486 28.0759 178.253Z" fill="#F4D1AD"/>
<path d="M26.6211 142.844C29.528 144.3 30.599 146.523 30.599 150.891C28.6865 149.665 26.6211 142.844 26.6211 142.844Z" fill="#F4D1AD"/>
<path d="M25.0928 182.546V184.385L23.4863 183.466L25.0928 182.546Z" fill="#4141A8"/>
<path d="M17.137 244.704C15.2246 245.01 14.6891 248.076 15.6836 249.915C16.2955 250.605 17.749 251.218 17.749 251.218C17.749 251.218 23.7158 253.671 25.0163 253.748C26.3168 253.824 29.3002 253.364 29.5297 251.065C29.3002 249.685 28.1527 249.302 26.6993 248.459C24.8633 247.309 23.2569 245.7 21.7269 245.01C20.5029 244.397 17.137 244.704 17.137 244.704Z" fill="url(#paint7_linear)"/>
<path d="M20.8092 242.788C19.8912 242.941 16.9843 243.631 16.9843 243.631C16.9843 243.631 15.9133 246.697 17.5963 247.233C20.9622 248.306 23.7926 246.007 22.4922 245.317C21.5742 244.781 20.6562 244.244 20.8092 242.788Z" fill="#F4D1AD"/>
<path d="M24.9392 253.135C23.5622 253.058 17.4424 250.529 17.4424 250.529C17.4424 250.529 15.9889 249.916 15.377 249.303C15.4535 249.533 15.5299 249.763 15.6064 249.993C16.2184 250.682 17.6719 251.295 17.6719 251.295C17.6719 251.295 23.6387 253.748 24.9392 253.825C26.2397 253.901 29.2231 253.441 29.4526 251.142C29.4526 251.066 29.4526 251.066 29.4526 250.989C28.9171 252.828 26.2397 253.288 24.9392 253.135Z" fill="#121244"/>
<path d="M22.95 245.777C22.7205 245.471 22.1085 244.551 21.1141 245.317C20.0431 246.084 19.8136 247.003 19.9666 247.77C20.1196 248.536 22.2615 248 22.338 247.846C22.4145 247.693 22.95 245.777 22.95 245.777Z" fill="#34318D"/>
<path d="M24.0223 246.697C23.5633 246.85 22.4923 247.616 22.0333 248.613C21.8803 248.919 21.4979 249.073 21.2684 248.919C20.9624 248.766 20.8094 248.383 20.9624 248.153C21.5743 246.85 22.8748 245.93 23.5633 245.624C23.8693 245.47 24.2518 245.624 24.3283 245.93C24.4048 246.237 24.3283 246.62 24.0223 246.697Z" fill="white"/>
<path d="M25.8582 247.923C25.3992 248.076 24.3283 248.843 23.8693 249.839C23.7163 250.146 23.3338 250.299 23.1043 250.146C22.7983 249.993 22.6453 249.609 22.7983 249.379C23.4103 248.076 24.7108 247.157 25.3992 246.85C25.7052 246.697 26.0877 246.85 26.1642 247.157C26.3172 247.463 26.1642 247.77 25.8582 247.923Z" fill="white"/>
<path d="M21.9564 183.082C21.9564 193.353 22.0329 204.849 22.0329 213.816C22.0329 224.087 20.8855 234.663 20.7325 243.248C20.809 245.853 17.8255 247.923 16.6016 245.624C16.5251 244.857 16.9076 243.861 16.7546 242.788C15.9896 236.196 13.7711 226.156 15.6071 217.649C13.0062 206.382 9.02826 194.579 11.3997 183.082C14.6891 181.549 19.432 182.316 21.9564 183.082Z" fill="#F4D1AD"/>
<path d="M14.2298 169.823C15.0713 162.082 11.3993 154.801 10.7874 149.895C10.3284 146.83 10.0224 143.227 12.8528 142.384C15.6832 141.465 16.8307 141.081 19.3552 141.158C25.322 141.311 28.0759 142.538 29.2999 146.676C30.4474 150.508 31.2888 151.735 32.2068 155.49C32.6658 157.176 27.9229 160.855 28.5349 168.213C32.6658 174.498 35.6492 188.677 36.8732 199.79C37.3322 203.163 33.9663 207.455 27.9229 210.444C20.3496 214.276 11.4758 214.583 8.18643 211.134C7.34495 210.291 6.96246 209.294 6.96246 208.298C6.80946 204.389 9.02791 176.261 14.2298 169.823Z" fill="url(#paint8_linear)"/>
<path d="M17.1377 133.954C17.2142 132.114 23.4871 135.793 23.4106 138.169C23.3341 140.162 23.0281 142.155 23.7931 142.385C24.6345 142.998 27.159 149.512 25.629 151.045C20.2742 148.899 17.5202 144.224 12.7773 142.385C14.7663 142.078 16.8317 139.932 17.1377 133.954Z" fill="#F4D1AD"/>
<path d="M15.6836 131.424L17.596 126.672H29.5297V133.876C29.5297 137.862 26.8523 141.081 23.5629 141.081C20.35 141.081 17.749 138.015 17.596 134.26H16.7546L15.6836 131.424Z" fill="#F4D1AD"/>
<path d="M18.5898 137.938C19.5843 139.778 21.3438 141.004 23.2562 141.081C23.2562 141.694 23.3327 142.077 23.5622 142.231C23.2562 142.231 22.9502 142.231 22.6442 142.154C20.6553 141.694 19.2018 140.084 18.5898 137.938Z" fill="#E9C3A1"/>
<path d="M22.721 121.69H22.7975C29.2998 121.844 29.8353 126.749 29.4528 127.515C27.3873 128.282 26.0869 126.825 24.7864 126.979C24.1744 127.055 21.65 127.362 20.579 128.742C19.4315 130.198 19.814 132.497 18.7431 132.497C18.2841 132.497 18.1311 130.888 17.4426 130.888C16.8306 130.888 16.2951 131.424 16.3716 132.267C16.4481 133.493 17.5956 134.183 17.4426 134.796C17.1366 135.716 14.7652 134.03 14.8417 130.658C14.8417 127.132 17.1366 121.46 22.721 121.69Z" fill="#333389"/>
<path d="M11.1694 173.578L9.86894 176.797C5.43205 174.498 2.75462 168.367 2.52512 163.461C2.14263 156.87 9.02746 145.603 9.40995 145.067C11.1694 142.461 15.3003 144.76 13.9233 148.056C13.6173 148.746 6.57952 160.319 7.3445 164.228C7.87999 166.91 8.72147 171.816 11.1694 173.578Z" fill="#F4D1AD"/>
<path d="M21.8793 121.69C14.9179 122.15 14.153 129.048 11.3225 130.888C9.63957 131.961 5.96767 129.891 3.82572 133.647C1.37778 137.939 5.35568 139.472 2.75475 141.311C0.15381 143.151 -1.91164 148.669 2.52525 152.041C6.88564 155.414 12.3935 152.425 11.7815 147.443C11.3225 143.84 12.3935 142.001 15.3769 143.151C17.5954 143.994 18.5134 142.231 17.4424 139.932C22.4148 140.468 17.2129 130.888 24.7862 126.902C24.5567 124.986 21.8793 121.69 21.8793 121.69Z" fill="#333389"/>
<path d="M11.1699 173.578C11.7054 173.885 14.5359 173.271 15.2243 173.271C15.9128 173.271 17.7488 173.271 19.3552 173.808C20.8852 174.345 21.9562 174.881 20.8852 175.111C21.4972 175.264 22.7976 175.801 21.7267 176.107C21.6502 176.491 21.2677 176.95 20.0437 176.95C19.6612 177.257 16.9073 177.87 16.0658 177.717C15.1478 177.947 10.5579 177.87 9.79297 176.874C9.86947 175.034 11.1699 173.578 11.1699 173.578Z" fill="#F4D1AD"/>
<path d="M117.656 161.852C108.094 156.334 98.4548 150.892 88.8926 145.374C90.2695 143.457 91.0345 142.538 92.4115 140.698C102.05 146.217 111.613 151.658 121.251 157.177C119.798 159.016 119.033 160.012 117.656 161.852Z" fill="url(#paint9_linear)"/>
<path d="M111.228 170.435C101.666 164.917 92.0271 159.475 82.4648 153.957C83.8418 152.041 84.6068 151.121 85.9838 149.205C95.546 154.723 105.185 160.165 114.747 165.683C113.37 167.6 112.682 168.596 111.228 170.435Z" fill="url(#paint10_linear)"/>
<path d="M82.465 118.548C84.6834 115.559 88.9673 115.022 92.2568 116.938C95.5462 118.854 96.5407 122.456 94.3987 125.369C92.1803 128.358 87.5904 129.431 84.3009 127.592C81.0115 125.752 80.2466 121.537 82.465 118.548Z" fill="url(#paint11_linear)"/>
<path d="M117.119 159.092C107.556 153.574 97.9177 148.132 88.3555 142.614C89.7324 140.698 90.4974 139.778 91.8744 137.938C101.513 143.457 111.075 148.899 120.714 154.417C119.184 156.256 118.496 157.253 117.119 159.092Z" fill="#ED995A"/>
<path d="M110.693 167.677C101.131 162.158 91.492 156.717 81.9297 151.198C83.3067 149.282 84.0716 148.362 85.4486 146.446C95.0109 151.965 104.65 157.406 114.212 162.925C112.758 164.841 112.07 165.837 110.693 167.677Z" fill="#D67747"/>
<path d="M81.9298 115.942C84.1483 112.953 88.4322 112.417 91.7216 114.333C95.011 116.249 96.0055 119.851 93.8635 122.763C91.6451 125.753 87.0552 126.826 83.7658 124.986C80.4764 123.147 79.7114 118.931 81.9298 115.942Z" fill="#D67747"/>
<path d="M85.6021 118.088C86.4436 116.938 88.203 116.632 89.5035 117.398C90.804 118.165 91.1864 119.621 90.2685 120.847C89.427 121.997 87.591 122.38 86.2906 121.69C85.0666 120.847 84.6841 119.238 85.6021 118.088Z" fill="#F6F6FB"/>
<path d="M107.939 261.105H65.0234V269H107.939V261.105Z" fill="url(#paint12_linear)"/>
<path d="M88.5853 249.686H45.6699V257.58H88.5853V249.686Z" fill="url(#paint13_linear)"/>
<path d="M40.9277 255.127C40.9277 248.919 44.8291 248.765 44.8291 248.765C44.8291 248.765 46.9711 248.765 50.4135 247.309C53.8559 245.853 58.5988 246.466 55.9214 251.371C55.9214 251.448 55.8449 251.525 55.8449 251.525C55.6919 251.754 55.3859 252.061 55.0034 252.291L46.4356 257.349C45.1351 258.116 40.9277 256.43 40.9277 255.127Z" fill="url(#paint14_linear)"/>
<path d="M40.9277 254.591C41.0042 255.893 45.1351 257.58 46.4356 256.813L55.0034 251.755C55.3094 251.601 55.7684 251.295 56.2274 250.835C56.1509 250.988 56.0744 251.142 55.9979 251.371C55.9979 251.448 55.9214 251.525 55.9214 251.525C55.7684 251.755 55.4624 252.061 55.0799 252.291L46.5121 257.35C45.2881 258.039 41.5397 256.583 41.0807 255.357C41.0807 255.28 41.0807 255.204 41.0807 255.127C40.9277 254.974 40.9277 254.744 40.9277 254.591Z" fill="#1D1E67"/>
<path d="M42.5342 247.923C43.5286 247.923 47.124 248.843 47.124 248.843C47.124 248.843 47.124 249.302 47.43 249.762C47.43 249.839 47.5065 249.839 47.5065 249.916C48.195 250.375 48.96 251.142 47.277 252.215C45.9001 253.058 44.8291 252.521 44.2936 251.985C44.0641 251.602 43.7581 251.142 43.2991 250.912C42.8402 250.682 42.5342 250.529 42.3812 250.529V250.452C42.3812 250.452 42.0752 247.923 42.5342 247.923Z" fill="white"/>
<path d="M42.4577 187.221C46.3591 187.297 56.0744 187.451 59.8993 187.527C58.4459 199.177 55.5389 209.831 53.6265 221.174C51.561 232.211 49.1896 239.875 47.1241 249.072C46.3591 250.758 42.9167 250.145 42.2283 248.459C41.6928 240.028 41.0808 229.758 43.5287 220.024C43.2227 209.524 42.2283 197.798 42.4577 187.221Z" fill="url(#paint15_linear)"/>
<path d="M60.5117 266.547C60.5117 260.339 64.4131 260.185 64.4131 260.185C64.4131 260.185 66.5551 260.185 69.9975 258.729C73.4399 257.273 78.1828 257.886 75.5053 262.791C75.5053 262.868 75.4289 262.944 75.4289 262.944C75.2759 263.174 74.9699 263.481 74.5874 263.711L66.0196 268.769C64.7191 269.536 60.5117 267.85 60.5117 266.547Z" fill="url(#paint16_linear)"/>
<path d="M60.5117 266.01C60.5882 267.313 64.7191 269 65.9431 268.233L74.5109 263.175C74.8169 263.021 75.2759 262.715 75.7348 262.255C75.6583 262.408 75.5818 262.561 75.5053 262.791C75.5053 262.868 75.4289 262.945 75.4289 262.945C75.2759 263.175 74.9699 263.481 74.5874 263.711L66.0196 268.77C64.7956 269.459 61.0472 268.003 60.5882 266.777C60.5882 266.7 60.5882 266.624 60.5882 266.547C60.5117 266.394 60.5117 266.164 60.5117 266.01Z" fill="#1D1E67"/>
<path d="M62.1181 259.343C63.1126 259.343 66.708 260.262 66.708 260.262C66.708 260.262 66.708 260.722 67.014 261.182C67.014 261.259 67.0905 261.259 67.0905 261.335C67.779 261.795 68.544 262.562 66.861 263.635C65.4841 264.478 64.4131 263.941 63.8776 263.405C63.6481 263.022 63.3421 262.562 62.8831 262.332C62.4241 262.102 62.1181 261.949 61.9652 261.949V261.872C61.9652 261.872 61.6592 259.343 62.1181 259.343Z" fill="white"/>
<path d="M54.7743 215.042C53.7033 209.984 41.4636 209.371 42.3051 189.673C46.13 189.137 65.484 198.181 69.3854 197.644C69.8444 209.447 68.697 220.331 68.6205 231.827C68.391 243.017 67.32 251.065 66.7845 260.415C66.3255 262.255 62.8066 262.178 61.8886 260.645C59.9762 252.445 57.6812 242.404 58.5992 232.364C57.3752 226.769 55.9983 220.867 54.7743 215.042Z" fill="url(#paint17_linear)"/>
<path d="M51.101 151.274C37.4079 160.395 35.8014 178.56 43.2217 190.133C43.2217 190.056 41.6153 164.534 51.101 151.274Z" fill="url(#paint18_linear)"/>
<path d="M50.4897 200.786C58.828 205.462 67.4723 205.462 70.4557 199.713C69.3083 188.983 68.3138 180.323 70.4557 170.052C69.8438 164.381 69.3848 163.538 70.0733 160.242C69.8438 159.169 66.4014 156.793 63.9534 154.494C61.276 152.041 59.44 149.742 58.0631 149.435C46.6648 147.136 41.157 167.446 42.1515 189.06C43.0694 194.808 46.4354 198.487 50.4897 200.786Z" fill="url(#paint19_linear)"/>
<path d="M51.8659 150.738C54.3139 148.975 53.9314 147.749 53.6254 145.373C53.1664 144.07 52.8604 142.691 52.8604 141.158C52.8604 135.716 56.3028 131.041 60.5102 131.347C69.0015 131.96 67.4715 136.406 67.4715 141.847C67.4715 146.829 65.1766 150.278 61.4282 150.891C61.4282 151.734 61.6577 152.194 62.6522 153.191C59.8982 154.877 55.8438 154.11 54.2374 153.344C52.4779 152.578 50.642 151.964 51.8659 150.738Z" fill="#F4D1AD"/>
<path d="M82.7718 163.768C82.7718 161.699 83.2308 160.472 83.9958 160.089C84.1488 159.553 84.3783 159.016 84.5313 158.556C85.6022 155.567 88.8917 153.038 89.6566 153.728C90.1156 154.188 88.3562 155.491 87.5147 156.87C86.9027 157.79 86.9027 158.326 86.7497 159.093C86.7497 159.093 90.7276 159.476 90.7276 162.772C90.7276 165.454 89.2742 164.381 89.2742 163.845C88.2797 166.604 87.0557 164.994 86.5202 167.217L82.2363 165.301C82.3128 165.301 82.4658 164.688 82.7718 163.768Z" fill="#F4D1AD"/>
<path d="M56.7618 129.968C57.8327 129.432 58.8272 129.662 59.4392 129.278C60.8927 128.359 62.2696 127.822 63.0346 128.282C63.4171 128.512 64.1056 129.125 64.1056 129.125C64.8706 129.891 66.4005 128.282 66.783 130.198C66.8595 130.811 66.936 131.271 66.936 131.731C70.5314 132.191 68.772 135.486 65.865 141.924C65.865 140.851 63.6466 138.476 63.6466 143.074C63.6466 143.534 64.0291 143.687 63.7231 144.3C63.4171 144.99 61.2752 146.6 59.8982 147.979C57.9857 149.895 56.8383 148.209 53.7018 148.516C53.7018 147.136 53.3194 146.446 52.8604 145.603C52.5544 145.067 50.7949 143.381 50.7949 140.392C53.2429 140.775 48.8825 134.03 56.7618 129.968Z" fill="#5557BE"/>
<path d="M61.9641 166.297C62.882 171.279 64.106 183.006 70.4553 185.382C76.9577 184.385 86.061 170.513 86.9789 167.14L82.0831 165.071C79.0996 169.9 75.8867 171.509 72.3678 175.111C72.0618 171.203 71.1438 164.458 70.0729 160.242C68.5429 156.027 60.5871 158.94 61.9641 166.297Z" fill="url(#paint20_linear)"/>
</g>
<g clip-path="url(#clip1)">
<path d="M165.019 120.114L123.271 12.3217C121.107 6.75216 117.813 4.13992 115.256 5.51997L124.156 0.344769C126.713 -1.03528 130.008 1.57696 132.171 7.14646L173.87 114.939C175.394 118.882 175.296 121.543 173.87 122.48L173.722 122.529C173.673 122.578 173.624 122.578 173.575 122.627L165.019 127.655C166.395 126.718 166.543 124.057 165.019 120.114Z" fill="#E33C5C"/>
<path d="M123.271 12.3221C120.665 5.61903 116.436 3.15465 113.83 6.85122L72.1316 66.3414C69.5254 70.038 71.6398 75.5582 76.8521 78.5647L160.298 126.867C165.51 129.873 167.625 126.867 165.019 120.114L123.271 12.3221Z" fill="#FF826A"/>
<path d="M115.502 78.8604L121.599 82.4091V89.4572L115.502 85.9085V78.8604Z" fill="white"/>
<path d="M114.322 33.1699L122.78 38.0494L121.6 75.2616L115.502 71.7129L114.322 33.1699Z" fill="white"/>
</g>
<defs>
<linearGradient id="paint0_linear" x1="123.888" y1="245.992" x2="179.976" y2="245.992" gradientUnits="userSpaceOnUse">
<stop stop-color="#C6CAE4"/>
<stop offset="0.6333" stop-color="#EDEFF7"/>
<stop offset="1" stop-color="white"/>
</linearGradient>
<linearGradient id="paint1_linear" x1="167.931" y1="240.303" x2="55.1525" y2="240.303" gradientUnits="userSpaceOnUse">
<stop offset="0.3112" stop-color="#BBBFE2"/>
<stop offset="0.4635" stop-color="#CED2F4"/>
</linearGradient>
<linearGradient id="paint2_linear" x1="81.6139" y1="225.348" x2="167.935" y2="225.348" gradientUnits="userSpaceOnUse">
<stop stop-color="#C6CAE4"/>
<stop offset="0.241" stop-color="#CDD0E7"/>
<stop offset="0.5827" stop-color="#DFE1F0"/>
<stop offset="0.9829" stop-color="#FEFEFE"/>
<stop offset="1" stop-color="white"/>
</linearGradient>
<linearGradient id="paint3_linear" x1="137.51" y1="124.019" x2="78.0385" y2="194.76" gradientUnits="userSpaceOnUse">
<stop offset="0.7584" stop-color="#BDC0E0"/>
<stop offset="0.8371" stop-color="#D0D3F2"/>
</linearGradient>
<linearGradient id="paint4_linear" x1="159.344" y1="154.217" x2="45.3287" y2="154.217" gradientUnits="userSpaceOnUse">
<stop stop-color="#FF826A"/>
<stop offset="1" stop-color="#4143A3"/>
</linearGradient>
<linearGradient id="paint5_linear" x1="21.4557" y1="247.22" x2="65.3916" y2="247.22" gradientUnits="userSpaceOnUse">
<stop stop-color="#C4C9E5"/>
<stop offset="0.0949175" stop-color="#CED2E9"/>
<stop offset="0.4088" stop-color="#E9EBF5"/>
<stop offset="0.6869" stop-color="#F9FAFC"/>
<stop offset="0.8989" stop-color="white"/>
</linearGradient>
<linearGradient id="paint6_linear" x1="25.5351" y1="248.093" x2="33.9481" y2="241.662" gradientUnits="userSpaceOnUse">
<stop stop-color="#4141A8"/>
<stop offset="0.4653" stop-color="#302F8A"/>
<stop offset="1" stop-color="#1E1C6B"/>
</linearGradient>
<linearGradient id="paint7_linear" x1="17.7074" y1="252.605" x2="26.1202" y2="246.174" gradientUnits="userSpaceOnUse">
<stop stop-color="#4141A8"/>
<stop offset="0.4653" stop-color="#302F8A"/>
<stop offset="1" stop-color="#1E1C6B"/>
</linearGradient>
<linearGradient id="paint8_linear" x1="36.8347" y1="177.405" x2="6.82606" y2="177.405" gradientUnits="userSpaceOnUse">
<stop stop-color="#34318D"/>
<stop offset="1" stop-color="#6A6AE0"/>
</linearGradient>
<linearGradient id="paint9_linear" x1="88.8547" y1="151.308" x2="121.162" y2="151.308" gradientUnits="userSpaceOnUse">
<stop/>
<stop offset="0.1482" stop-color="#0F0A03"/>
<stop offset="0.4351" stop-color="#37240B"/>
<stop offset="0.8282" stop-color="#784E17"/>
<stop offset="1" stop-color="#96621D"/>
</linearGradient>
<linearGradient id="paint10_linear" x1="82.4628" y1="159.854" x2="114.781" y2="159.854" gradientUnits="userSpaceOnUse">
<stop/>
<stop offset="0.1935" stop-color="#0F0A04"/>
<stop offset="0.5677" stop-color="#37240D"/>
<stop offset="1" stop-color="#6D4719"/>
</linearGradient>
<linearGradient id="paint11_linear" x1="81.2318" y1="122.206" x2="95.5991" y2="122.206" gradientUnits="userSpaceOnUse">
<stop/>
<stop offset="0.1935" stop-color="#0F0A04"/>
<stop offset="0.5677" stop-color="#37240D"/>
<stop offset="1" stop-color="#6D4719"/>
</linearGradient>
<linearGradient id="paint12_linear" x1="65.0342" y1="265.038" x2="107.96" y2="265.038" gradientUnits="userSpaceOnUse">
<stop stop-color="#C4C8E1"/>
<stop offset="0.0949175" stop-color="#CED1E6"/>
<stop offset="0.4088" stop-color="#E9EAF4"/>
<stop offset="0.6869" stop-color="#F9FAFC"/>
<stop offset="0.8989" stop-color="white"/>
</linearGradient>
<linearGradient id="paint13_linear" x1="45.6803" y1="253.624" x2="88.6059" y2="253.624" gradientUnits="userSpaceOnUse">
<stop stop-color="#C4C8E1"/>
<stop offset="0.0949175" stop-color="#CED1E6"/>
<stop offset="0.4088" stop-color="#E9EAF4"/>
<stop offset="0.6869" stop-color="#F9FAFC"/>
<stop offset="0.8989" stop-color="white"/>
</linearGradient>
<linearGradient id="paint14_linear" x1="56.7541" y1="252.111" x2="40.9313" y2="252.111" gradientUnits="userSpaceOnUse">
<stop stop-color="#333386"/>
<stop offset="0.2495" stop-color="#3D3E95"/>
<stop offset="0.731" stop-color="#585ABE"/>
<stop offset="1" stop-color="#696CD7"/>
</linearGradient>
<linearGradient id="paint15_linear" x1="41.7844" y1="218.634" x2="59.9233" y2="218.634" gradientUnits="userSpaceOnUse">
<stop stop-color="#4143A3"/>
<stop offset="0.2651" stop-color="#35378F"/>
<stop offset="0.7333" stop-color="#242572"/>
<stop offset="1" stop-color="#1D1E67"/>
</linearGradient>
<linearGradient id="paint16_linear" x1="76.3179" y1="263.52" x2="60.495" y2="263.52" gradientUnits="userSpaceOnUse">
<stop stop-color="#333386"/>
<stop offset="0.2495" stop-color="#3D3E95"/>
<stop offset="0.731" stop-color="#585ABE"/>
<stop offset="1" stop-color="#696CD7"/>
</linearGradient>
<linearGradient id="paint17_linear" x1="69.4481" y1="225.642" x2="42.2464" y2="225.642" gradientUnits="userSpaceOnUse">
<stop stop-color="#1D1E67"/>
<stop offset="0.2033" stop-color="#242572"/>
<stop offset="0.5613" stop-color="#373990"/>
<stop offset="1" stop-color="#5457BC"/>
</linearGradient>
<linearGradient id="paint18_linear" x1="50.2339" y1="151.663" x2="37.7086" y2="190.264" gradientUnits="userSpaceOnUse">
<stop stop-color="#CED1F0"/>
<stop offset="0.4322" stop-color="#C4C7E6"/>
<stop offset="1" stop-color="#BBBEDE"/>
</linearGradient>
<linearGradient id="paint19_linear" x1="70.4971" y1="176.733" x2="42.0841" y2="176.733" gradientUnits="userSpaceOnUse">
<stop stop-color="#CED1F0"/>
<stop offset="0.3385" stop-color="#D4D6F1"/>
<stop offset="0.781" stop-color="#E4E5F2"/>
<stop offset="1" stop-color="#EFEFF3"/>
</linearGradient>
<linearGradient id="paint20_linear" x1="87.0371" y1="171.854" x2="61.8389" y2="171.854" gradientUnits="userSpaceOnUse">
<stop stop-color="#CED1F0"/>
<stop offset="0.6339" stop-color="#F0F1FB"/>
<stop offset="1" stop-color="white"/>
</linearGradient>
<clipPath id="clip0">
<rect width="180" height="211" fill="white" transform="translate(0 58)"/>
</clipPath>
<clipPath id="clip1">
<rect width="104" height="128" fill="white" transform="translate(71)"/>
</clipPath>
</defs>
</svg>
