<svg width="56" height="56" viewBox="0 0 56 56" fill="none" xmlns="http://www.w3.org/2000/svg">
<rect width="56" height="56" rx="28" fill="#E6F6FE"/>
<path d="M24.123 35.6526L24.2348 34.6589L23.0383 34.5244L23.1257 35.7252L24.123 35.6526ZM31.8772 35.6526L32.8746 35.7252L32.962 34.5244L31.7655 34.6589L31.8772 35.6526ZM31.7596 36.3964L32.7307 36.6352V36.6352L31.7596 36.3964ZM31.6533 36.8286L30.6823 36.5898V36.5898L31.6533 36.8286ZM28.9126 39.5591L29.1452 40.5317L29.1452 40.5317L28.9126 39.5591ZM27.0877 39.5591L26.855 40.5317H26.855L27.0877 39.5591ZM24.3469 36.8286L25.318 36.5898V36.5898L24.3469 36.8286ZM24.2407 36.3964L23.2696 36.6352V36.6352L24.2407 36.3964ZM24.0113 36.6463C26.6622 36.9444 29.338 36.9444 31.989 36.6463L31.7655 34.6589C29.2631 34.9402 26.7372 34.9402 24.2348 34.6589L24.0113 36.6463ZM32.7307 36.6352C32.8042 36.3362 32.8523 36.0318 32.8746 35.7252L30.8799 35.58C30.8657 35.7747 30.8352 35.9679 30.7885 36.1577L32.7307 36.6352ZM32.6244 37.0673L32.7307 36.6352L30.7885 36.1577L30.6823 36.5898L32.6244 37.0673ZM29.1452 40.5317C30.8615 40.1211 32.2026 38.7828 32.6244 37.0673L30.6823 36.5898C30.4383 37.5821 29.6641 38.3511 28.6799 38.5865L29.1452 40.5317ZM26.855 40.5317C27.6079 40.7117 28.3924 40.7117 29.1452 40.5317L28.6799 38.5865C28.233 38.6935 27.7673 38.6935 27.3204 38.5865L26.855 40.5317ZM23.3759 37.0673C23.7977 38.7828 25.1388 40.1211 26.855 40.5317L27.3204 38.5865C26.3361 38.3511 25.562 37.5821 25.318 36.5898L23.3759 37.0673ZM23.2696 36.6352L23.3759 37.0673L25.318 36.5898L25.2118 36.1577L23.2696 36.6352ZM23.1257 35.7252C23.148 36.0318 23.1961 36.3362 23.2696 36.6352L25.2118 36.1577C25.1651 35.9679 25.1346 35.7747 25.1204 35.58L23.1257 35.7252Z" fill="#008CEF"/>
<path d="M29 16.3333C29 15.781 28.5523 15.3333 28 15.3333C27.4477 15.3333 27 15.781 27 16.3333H29ZM27 17.6358C27 18.1881 27.4477 18.6358 28 18.6358C28.5523 18.6358 29 18.1881 29 17.6358H27ZM27 16.3333V17.6358H29V16.3333H27Z" fill="#008CEF"/>
<path d="M20.2598 23.6348L21.225 23.8964L21.225 23.8964L20.2598 23.6348ZM25.6142 18.0214L25.3059 17.0701V17.0701L25.6142 18.0214ZM20.2017 23.8493L19.2365 23.5878L19.2365 23.5878L20.2017 23.8493ZM19.9509 29.1245L20.9366 28.9557L20.9366 28.9557L19.9509 29.1245ZM19.9801 29.2949L18.9945 29.4636L18.9945 29.4636L19.9801 29.2949ZM20.5965 35.0741L20.7962 34.0942L20.7962 34.0942L20.5965 35.0741ZM21.0731 35.1712L20.8734 36.151H20.8734L21.0731 35.1712ZM34.93 35.1712L35.1296 36.151L34.93 35.1712ZM35.4065 35.0741L35.2069 34.0942V34.0942L35.4065 35.0741ZM36.0285 29.2622L37.0142 29.4309V29.4309L36.0285 29.2622ZM36.0595 29.0815L35.0738 28.9127V28.9127L36.0595 29.0815ZM35.8334 23.8859L34.8661 24.1396V24.1396L35.8334 23.8859ZM35.7525 23.5775L36.7197 23.3237V23.3237L35.7525 23.5775ZM30.5514 18.0294L30.865 17.0798H30.865L30.5514 18.0294ZM36.2369 29.6862L35.7486 30.5588L36.2369 29.6862ZM19.7933 29.6712L20.2722 30.549L19.7933 29.6712ZM21.225 23.8964C21.8545 21.5729 23.6381 19.7132 25.9226 18.9727L25.3059 17.0701C22.3835 18.0174 20.1022 20.3927 19.2946 23.3733L21.225 23.8964ZM21.1669 24.1108L21.225 23.8964L19.2946 23.3733L19.2365 23.5878L21.1669 24.1108ZM20.9366 28.9557C20.6605 27.3432 20.7391 25.6895 21.1669 24.1108L19.2365 23.5878C18.7327 25.447 18.6402 27.3943 18.9653 29.2932L20.9366 28.9557ZM20.9658 29.1261L20.9366 28.9557L18.9653 29.2932L18.9945 29.4636L20.9658 29.1261ZM19.2793 32.2264C19.2793 31.5017 19.6803 30.872 20.2722 30.549L19.3144 28.7933C18.1028 29.4543 17.2793 30.7442 17.2793 32.2264H19.2793ZM20.7962 34.0942C19.9169 33.9151 19.2793 33.1364 19.2793 32.2264H17.2793C17.2793 34.0807 18.5798 35.6838 20.3969 36.054L20.7962 34.0942ZM21.2727 34.1913L20.7962 34.0942L20.3969 36.054L20.8734 36.151L21.2727 34.1913ZM34.7304 34.1913C30.2896 35.096 25.7134 35.096 21.2727 34.1913L20.8734 36.151C25.5776 37.1094 30.4254 37.1094 35.1296 36.151L34.7304 34.1913ZM35.2069 34.0942L34.7304 34.1913L35.1296 36.151L35.6061 36.054L35.2069 34.0942ZM36.7237 32.2264C36.7237 33.1364 36.0862 33.9151 35.2069 34.0942L35.6061 36.054C37.4232 35.6838 38.7237 34.0807 38.7237 32.2264H36.7237ZM35.7486 30.5588C36.3309 30.8847 36.7237 31.5089 36.7237 32.2264H38.7237C38.7237 30.7591 37.9167 29.4803 36.7252 28.8135L35.7486 30.5588ZM35.0738 28.9127L35.0429 29.0934L37.0142 29.4309L37.0451 29.2502L35.0738 28.9127ZM34.8661 24.1396C35.2748 25.6973 35.3456 27.3251 35.0738 28.9127L37.0451 29.2502C37.3651 27.3816 37.2817 25.4656 36.8006 23.6321L34.8661 24.1396ZM34.7852 23.8313L34.8661 24.1396L36.8006 23.6321L36.7197 23.3237L34.7852 23.8313ZM30.2378 18.9789C32.4719 19.7167 34.1846 21.5421 34.7852 23.8313L36.7197 23.3237C35.948 20.3823 33.7455 18.0311 30.865 17.0798L30.2378 18.9789ZM25.9226 18.9727C27.3227 18.5188 28.8447 18.5188 30.2378 18.9789L30.865 17.0798C29.0637 16.4849 27.1059 16.4866 25.3059 17.0701L25.9226 18.9727ZM36.7252 28.8135C36.9206 28.9229 37.061 29.1575 37.0142 29.4309L35.0429 29.0934C34.9377 29.7075 35.2526 30.2813 35.7486 30.5588L36.7252 28.8135ZM18.9945 29.4636C18.9443 29.1709 19.095 28.913 19.3144 28.7933L20.2722 30.549C20.7611 30.2823 21.0679 29.7224 20.9658 29.1261L18.9945 29.4636Z" fill="#0063BF"/>
</svg>
