<svg width="56" height="56" viewBox="0 0 56 56" fill="none" xmlns="http://www.w3.org/2000/svg">
<rect width="56" height="56" rx="28" fill="#E6F6FE"/>
<path d="M38.9597 40.3737C39.3502 40.7642 39.9833 40.7642 40.3739 40.3737C40.7644 39.9832 40.7644 39.35 40.3739 38.9595L38.9597 40.3737ZM34.2089 35.623L38.9597 40.3737L40.3739 38.9595L35.6231 34.2088L34.2089 35.623Z" fill="#008CEF"/>
<path d="M16.7433 30.3088L17.7168 30.0804L16.7433 30.3088ZM16.7433 23.2348L17.7168 23.4632L16.7433 23.2348ZM36.8016 23.2348L37.7752 23.0065L36.8016 23.2348ZM36.8016 30.3088L35.8281 30.0804L36.8016 30.3088ZM30.3094 36.801L30.081 35.8274L30.3094 36.801ZM23.2355 36.801L23.0071 37.7746L23.2355 36.801ZM23.2355 16.7426L23.0071 15.769L23.2355 16.7426ZM30.3094 16.7426L30.5378 15.769L30.3094 16.7426ZM17.7168 30.0804C17.2064 27.9042 17.2064 25.6394 17.7168 23.4632L15.7697 23.0065C15.1888 25.4831 15.1887 28.0605 15.7697 30.5372L17.7168 30.0804ZM35.828 23.4632C36.3385 25.6394 36.3385 27.9042 35.8281 30.0804L37.7752 30.5371C38.3561 28.0605 38.3561 25.4831 37.7752 23.0065L35.828 23.4632ZM30.081 35.8274C27.9048 36.3379 25.64 36.3379 23.4638 35.8274L23.0071 37.7746C25.4837 38.3555 28.0612 38.3555 30.5378 37.7746L30.081 35.8274ZM23.4638 17.7162C25.64 17.2057 27.9048 17.2057 30.081 17.7162L30.5378 15.769C28.0612 15.1881 25.4837 15.1881 23.0071 15.769L23.4638 17.7162ZM23.4638 35.8274C20.6123 35.1585 18.3857 32.932 17.7168 30.0804L15.7697 30.5372C16.612 34.1283 19.416 36.9322 23.0071 37.7746L23.4638 35.8274ZM30.5378 37.7746C34.1289 36.9322 36.9328 34.1282 37.7752 30.5371L35.8281 30.0804C35.1592 32.932 32.9326 35.1585 30.081 35.8274L30.5378 37.7746ZM30.081 17.7162C32.9326 18.3851 35.1592 20.6116 35.828 23.4632L37.7752 23.0065C36.9328 19.4154 34.1289 16.6114 30.5378 15.769L30.081 17.7162ZM23.0071 15.769C19.416 16.6114 16.612 19.4154 15.7697 23.0065L17.7168 23.4632C18.3857 20.6116 20.6123 18.3851 23.4638 17.7162L23.0071 15.769Z" fill="#008CEF"/>
<path d="M16.7433 30.3088L17.7168 30.0804L16.7433 30.3088ZM17.7168 23.4632C17.843 22.9255 17.5093 22.3874 16.9716 22.2612C16.4339 22.1351 15.8958 22.4688 15.7697 23.0065L17.7168 23.4632ZM36.8016 23.2348L37.7752 23.0065L36.8016 23.2348ZM36.8016 30.3088L35.8281 30.0804L36.8016 30.3088ZM30.3094 36.801L30.081 35.8274L30.3094 36.801ZM23.2355 36.801L23.0071 37.7746L23.2355 36.801ZM23.0071 15.769C22.4694 15.8952 22.1358 16.4333 22.2619 16.971C22.388 17.5087 22.9261 17.8423 23.4638 17.7162L23.0071 15.769ZM30.3094 16.7426L30.5378 15.769L30.3094 16.7426ZM17.7168 30.0804C17.2064 27.9042 17.2064 25.6394 17.7168 23.4632L15.7697 23.0065C15.1888 25.4831 15.1887 28.0605 15.7697 30.5372L17.7168 30.0804ZM35.828 23.4632C36.3385 25.6394 36.3385 27.9042 35.8281 30.0804L37.7752 30.5371C38.3561 28.0605 38.3561 25.4831 37.7752 23.0065L35.828 23.4632ZM30.081 35.8274C27.9048 36.3379 25.64 36.3379 23.4638 35.8274L23.0071 37.7746C25.4837 38.3555 28.0612 38.3555 30.5378 37.7746L30.081 35.8274ZM23.4638 17.7162C25.64 17.2057 27.9048 17.2057 30.081 17.7162L30.5378 15.769C28.0612 15.1881 25.4837 15.1881 23.0071 15.769L23.4638 17.7162ZM23.4638 35.8274C20.6123 35.1585 18.3857 32.932 17.7168 30.0804L15.7697 30.5372C16.612 34.1283 19.416 36.9322 23.0071 37.7746L23.4638 35.8274ZM30.5378 37.7746C34.1289 36.9322 36.9328 34.1282 37.7752 30.5371L35.8281 30.0804C35.1592 32.932 32.9326 35.1585 30.081 35.8274L30.5378 37.7746ZM30.081 17.7162C32.9326 18.3851 35.1592 20.6116 35.828 23.4632L37.7752 23.0065C36.9328 19.4154 34.1289 16.6114 30.5378 15.769L30.081 17.7162Z" fill="#0063BF"/>
</svg>
