<svg width="56" height="56" viewBox="0 0 56 56" fill="none" xmlns="http://www.w3.org/2000/svg">
<rect width="56" height="56" rx="28" fill="#E6F6FE"/>
<path d="M36.4007 36.4737H39.6673M25.6271 28.0572H39.6673M29.0389 19.6405L16.334 19.6405M39.6673 19.6405H36.4007M16.334 36.4737H29.0389" stroke="#0063BF" stroke-width="2" stroke-linecap="round"/>
<path d="M35.6228 36.5556C35.6228 38.2738 34.2299 39.6667 32.5117 39.6667C30.7935 39.6667 29.4006 38.2738 29.4006 36.5556C29.4006 34.8374 30.7935 33.4445 32.5117 33.4445C34.2299 33.4445 35.6228 34.8374 35.6228 36.5556Z" stroke="#008CEF" stroke-width="2" stroke-linecap="round"/>
<path d="M24.7339 28C24.7339 29.7183 23.341 31.1112 21.6228 31.1112C19.9046 31.1112 18.5117 29.7183 18.5117 28C18.5117 26.2818 19.9046 24.8889 21.6228 24.8889C23.341 24.8889 24.7339 26.2818 24.7339 28Z" stroke="#008CEF" stroke-width="2" stroke-linecap="round"/>
<path d="M35.6228 19.4445C35.6228 21.1627 34.2299 22.5556 32.5117 22.5556C30.7935 22.5556 29.4006 21.1627 29.4006 19.4445C29.4006 17.7263 30.7935 16.3334 32.5117 16.3334C34.2299 16.3334 35.6228 17.7263 35.6228 19.4445Z" stroke="#008CEF" stroke-width="2" stroke-linecap="round"/>
</svg>
