<svg width="56" height="56" viewBox="0 0 56 56" fill="none" xmlns="http://www.w3.org/2000/svg">
<rect width="56" height="56" rx="28" fill="#E6F6FE"/>
<path d="M16.7914 31.9532L15.8178 32.1816L16.7914 31.9532ZM16.7914 24.0469L15.8178 23.8185L16.7914 24.0469ZM39.2099 24.0469L38.2363 24.2753L39.2099 24.0469ZM39.2099 31.9532L38.2363 31.7248L39.2099 31.9532ZM31.9538 39.2093L31.7254 38.2357L31.9538 39.2093ZM24.0475 39.2093L23.8191 40.1829L24.0475 39.2093ZM24.0475 16.7908L23.8191 15.8172L24.0475 16.7908ZM31.9538 16.7908L31.7254 17.7644L31.9538 16.7908ZM17.765 31.7248C17.1903 29.2749 17.1903 26.7252 17.765 24.2753L15.8178 23.8185C15.1727 26.5689 15.1727 29.4312 15.8178 32.1816L17.765 31.7248ZM38.2363 24.2753C38.811 26.7252 38.811 29.2749 38.2363 31.7248L40.1835 32.1816C40.8286 29.4312 40.8286 26.5689 40.1835 23.8185L38.2363 24.2753ZM31.7254 38.2357C29.2755 38.8104 26.7258 38.8104 24.2759 38.2357L23.8191 40.1829C26.5695 40.828 29.4318 40.828 32.1822 40.1829L31.7254 38.2357ZM24.2759 17.7644C26.7258 17.1897 29.2755 17.1897 31.7254 17.7644L32.1822 15.8172C29.4318 15.1721 26.5695 15.1721 23.8191 15.8172L24.2759 17.7644ZM24.2759 38.2357C21.0453 37.4779 18.5228 34.9554 17.765 31.7248L15.8178 32.1816C16.7491 36.1517 19.849 39.2516 23.8191 40.1829L24.2759 38.2357ZM32.1822 40.1829C36.1523 39.2516 39.2522 36.1517 40.1835 32.1816L38.2363 31.7248C37.4785 34.9554 34.956 37.4779 31.7254 38.2357L32.1822 40.1829ZM31.7254 17.7644C34.956 18.5222 37.4785 21.0447 38.2363 24.2753L40.1835 23.8185C39.2522 19.8484 36.1523 16.7485 32.1822 15.8172L31.7254 17.7644ZM23.8191 15.8172C19.849 16.7485 16.7491 19.8484 15.8178 23.8185L17.765 24.2753C18.5228 21.0447 21.0453 18.5222 24.2759 17.7644L23.8191 15.8172Z" fill="#0063BF"/>
<path d="M22.9551 32.0455C22.9551 32.5978 23.4028 33.0455 23.9551 33.0455C24.5074 33.0455 24.9551 32.5978 24.9551 32.0455H22.9551ZM24.9551 26.6515C24.9551 26.0992 24.5074 25.6515 23.9551 25.6515C23.4028 25.6515 22.9551 26.0992 22.9551 26.6515H24.9551ZM31.0461 32.0455C31.0461 32.5978 31.4938 33.0455 32.0461 33.0455C32.5984 33.0455 33.0461 32.5978 33.0461 32.0455H31.0461ZM33.0461 28C33.0461 27.4478 32.5984 27 32.0461 27C31.4938 27 31.0461 27.4478 31.0461 28H33.0461ZM27.0006 30.697C27.0006 31.2493 27.4483 31.697 28.0006 31.697C28.5529 31.697 29.0006 31.2493 29.0006 30.697H27.0006ZM29.0006 23.9545C29.0006 23.4022 28.5529 22.9545 28.0006 22.9545C27.4483 22.9545 27.0006 23.4022 27.0006 23.9545H29.0006ZM24.9551 32.0455V26.6515H22.9551V32.0455H24.9551ZM33.0461 32.0455V28H31.0461V32.0455H33.0461ZM29.0006 30.697V23.9545H27.0006V30.697H29.0006Z" fill="#008CEF"/>
</svg>
