<svg width="56" height="56" viewBox="0 0 56 56" fill="none" xmlns="http://www.w3.org/2000/svg">
<rect width="56" height="56" rx="28" fill="#E6F6FE"/>
<path d="M16.7914 24.0469C17.6359 20.4465 20.4471 17.6353 24.0475 16.7908C26.6476 16.1809 29.3537 16.1809 31.9538 16.7908C35.5542 17.6353 38.3654 20.4465 39.2099 24.0469C39.8198 26.647 39.8198 29.353 39.2099 31.9532C38.3654 35.5535 35.5542 38.3647 31.9538 39.2093C29.3537 39.8192 26.6477 39.8192 24.0475 39.2093C20.4471 38.3647 17.636 35.5535 16.7914 31.9532C16.1815 29.353 16.1815 26.647 16.7914 24.0469Z" stroke="#008CEF" stroke-width="2"/>
<path d="M16.7914 24.0469C16.1815 26.647 16.1815 29.353 16.7914 31.9532C17.636 35.5535 20.4471 38.3647 24.0475 39.2093C26.6477 39.8192 29.3537 39.8192 31.9538 39.2093C35.5542 38.3647 38.3654 35.5535 39.2099 31.9532C39.8198 29.353 39.8198 26.647 39.2099 24.0469C38.3654 20.4465 35.5542 17.6353 31.9538 16.7908" stroke="#0063BF" stroke-width="2" stroke-linecap="round"/>
<path d="M22.6407 23.9217C22.2502 23.5311 21.617 23.5311 21.2265 23.9217C20.836 24.3122 20.836 24.9454 21.2265 25.3359L22.6407 23.9217ZM23.2821 25.9773L22.575 26.6844C22.7625 26.8719 23.0169 26.9773 23.2821 26.9773C23.5473 26.9773 23.8017 26.8719 23.9892 26.6844L23.2821 25.9773ZM26.6862 23.9874C27.0767 23.5969 27.0767 22.9637 26.6862 22.5732C26.2957 22.1826 25.6625 22.1826 25.272 22.5732L26.6862 23.9874ZM29.3504 24.303C28.7981 24.303 28.3504 24.7507 28.3504 25.303C28.3504 25.8553 28.7981 26.303 29.3504 26.303V24.303ZM34.0701 26.303C34.6224 26.303 35.0701 25.8553 35.0701 25.303C35.0701 24.7507 34.6224 24.303 34.0701 24.303V26.303ZM22.6407 30.6642C22.2502 30.2737 21.617 30.2737 21.2265 30.6642C20.836 31.0547 20.836 31.6879 21.2265 32.0784L22.6407 30.6642ZM23.2821 32.7198L22.575 33.4269C22.9655 33.8174 23.5987 33.8174 23.9892 33.4269L23.2821 32.7198ZM26.6862 30.7299C27.0767 30.3394 27.0767 29.7062 26.6862 29.3157C26.2957 28.9252 25.6625 28.9252 25.272 29.3157L26.6862 30.7299ZM29.3504 31.0455C28.7981 31.0455 28.3504 31.4932 28.3504 32.0455C28.3504 32.5978 28.7981 33.0455 29.3504 33.0455V31.0455ZM34.0701 33.0455C34.6224 33.0455 35.0701 32.5978 35.0701 32.0455C35.0701 31.4932 34.6224 31.0455 34.0701 31.0455V33.0455ZM21.2265 25.3359L22.575 26.6844L23.9892 25.2702L22.6407 23.9217L21.2265 25.3359ZM23.9892 26.6844L26.6862 23.9874L25.272 22.5732L22.575 25.2702L23.9892 26.6844ZM29.3504 26.303H34.0701V24.303H29.3504V26.303ZM21.2265 32.0784L22.575 33.4269L23.9892 32.0127L22.6407 30.6642L21.2265 32.0784ZM23.9892 33.4269L26.6862 30.7299L25.272 29.3157L22.575 32.0127L23.9892 33.4269ZM29.3504 33.0455H34.0701V31.0455H29.3504V33.0455Z" fill="#008CEF"/>
</svg>
