<svg width="56" height="56" viewBox="0 0 56 56" fill="none" xmlns="http://www.w3.org/2000/svg">
<rect width="56" height="56" rx="28" fill="#E6F6FE"/>
<path d="M28.4083 37.7095L27.477 37.3452L28.4083 37.7095ZM17.3442 30.7712L18.3188 30.5472L17.3442 30.7712ZM17.3398 24.4047L16.3652 24.1806L17.3398 24.4047ZM38.6923 24.6911L39.6669 24.4671L39.6669 24.4671L38.6923 24.6911ZM38.6923 30.4657L37.7177 30.2417L38.6923 30.4657ZM24.5216 39.4377L24.1285 40.3572L24.1285 40.3572L24.5216 39.4377ZM25.0059 16.6852L25.2387 17.6577V17.6577L25.0059 16.6852ZM30.9604 16.6852L30.7276 17.6577H30.7276L30.9604 16.6852ZM24.3684 39.3722L24.7615 38.4527H24.7615L24.3684 39.3722ZM31.4545 16.8035L31.6873 15.8309L31.4545 16.8035ZM38.5772 24.1901L37.6026 24.4141V24.4141L38.5772 24.1901ZM24.7168 16.7544L24.484 15.7819L24.484 15.7819L24.7168 16.7544ZM24.9496 17.7269L25.2387 17.6577L24.7731 15.7127L24.484 15.7819L24.9496 17.7269ZM30.7276 17.6577L31.2217 17.776L31.6873 15.8309L31.1932 15.7127L30.7276 17.6577ZM24.9147 38.5182L24.7615 38.4527L23.9753 40.2917L24.1285 40.3572L24.9147 38.5182ZM37.6026 24.4141L37.7177 24.9151L39.6669 24.4671L39.5517 23.9661L37.6026 24.4141ZM30.8166 35.9792H29.4408V37.9792H30.8166V35.9792ZM29.4408 35.9792C28.5492 35.9792 27.7882 36.5496 27.477 37.3452L29.3396 38.0738C29.3718 37.9913 29.4287 37.9792 29.4408 37.9792V35.9792ZM18.3188 30.5472C17.8729 28.6074 17.8692 26.5658 18.3144 24.6287L16.3652 24.1806C15.8516 26.4153 15.8566 28.7633 16.3696 30.9952L18.3188 30.5472ZM37.7177 24.9151C38.12 26.6653 38.12 28.4915 37.7177 30.2417L39.6669 30.6897C40.137 28.6447 40.137 26.5121 39.6669 24.4671L37.7177 24.9151ZM24.1285 40.3572C26.2077 41.2461 28.526 40.1539 29.3396 38.0738L27.477 37.3452C27.0427 38.4557 25.8769 38.9295 24.9147 38.5182L24.1285 40.3572ZM25.2387 17.6577C27.0454 17.2253 28.9209 17.2253 30.7276 17.6577L31.1932 15.7127C29.0805 15.2069 26.8859 15.2069 24.7731 15.7127L25.2387 17.6577ZM24.7615 38.4527C21.5578 37.083 19.1419 34.1281 18.3188 30.5472L16.3696 30.9952C17.3276 35.1629 20.1508 38.6566 23.9753 40.2917L24.7615 38.4527ZM37.7177 30.2417C36.9366 33.64 34.0614 35.9792 30.8166 35.9792V37.9792C35.056 37.9792 38.6914 34.9339 39.6669 30.6897L37.7177 30.2417ZM31.2217 17.776C34.3484 18.5245 36.8362 21.0799 37.6026 24.4141L39.5517 23.9661C38.6249 19.9339 35.5939 16.7661 31.6873 15.8309L31.2217 17.776ZM24.484 15.7819C20.4518 16.7471 17.3223 20.017 16.3652 24.1806L18.3144 24.6287C19.111 21.163 21.6973 18.5055 24.9496 17.7269L24.484 15.7819Z" fill="#0063BF"/>
<path d="M23.7188 23.1862C23.1665 23.1862 22.7188 23.6339 22.7188 24.1862C22.7188 24.7385 23.1665 25.1862 23.7188 25.1862V23.1862ZM31.5376 25.1862C32.0899 25.1862 32.5376 24.7385 32.5376 24.1862C32.5376 23.6339 32.0899 23.1862 31.5376 23.1862V25.1862ZM23.7188 27.6664C23.1665 27.6664 22.7188 28.1141 22.7188 28.6664C22.7188 29.2187 23.1665 29.6664 23.7188 29.6664V27.6664ZM28.6944 29.6664C29.2467 29.6664 29.6944 29.2187 29.6944 28.6664C29.6944 28.1141 29.2467 27.6664 28.6944 27.6664V29.6664ZM23.7188 25.1862H31.5376V23.1862H23.7188V25.1862ZM23.7188 29.6664H28.6944V27.6664H23.7188V29.6664Z" fill="#008CEF"/>
</svg>
