<svg fill="none" height="64" viewBox="0 0 64 64" width="64" xmlns="http://www.w3.org/2000/svg"><g stroke-width="2"><path d="m22.666 41.9758c0-2.6224 1.8897-4.8562 4.4578-5.2695 3.2299-.5198 6.5212-.5198 9.7511 0 2.5681.4133 4.4578 2.6471 4.4578 5.2695v.5806c0 1.5337-1.233 2.777-2.7539 2.777h-13.1589c-1.5209 0-2.7539-1.2433-2.7539-2.777z" stroke="#0095ff"/><path d="m37.4438 24.1569c0 3.0322-2.4376 5.4902-5.4445 5.4902-3.0068 0-5.4444-2.458-5.4444-5.4902 0-3.0321 2.4376-5.4902 5.4444-5.4902 3.0069 0 5.4445 2.4581 5.4445 5.4902z" stroke="#0095ff"/><path d="m56 18.6667c0-5.8911-5.9695-10.6667-13.3333-10.6667m-34.6667 34.6667c0 7.3638 4.7756 13.3333 10.6667 13.3333m0-48c-5.8911 0-10.6667 4.7756-10.6667 10.6667m34.6667 37.3333c7.3638 0 13.3333-5.9695 13.3333-13.3333" stroke="#ace3ff" stroke-linecap="round"/></g></svg>