<svg width="64" height="64" viewBox="0 0 64 64" fill="none" xmlns="http://www.w3.org/2000/svg">
<path d="M32.8487 8.0559C35.4225 8.39644 37.3459 10.591 37.3459 13.1873V16.875C41.9027 18.4856 45.5144 22.0972 47.125 26.6541H50.8127C53.4089 26.6541 55.6036 28.5775 55.9441 31.1514C56.0186 31.7147 56.0186 32.2854 55.9441 32.8487C55.6036 35.4225 53.409 37.3459 50.8127 37.3459H47.125C45.5144 41.9028 41.9027 45.5144 37.3459 47.125V50.8127C37.3459 53.409 35.4225 55.6036 32.8487 55.9441C32.2854 56.0186 31.7147 56.0186 31.1514 55.9441C28.5775 55.6036 26.6541 53.409 26.6541 50.8127V47.125C22.0973 45.5144 18.4856 41.9028 16.875 37.3459H13.1873C10.591 37.3459 8.39644 35.4225 8.0559 32.8487C7.98137 32.2854 7.98137 31.7147 8.0559 31.1514C8.39644 28.5775 10.591 26.6541 13.1873 26.6541H16.875C18.4856 22.0972 22.0973 18.4856 26.6541 16.875V13.1873C26.6541 10.591 28.5775 8.39644 31.1514 8.0559C31.7147 7.98137 32.2854 7.98137 32.8487 8.0559Z" stroke="#ACE3FF" stroke-width="2" stroke-linecap="round" stroke-linejoin="round"/>
<path d="M25.334 31.9999C25.334 28.318 28.3188 25.3333 32.0007 25.3333C35.6825 25.3333 38.6673 28.318 38.6673 31.9999C38.6673 35.6818 35.6825 38.6666 32.0007 38.6666C28.3188 38.6666 25.334 35.6818 25.334 31.9999Z" stroke="#008CEF" stroke-width="2"/>
</svg>
