<svg width="64" height="64" viewBox="0 0 64 64" fill="none" xmlns="http://www.w3.org/2000/svg">
<path d="M8.941 23.8678C10.6783 16.4614 16.4614 10.6783 23.8678 8.941C29.2167 7.68633 34.7833 7.68633 40.1322 8.941C47.5386 10.6783 53.3217 16.4614 55.059 23.8678C56.3137 29.2167 56.3137 34.7833 55.059 40.1322C53.3217 47.5386 47.5386 53.3217 40.1322 55.059C34.7833 56.3137 29.2167 56.3137 23.8678 55.059C16.4614 53.3217 10.6783 47.5387 8.94101 40.1322C7.68633 34.7833 7.68633 29.2167 8.941 23.8678Z" stroke="#008CEF" stroke-width="2"/>
<path d="M8.941 23.8678C7.68633 29.2167 7.68633 34.7833 8.94101 40.1322C10.6783 47.5387 16.4614 53.3217 23.8678 55.059C29.2167 56.3137 34.7833 56.3137 40.1322 55.059C47.5387 53.3217 53.3217 47.5386 55.059 40.1322C56.3137 34.7833 56.3137 29.2167 55.059 23.8678C53.3217 16.4614 47.5386 10.6783 40.1322 8.941" stroke="#ACE3FF" stroke-width="2" stroke-linecap="round"/>
<path d="M20.2247 24.3578C19.8342 23.9673 19.201 23.9673 18.8105 24.3578C18.4199 24.7484 18.4199 25.3815 18.8105 25.7721L20.2247 24.3578ZM22.2916 27.839L21.5845 28.5461C21.7721 28.7337 22.0264 28.839 22.2916 28.839C22.5569 28.839 22.8112 28.7337 22.9987 28.5461L22.2916 27.839ZM28.5469 22.998C28.9374 22.6075 28.9374 21.9743 28.5469 21.5838C28.1563 21.1933 27.5232 21.1933 27.1327 21.5838L28.5469 22.998ZM34.7749 25.452C34.2226 25.452 33.7749 25.8997 33.7749 26.452C33.7749 27.0043 34.2226 27.452 34.7749 27.452V25.452ZM44.4841 27.452C45.0364 27.452 45.4841 27.0043 45.4841 26.452C45.4841 25.8997 45.0364 25.452 44.4841 25.452V27.452ZM20.2247 38.2282C19.8342 37.8376 19.201 37.8376 18.8105 38.2282C18.4199 38.6187 18.4199 39.2518 18.8105 39.6424L20.2247 38.2282ZM22.2916 41.7093L21.5845 42.4164C21.9751 42.8069 22.6082 42.8069 22.9987 42.4164L22.2916 41.7093ZM28.5469 36.8683C28.9374 36.4778 28.9374 35.8446 28.5469 35.4541C28.1563 35.0636 27.5232 35.0636 27.1327 35.4541L28.5469 36.8683ZM34.7749 39.3223C34.2226 39.3223 33.7749 39.77 33.7749 40.3223C33.7749 40.8746 34.2226 41.3223 34.7749 41.3223V39.3223ZM44.4841 41.3223C45.0364 41.3223 45.4841 40.8746 45.4841 40.3223C45.4841 39.77 45.0364 39.3223 44.4841 39.3223V41.3223ZM18.8105 25.7721L21.5845 28.5461L22.9987 27.1319L20.2247 24.3578L18.8105 25.7721ZM22.9987 28.5461L28.5469 22.998L27.1327 21.5838L21.5845 27.1319L22.9987 28.5461ZM34.7749 27.452H44.4841V25.452H34.7749V27.452ZM18.8105 39.6424L21.5845 42.4164L22.9987 41.0022L20.2247 38.2282L18.8105 39.6424ZM22.9987 42.4164L28.5469 36.8683L27.1327 35.4541L21.5845 41.0022L22.9987 42.4164ZM34.7749 41.3223H44.4841V39.3223H34.7749V41.3223Z" fill="#008CEF"/>
</svg>
