<svg width="64" height="64" fill="none" xmlns="http://www.w3.org/2000/svg"><path d="M15.03 53.333a24.562 24.562 0 01-6.57-12.506 24.828 24.828 0 011.366-14.112 24.337 24.337 0 018.84-10.962A23.704 23.704 0 0132 11.636c4.747 0 9.387 1.433 13.334 4.117a24.338 24.338 0 018.84 10.962 24.827 24.827 0 011.365 14.112 24.563 24.563 0 01-6.568 12.506" stroke="#ACE3FF" stroke-width="2" stroke-linecap="round"/><path d="M20.686 48a15.51 15.51 0 01-4.379-7.998 15.29 15.29 0 01.91-9.026 15.709 15.709 0 015.894-7.01A16.278 16.278 0 0132 21.333c3.164 0 6.258.917 8.89 2.633a15.708 15.708 0 015.892 7.01 15.278 15.278 0 01.91 9.026A15.51 15.51 0 0143.315 48" stroke="#008CEF" stroke-width="2" stroke-linecap="round"/><path d="M26.343 42.667a7.755 7.755 0 01-2.19-4 7.639 7.639 0 01.456-4.512 7.854 7.854 0 012.946-3.505A8.138 8.138 0 0132 29.334c1.582 0 3.129.458 4.445 1.316a7.854 7.854 0 012.946 3.505 7.639 7.639 0 01.455 4.513 7.755 7.755 0 01-2.19 3.999" stroke="#008CEF" stroke-width="2" stroke-linecap="round"/></svg>