<svg width="64" height="64" fill="none" xmlns="http://www.w3.org/2000/svg"><path d="M44.962 40.996a3 3 0 01.398.164l4.49 2.23c3.439 1.707 7.484-.776 7.484-4.594V26.16c0-4.034-4.467-6.494-7.912-4.355l-3.961 2.459a3.04 3.04 0 00-.54.426" stroke="#ACE3FF" stroke-width="2"/><path d="M44.437 40.822a39.904 39.904 0 00.339-15.987M7.688 41.178l.164.73c.996 4.425 4.428 7.908 8.86 8.992a39.014 39.014 0 0018.465-.017c4.376-1.07 7.854-4.466 8.955-8.807l.067-.262a39.906 39.906 0 000-19.628l-.067-.262c-1.101-4.341-4.579-7.737-8.955-8.807a39.015 39.015 0 00-18.465-.017c-4.432 1.084-7.864 4.567-8.86 8.991l-.164.73a41.805 41.805 0 000 18.357z" stroke="#008CEF" stroke-width="2"/></svg>