<svg width="64" height="64" fill="none" xmlns="http://www.w3.org/2000/svg"><path d="M36.671 12.515a4.503 4.503 0 00-3.828-4.452 5.628 5.628 0 00-1.686 0 4.503 4.503 0 00-3.828 4.452v3.149a16.88 16.88 0 00-3.576 1.482l-2.227-2.227a4.503 4.503 0 00-5.856-.44 5.632 5.632 0 00-1.192 1.191 4.503 4.503 0 00.441 5.856l2.227 2.227a16.885 16.885 0 00-1.482 3.576h-3.149a4.503 4.503 0 00-4.452 3.828 5.628 5.628 0 000 1.686 4.503 4.503 0 004.452 3.828h3.149a16.94 16.94 0 001.482 3.576l-2.227 2.227a4.503 4.503 0 00-.44 5.856 5.63 5.63 0 001.191 1.192 4.503 4.503 0 005.856-.441l2.227-2.227a16.88 16.88 0 003.576 1.482v3.149a4.503 4.503 0 003.828 4.452 5.624 5.624 0 001.686 0 4.503 4.503 0 003.828-4.452v-3.149a16.88 16.88 0 003.576-1.482l2.227 2.227a4.503 4.503 0 005.856.44 5.627 5.627 0 001.192-1.191 4.503 4.503 0 00-.441-5.855l-2.227-2.228a16.88 16.88 0 001.482-3.576h3.149a4.503 4.503 0 004.452-3.828 5.624 5.624 0 000-1.686 4.503 4.503 0 00-4.453-3.828h-3.148a16.88 16.88 0 00-1.482-3.576l2.227-2.227a4.503 4.503 0 00.44-5.856 5.63 5.63 0 00-1.191-1.192 4.503 4.503 0 00-5.855.441l-2.228 2.227a16.885 16.885 0 00-3.576-1.482v-3.149z" stroke="#ACE3FF" stroke-width="2" stroke-linecap="round" stroke-linejoin="round"/><path d="M48.33 49.522a4.503 4.503 0 01-5.855-.441l-2.228-2.227a16.88 16.88 0 01-3.576 1.482v3.149a4.503 4.503 0 01-3.828 4.452 5.624 5.624 0 01-1.686 0 4.503 4.503 0 01-3.828-4.452v-3.149a16.88 16.88 0 01-3.576-1.482l-2.227 2.227a4.503 4.503 0 01-5.856.44 5.63 5.63 0 01-1.192-1.191 4.503 4.503 0 01.441-5.855l2.227-2.228a16.885 16.885 0 01-1.482-3.576h-3.149a4.503 4.503 0 01-4.452-3.828 5.628 5.628 0 010-1.686 4.503 4.503 0 014.452-3.828h3.149a16.94 16.94 0 011.482-3.576l-2.227-2.227a4.503 4.503 0 01-.44-5.856 5.632 5.632 0 011.191-1.192 4.503 4.503 0 015.856.441l2.227 2.227a16.88 16.88 0 013.576-1.482v-3.149a4.503 4.503 0 013.828-4.452 5.628 5.628 0 011.686 0 4.503 4.503 0 013.828 4.452v3.149a16.94 16.94 0 013.576 1.482l2.227-2.227a4.503 4.503 0 015.856-.44" stroke="#008CEF" stroke-width="2" stroke-linecap="round" stroke-linejoin="round"/><path d="M25.332 32a6.667 6.667 0 1113.333 0 6.667 6.667 0 01-13.333 0z" stroke="#0095FF" stroke-width="2"/></svg>