<svg width="64" height="64" fill="none" xmlns="http://www.w3.org/2000/svg"><path d="M44.962 40.996a3 3 0 01.398.164l4.49 2.23c3.439 1.708 7.484-.776 7.484-4.594V26.16c0-4.034-4.467-6.493-7.912-4.355l-3.961 2.46a3.034 3.034 0 00-.54.425" stroke="#13CE66" stroke-width="2"/><path d="M44.435 40.822a39.9 39.9 0 00.339-15.987M7.686 41.178l.164.73c.996 4.425 4.428 7.908 8.86 8.992a39.015 39.015 0 0018.465-.017c4.377-1.07 7.854-4.466 8.955-8.807l.067-.262a39.906 39.906 0 000-19.628l-.067-.262c-1.101-4.341-4.579-7.737-8.955-8.807A39.015 39.015 0 0016.71 13.1c-4.432 1.084-7.864 4.567-8.86 8.991l-.164.73a41.805 41.805 0 000 18.357z" stroke="#ACE3FF" stroke-width="2"/></svg>