<svg width="64" height="64" fill="none" xmlns="http://www.w3.org/2000/svg"><path d="M8 49.155c0-5.34 3.88-9.887 9.152-10.729l.475-.076a40.438 40.438 0 0112.746 0l.475.076A10.864 10.864 0 0140 49.155a4.179 4.179 0 01-4.179 4.178H12.18A4.179 4.179 0 018 49.155zM33.333 20a9.333 9.333 0 11-18.666 0 9.333 9.333 0 1118.666 0z" stroke="#ACE3FF" stroke-width="2"/><path d="M40 29.333a9.333 9.333 0 000-18.667m6.373 42.667h5.448A4.179 4.179 0 0056 49.155c0-5.34-3.88-9.887-9.152-10.729v0a6.066 6.066 0 00-.956-.076H43.31" stroke="#13CE66" stroke-width="2" stroke-linecap="round"/></svg>