<?xml version="1.0" encoding="utf-8"?><svg xmlns="http://www.w3.org/2000/svg" xmlns:xlink="http://www.w3.org/1999/xlink"><symbol fill="none" viewBox="0 0 16 16" id="info-icon" xmlns="http://www.w3.org/2000/svg"><g fill="currentColor"><path d="M7.332 6.889c0-.307.249-.556.556-.556h1.11c.308 0 .556.25.556.556v2.778h1.111a.556.556 0 010 1.11H7.332a.556.556 0 110-1.11h1.111V7.444h-.555a.556.556 0 01-.556-.555zM8.72 5.778a.833.833 0 100-1.667.833.833 0 000 1.667z"/><path clip-rule="evenodd" d="M2.332 8a6.667 6.667 0 1113.333 0A6.667 6.667 0 012.332 8zm6.667-5.556a5.556 5.556 0 100 11.112 5.556 5.556 0 000-11.112z" fill-rule="evenodd"/></g></symbol></svg>