<svg width="72" height="72" fill="none" xmlns="http://www.w3.org/2000/svg"><rect width="72" height="72" rx="36" fill="#E6F6FE"/><path d="M36.524 48.484l-.93-.365.93.365zM22.3 39.563l.975-.224-.975.224zm-.005-8.186l-.975-.224.975.224zm27.453.369l.974-.224-.974.224zm0 7.424l-.975-.224.975.224zm-18.22 11.535l-.393.92.393-.92zm.623-29.253l.233.973-.233-.973zm7.656 0l-.233.973.233-.973zm-8.476 29.17l.393-.92-.393.92zm9.11-29.018l.234-.972-.233.972zm9.159 9.498l-.975.224.975-.224zm-17.82-9.56l-.234-.973.233.972zm.232.972l.372-.09-.466-1.944-.372.089.466 1.945zm7.562-.09l.635.153.466-1.945-.636-.152-.465 1.945zM31.92 49.787l-.197-.084-.786 1.839.197.084.786-1.839zm16.704-18.46l.148.644 1.95-.448-.149-.645-1.949.449zm-9.003 15.219h-1.77v2h1.77v-2zm-1.77 0c-1.02 0-1.898.653-2.258 1.574l1.863.729c.081-.208.255-.303.396-.303v-2zM23.274 39.34a17.348 17.348 0 01-.006-7.738l-1.95-.448a19.344 19.344 0 00.007 8.634l1.949-.448zm25.498-7.37a15.59 15.59 0 010 6.977l1.95.448a17.592 17.592 0 000-7.872l-1.95.448zM31.134 51.626c2.514 1.075 5.33-.241 6.322-2.777l-1.863-.729c-.613 1.567-2.276 2.264-3.673 1.667l-.786 1.839zm1.249-29.2a15.422 15.422 0 017.19 0l.465-1.945a17.424 17.424 0 00-8.12 0l.465 1.945zm-.66 27.277c-4.207-1.8-7.372-5.675-8.45-10.363l-1.948.448c1.212 5.275 4.784 9.69 9.612 11.754l.786-1.84zm17.05-10.756c-1.033 4.49-4.838 7.599-9.152 7.599v2c5.308 0 9.874-3.815 11.1-9.15l-1.949-.449zm-8.565-16.37c4.132.99 7.408 4.363 8.416 8.75l1.95-.449c-1.17-5.084-4.989-9.07-9.9-10.245l-.466 1.945zm-8.663-2.007c-5.073 1.214-9.019 5.33-10.226 10.584l1.95.448c1.046-4.555 4.449-8.06 8.742-9.087l-.466-1.945z" fill="#0063BF"/><path d="M30.494 30.096a1 1 0 000 2v-2zm10.053 2a1 1 0 100-2v2zm-10.053 3.76a1 1 0 000 2v-2zm6.397 2a1 1 0 000-2v2zm-6.397-5.76h10.053v-2H30.494v2zm0 5.76h6.397v-2h-6.397v2z" fill="#008CEF"/></svg>