<svg width="72" height="72" fill="none" xmlns="http://www.w3.org/2000/svg"><rect width="72" height="72" rx="36" fill="#E6F6FE"/><path d="M21.588 41.083l-.973.228.973-.228zm0-10.166l-.973-.228.973.228zm28.824 0l-.974.229.974-.229zm0 10.166l-.974-.229.974.229zm-9.33 9.329l-.228-.974.229.974zm-10.165 0l-.228.974.228-.974zm0-28.824l-.228-.973.228.973zm10.166 0l-.229.974.229-.974zM22.562 40.854a21.257 21.257 0 010-9.708l-1.947-.457a23.254 23.254 0 000 10.622l1.947-.457zm26.876-9.708a21.257 21.257 0 010 9.708l1.947.457a23.24 23.24 0 000-10.622l-1.947.457zm-8.584 18.292a21.257 21.257 0 01-9.708 0l-.457 1.947c3.493.82 7.129.82 10.622 0l-.457-1.947zm-9.708-26.876a21.257 21.257 0 019.708 0l.457-1.947a23.254 23.254 0 00-10.622 0l.457 1.947zm0 26.876a11.52 11.52 0 01-8.584-8.584l-1.947.457a13.519 13.519 0 0010.074 10.075l.457-1.948zm10.165 1.947a13.52 13.52 0 0010.075-10.074l-1.948-.457a11.52 11.52 0 01-8.584 8.584l.457 1.947zm-.457-28.823a11.52 11.52 0 018.584 8.584l1.947-.457a13.519 13.519 0 00-10.074-10.074l-.457 1.947zM30.69 20.615a13.519 13.519 0 00-10.074 10.074l1.947.457a11.52 11.52 0 018.584-8.584l-.457-1.947z" fill="#0063BF"/><path d="M29.799 41.201a1 1 0 102 0h-2zm2-6.935a1 1 0 10-2 0h2zm8.403 6.935a1 1 0 102 0h-2zm2-5.201a1 1 0 00-2 0h2zM35 39.468a1 1 0 102 0h-2zm2-8.67a1 1 0 10-2 0h2zm-5.2 10.404v-6.935h-2v6.935h2zm10.403 0V36h-2v5.201h2zM37 39.468v-8.67h-2v8.67h2z" fill="#008CEF"/></svg>