<svg width="72" height="72" fill="none" xmlns="http://www.w3.org/2000/svg"><rect width="72" height="72" rx="36" fill="#E6F6FE"/><path d="M50.294 51.707a1 1 0 001.414-1.414l-1.414 1.414zm-6.108-6.108l6.108 6.108 1.414-1.414-6.108-6.108-1.415 1.414z" fill="#008CEF"/><path d="M21.526 38.968l.974-.228-.974.228zm0-9.095l.974.229-.974-.229zm25.79 0l.973-.228-.974.228zm0 9.095l-.974-.228.974.228zm-8.348 8.347l-.228-.973.228.974zm-9.095 0l-.228.974.228-.974zm0-25.789l-.228-.973.228.973zm9.095 0l.229-.973-.229.973zM22.5 38.74a18.913 18.913 0 010-8.638l-1.947-.457a20.914 20.914 0 000 9.552l1.947-.457zm23.842-8.638c.666 2.84.666 5.797 0 8.638l1.947.457a20.91 20.91 0 000-9.552l-1.947.457zm-7.602 16.24c-2.84.666-5.797.666-8.638 0l-.457 1.947a20.91 20.91 0 009.552 0l-.457-1.947zM30.102 22.5a18.912 18.912 0 018.638 0l.457-1.947a20.914 20.914 0 00-9.552 0l.457 1.947zm0 23.842A10.201 10.201 0 0122.5 38.74l-1.947.457a12.201 12.201 0 009.092 9.092l.457-1.947zm9.095 1.947a12.2 12.2 0 009.092-9.092l-1.947-.457a10.201 10.201 0 01-7.602 7.602l.457 1.947zM38.74 22.5a10.201 10.201 0 017.602 7.603l1.947-.457a12.201 12.201 0 00-9.092-9.092L38.74 22.5zm-9.095-1.946a12.201 12.201 0 00-9.092 9.092l1.947.457a10.201 10.201 0 017.602-7.602l-.457-1.947z" fill="#008CEF"/><path d="M21.526 38.968l.974-.228-.974.228zm.974-8.866a1 1 0 10-1.947-.457l1.947.457zm24.816-.229l.973-.228-.974.228zm0 9.095l-.974-.228.974.228zm-8.348 8.347l-.228-.973.228.974zm-9.095 0l-.228.974.228-.974zm-.228-26.762a1 1 0 00.457 1.947l-.457-1.947zm9.323.973l.229-.973-.229.973zM22.5 38.74a18.913 18.913 0 010-8.638l-1.947-.457a20.914 20.914 0 000 9.552l1.947-.457zm23.842-8.638c.666 2.84.666 5.797 0 8.638l1.947.457a20.91 20.91 0 000-9.552l-1.947.457zm-7.602 16.24c-2.84.666-5.797.666-8.638 0l-.457 1.947a20.91 20.91 0 009.552 0l-.457-1.947zM30.102 22.5a18.912 18.912 0 018.638 0l.457-1.947a20.914 20.914 0 00-9.552 0l.457 1.947zm0 23.842A10.201 10.201 0 0122.5 38.74l-1.947.457a12.201 12.201 0 009.092 9.092l.457-1.947zm9.095 1.947a12.2 12.2 0 009.092-9.092l-1.947-.457a10.201 10.201 0 01-7.602 7.602l.457 1.947zM38.74 22.5a10.201 10.201 0 017.602 7.603l1.947-.457a12.201 12.201 0 00-9.092-9.092L38.74 22.5z" fill="#0063BF"/></svg>