<svg width="72" height="72" fill="none" xmlns="http://www.w3.org/2000/svg"><rect width="72" height="72" rx="36" fill="#E6F6FE"/><path d="M31.016 45.84l.111-.995-1.196-.134.087 1.2.998-.072zm9.97 0l.997.072.087-1.201-1.196.134.111.994zm-.152.955l.971.24-.971-.24zm-.137.556l-.97-.239.97.239zm-3.523 3.51l.232.973-.232-.972zm-2.347 0l-.232.973.232-.972zm-3.523-3.51l.97-.239-.97.239zm-.137-.556l-.971.24.97-.24zm-.263.038c3.387.38 6.806.38 10.193 0l-.223-1.988a43.618 43.618 0 01-9.747 0l-.223 1.988zm10.901.201c.09-.369.15-.744.178-1.122l-1.995-.145a4.75 4.75 0 01-.125.79l1.942.477zm-.136.556l.136-.556-1.942-.477-.137.555 1.943.478zm-4.263 4.244a5.778 5.778 0 004.263-4.244l-1.943-.478a3.778 3.778 0 01-2.785 2.777l.465 1.945zm-2.811 0a6.041 6.041 0 002.811 0l-.465-1.945a4.04 4.04 0 01-1.881 0l-.465 1.945zm-4.263-4.244a5.778 5.778 0 004.263 4.244l.465-1.945a3.778 3.778 0 01-2.785-2.777l-1.943.478zm-.136-.556l.136.556 1.943-.478-.137-.555-1.942.477zm-.178-1.122c.028.378.087.753.178 1.122l1.942-.477a4.75 4.75 0 01-.125-.79l-1.995.145zM37 21a1 1 0 10-2 0h2zm-2 1.675a1 1 0 102 0h-2zM35 21v1.675h2V21h-2z" fill="#008CEF"/><path d="M26.046 30.388l.966.261-.966-.261zm6.885-7.218l-.309-.95.309.95zm-6.96 7.493l-.965-.261.966.261zm-.322 6.783l.986-.169-.986.169zm.038.219l-.986.169.986-.17zm.792 7.43l.2-.98-.2.98zm.613.125l-.2.98.2-.98zm17.816 0l.2.98-.2-.98zm.613-.125l-.2-.98.2.98zm.8-7.472l.985.169-.986-.17zm.04-.233l-.986-.168.985.168zm-.291-6.68l-.968.254.968-.254zm-.105-.396l.968-.254-.968.254zm-6.687-7.133l.314-.95-.314.95zm7.31 14.987l-.488.873.488-.873zm-21.141-.02l.479.878-.48-.877zm1.565-7.499a9.505 9.505 0 016.227-6.527l-.617-1.903a11.504 11.504 0 00-7.54 7.907l1.93.523zm-.075.276l.075-.276-1.93-.523-.076.276 1.93.523zm-.302 6.352a14.764 14.764 0 01.302-6.352l-1.93-.523a16.765 16.765 0 00-.343 7.212l1.97-.337zm.037.219l-.037-.219-1.971.337.037.22 1.971-.338zM24.5 41.434c0-1.04.576-1.944 1.425-2.407l-.957-1.756a4.737 4.737 0 00-2.468 4.163h2zm2.179 2.681a2.731 2.731 0 01-2.179-2.681h-2a4.731 4.731 0 003.78 4.641l.399-1.96zm.613.125l-.613-.125-.4 1.96.613.125.4-1.96zm17.416 0a43.621 43.621 0 01-17.416 0l-.4 1.96a45.62 45.62 0 0018.216 0l-.4-1.96zm.613-.125l-.613.125.4 1.96.612-.125-.399-1.96zm2.179-2.681a2.731 2.731 0 01-2.179 2.681l.4 1.96a4.731 4.731 0 003.779-4.641h-2zm-1.4-2.393a2.738 2.738 0 011.4 2.393h2c0-1.78-.978-3.33-2.423-4.139l-.977 1.746zm-.726-1.82l-.04.233 1.972.338.04-.233-1.971-.337zm-.272-6.257c.536 2.042.629 4.176.273 6.258l1.97.337c.405-2.362.3-4.784-.308-7.102l-1.935.507zm-.104-.396l.104.396 1.935-.507-.104-.397-1.935.508zm-6.033-6.438a9.242 9.242 0 016.033 6.438l1.935-.508a11.242 11.242 0 00-7.34-7.829l-.628 1.9zm-5.726-.008a9.238 9.238 0 015.726.008l.627-1.899a11.237 11.237 0 00-6.97-.012l.617 1.903zm13.838 13.173a.472.472 0 01.23.497l-1.972-.338a1.528 1.528 0 00.765 1.587l.977-1.746zm-22.376.539a.534.534 0 01.267-.563l.957 1.755c.528-.287.857-.89.747-1.53l-1.97.338z" fill="#0063BF"/></svg>