<svg width="72" height="72" fill="none" xmlns="http://www.w3.org/2000/svg"><rect width="72" height="72" rx="36" fill="#E6F6FE"/><path d="M21.588 30.917a12.52 12.52 0 019.33-9.329 22.258 22.258 0 0110.165 0 12.52 12.52 0 019.329 9.33 22.258 22.258 0 010 10.165 12.52 12.52 0 01-9.33 9.329 22.258 22.258 0 01-10.165 0 12.52 12.52 0 01-9.329-9.33 22.258 22.258 0 010-10.165z" stroke="#008CEF" stroke-width="2"/><path d="M21.588 30.917a22.258 22.258 0 000 10.166 12.52 12.52 0 009.33 9.329 22.26 22.26 0 0010.165 0 12.52 12.52 0 009.329-9.33 22.258 22.258 0 000-10.165 12.52 12.52 0 00-9.33-9.329" stroke="#0063BF" stroke-width="2" stroke-linecap="round"/><path d="M28.904 30.959a1 1 0 10-1.414 1.414l1.414-1.414zm1.027 2.44l-.707.707a1 1 0 001.414 0l-.707-.707zm4.175-2.76a1 1 0 10-1.415-1.414l1.415 1.414zm3.627.893a1 1 0 100 2v-2zm6.068 2a1 1 0 000-2v2zm-14.897 6.095a1 1 0 00-1.414 1.415l1.414-1.415zm1.027 2.441l-.707.707a1 1 0 001.414 0l-.707-.707zm4.175-2.76a1 1 0 10-1.415-1.414l1.415 1.414zm3.627.893a1 1 0 100 2v-2zm6.068 2a1 1 0 000-2v2zm-16.31-9.828l1.733 1.733 1.414-1.414-1.734-1.733-1.414 1.414zm3.147 1.733l3.468-3.467-1.415-1.414-3.467 3.467 1.414 1.414zm7.095-.574h6.068v-2h-6.068v2zm-10.243 7.51l1.734 1.733 1.414-1.414-1.734-1.734-1.414 1.415zm3.148 1.733l3.468-3.467-1.415-1.414-3.467 3.467 1.414 1.414zm7.095-.574h6.068v-2h-6.068v2z" fill="#008CEF"/></svg>