<svg width="64" height="64" fill="none" xmlns="http://www.w3.org/2000/svg"><path d="M48.028 8H15.97c-4.303 0-6.81 4.896-4.313 8.427L22.59 31.89a10.72 10.72 0 011.964 6.188v10.801c0 3.933 3.166 7.122 7.07 7.122 3.906 0 7.072-3.189 7.072-7.122V38.236c0-2.316.748-4.57 2.133-6.42l11.428-15.273C54.887 13.03 52.397 8 48.028 8z" stroke="#008CEF" stroke-width="2" stroke-linecap="round" stroke-linejoin="round"/><path d="M38.696 37.587c0-2.267.748-4.472 2.133-6.283L52.257 16.36c2.63-3.439.14-8.36-4.229-8.36H15.97c-4.303 0-6.81 4.791-4.313 8.246l10.933 15.13a10.336 10.336 0 011.964 6.055V48" stroke="#ACE3FF" stroke-width="2" stroke-linecap="round" stroke-linejoin="round"/></svg>