<svg width="64" height="64" fill="none" xmlns="http://www.w3.org/2000/svg"><path d="M8.941 40.132l-.974.229.974-.229zm0-16.264l-.974-.229.974.229zm46.118 0l-.974.228.974-.228zm0 16.264l-.974-.228.974.228zM40.132 55.06l-.228-.974.228.974zm-16.264 0l-.228.974.228-.974zm0-46.118l-.228-.974.228.974zm16.264 0l-.228.974.228-.974zM9.915 39.904a34.61 34.61 0 010-15.808l-1.948-.457a36.61 36.61 0 000 16.722l1.948-.457zm44.17-15.808a34.608 34.608 0 010 15.808l1.948.456a36.61 36.61 0 000-16.72l-1.948.456zm-14.181 29.99a34.608 34.608 0 01-15.808 0l-.456 1.947a36.61 36.61 0 0016.72 0l-.456-1.948zM24.096 9.914a34.61 34.61 0 0115.808 0l.457-1.948a36.61 36.61 0 00-16.721 0l.456 1.948zm0 44.17a19.03 19.03 0 01-14.181-14.18l-1.948.457A21.03 21.03 0 0023.64 56.033l.456-1.948zm16.265 1.948A21.03 21.03 0 0056.032 40.36l-1.948-.457a19.03 19.03 0 01-14.181 14.181l.456 1.948zm-.457-46.118a19.03 19.03 0 0114.181 14.181l1.948-.456A21.03 21.03 0 0040.36 7.967l-.457 1.948zM23.639 7.967A21.03 21.03 0 007.968 23.64l1.948.457a19.03 19.03 0 0114.18-14.182l-.456-1.948z" fill="#ACE3FF"/><path d="M22.678 40.322a1 1 0 102 0h-2zm2-11.096a1 1 0 10-2 0h2zm14.644 11.096a1 1 0 102 0h-2zm2-8.322a1 1 0 00-2 0h2zM31 37.548a1 1 0 002 0h-2zm2-13.87a1 1 0 10-2 0h2zm-8.322 16.644V29.226h-2v11.096h2zm16.644 0V32h-2v8.322h2zM33 37.548v-13.87h-2v13.87h2z" fill="#008CEF"/></svg>