<svg width="64" height="64" fill="none" xmlns="http://www.w3.org/2000/svg"><path d="M56 32H45.335m5.333 5.333V26.667" stroke="#008CEF" stroke-width="2" stroke-linecap="round"/><path d="M8 50.964c0-6.435 4.526-11.916 10.677-12.93l.555-.092a45.686 45.686 0 0114.87 0l.554.092c6.151 1.014 10.677 6.495 10.677 12.93 0 2.781-2.182 5.036-4.875 5.036H12.875C10.183 56 8 53.745 8 50.964z" stroke="#ACE3FF" stroke-width="2"/><path d="M37.555 18.5c0 5.799-4.875 10.5-10.889 10.5-6.014 0-10.889-4.701-10.889-10.5S20.653 8 26.667 8c6.013 0 10.888 4.701 10.888 10.5z" stroke="#0095FF" stroke-width="2"/></svg>