<svg width="64" height="64" fill="none" xmlns="http://www.w3.org/2000/svg"><path d="M24.023 47.743l.112-.994-1.196-.135.087 1.201.997-.072zm15.952 0l.997.072.088-1.2-1.197.134.112.994zm-.242 1.53l.971.238-.971-.238zm-.219.889l-.97-.24.97.24zm-5.638 5.617l.233.972-.233-.972zm-3.754 0l-.232.972.232-.972zm-5.638-5.617l.971-.24-.971.24zm-.219-.89l-.97.24.97-.24zm-.353-.536c5.375.605 10.8.605 16.175 0l-.224-1.987a70.384 70.384 0 01-15.728 0l-.223 1.987zm16.792.776a10.16 10.16 0 00.268-1.697l-1.995-.145a8.17 8.17 0 01-.215 1.364l1.942.477zm-.219.889l.219-.89-1.942-.477-.219.889 1.942.477zm-6.376 6.35a8.645 8.645 0 006.376-6.35l-1.942-.478a6.645 6.645 0 01-4.9 4.883l.466 1.945zm-4.22 0a9.067 9.067 0 004.22 0l-.465-1.945a7.068 7.068 0 01-3.29 0l-.464 1.945zm-6.376-6.35a8.645 8.645 0 006.377 6.35l.465-1.945a6.645 6.645 0 01-4.9-4.883l-1.942.477zm-.219-.89l.219.89 1.942-.478-.218-.89-1.943.478zm-.268-1.696a10.2 10.2 0 00.268 1.697l1.942-.478a8.198 8.198 0 01-.215-1.364l-1.995.145z" fill="#008CEF"/><path d="M33 8a1 1 0 10-2 0h2zm-2 2.68a1 1 0 102 0h-2zM31 8v2.68h2V8h-2z" fill="#ACE3FF"/><path d="M16.074 23.02l.965.262-.965-.262zM27.09 11.473l-.308-.952.308.952zM15.955 23.462l-.966-.262.966.262zm-.516 10.851l.985-.169-.985.17zm.06.35l-.986.17.986-.17zm1.268 11.89l.2-.98-.2.98zm.98.2l-.2.98.2-.98zm28.506 0l.2.98-.2-.98zm.98-.2l-.2-.98.2.98zm1.28-11.956l.985.168-.985-.168zm.063-.372l-.985-.169.985.169zm-.465-10.688l-.967.254.967-.254zm-.166-.635l.967-.253-.967.253zm-10.7-11.413l.314-.95-.313.95zm11.696 23.98l-.488.873.488-.873zm-33.826-.031l.479.878-.48-.878zm1.924-12.156c1.39-5.127 5.322-9.225 10.358-10.858l-.616-1.903c-5.675 1.84-10.105 6.454-11.672 12.238l1.93.523zm-.12.441l.12-.441-1.93-.523-.12.441 1.93.523zm-.495 10.422a24.222 24.222 0 01.496-10.422l-1.93-.523a26.223 26.223 0 00-.537 11.282l1.971-.337zm.06.35l-.06-.35-1.97.337.06.35 1.97-.337zM13 40.695a4.98 4.98 0 012.594-4.38l-.958-1.755A6.98 6.98 0 0011 40.694h2zm3.966 4.878A4.97 4.97 0 0113 40.694h-2a6.97 6.97 0 005.567 6.838l.4-1.96zm.98.2l-.98-.2-.399 1.96.98.2.4-1.96zm28.107 0a70.393 70.393 0 01-28.106 0l-.4 1.96a72.392 72.392 0 0028.905 0l-.399-1.96zm.98-.2l-.98.2.4 1.96.98-.2-.4-1.96zM51 40.694a4.97 4.97 0 01-3.967 4.879l.4 1.96A6.97 6.97 0 0053 40.693h-2zm-2.547-4.352A4.98 4.98 0 0151 40.694h2a6.98 6.98 0 00-3.57-6.098l-.977 1.746zm-.862-2.286l-.064.372 1.971.337.064-.371-1.971-.338zm-.447-10.265a24.299 24.299 0 01.447 10.265l1.971.338a26.297 26.297 0 00-.483-11.111l-1.935.508zm-.166-.635l.166.635 1.934-.508-.166-.634-1.934.507zM36.931 12.44a15.388 15.388 0 0110.045 10.717l1.935-.507a17.388 17.388 0 00-11.353-12.11l-.627 1.9zm-9.535-.015a15.38 15.38 0 019.535.015l.627-1.9a17.38 17.38 0 00-10.778-.018l.616 1.903zM49.43 34.596a.133.133 0 01.054.057.184.184 0 01.014.112l-1.971-.337a1.846 1.846 0 00.926 1.914l.977-1.746zm-34.917.237a.255.255 0 01.123-.273l.958 1.756a1.746 1.746 0 00.89-1.821l-1.97.338z" fill="#ACE3FF"/></svg>