<svg width="64" height="64" fill="none" xmlns="http://www.w3.org/2000/svg"><path d="M10.223 40.663l.974-.224-.974.224zm0-15.721l.974.223-.974-.223zm43.556 0l-.975.223.975-.223zm0 15.72l-.975-.223.975.224zM39.68 55.09l.233.973-.233-.973zm-15.36 0l.233-.972-.234.972zm0-44.576l.233.973-.234-.973zm15.36 0l.233-.972-.233.972zM22.521 8a1 1 0 00-2 0h2zm-2 6.703a1 1 0 102 0h-2zM43.48 8a1 1 0 10-2 0h2zm-2 6.703a1 1 0 002 0h-2zM11.196 40.44a34.207 34.207 0 010-15.274l-1.949-.447a36.205 36.205 0 000 16.168l1.95-.447zm41.607-15.274a34.206 34.206 0 010 15.274l1.95.447a36.203 36.203 0 000-16.167l-1.95.446zM39.448 54.118a31.882 31.882 0 01-14.894 0l-.467 1.945a33.881 33.881 0 0015.827 0l-.466-1.945zM24.554 11.486a31.882 31.882 0 0114.894 0l.466-1.944a33.882 33.882 0 00-15.827 0l.467 1.944zm0 42.632c-6.616-1.588-11.798-6.88-13.357-13.679l-1.949.447c1.723 7.52 7.465 13.407 14.839 15.177l.467-1.945zm15.36 1.945c7.374-1.77 13.116-7.658 14.84-15.177l-1.95-.447c-1.558 6.799-6.74 12.09-13.356 13.68l.466 1.944zm-.466-44.577c6.616 1.589 11.798 6.88 13.356 13.68l1.95-.447c-1.724-7.52-7.465-13.407-14.84-15.177l-.466 1.944zM24.087 9.543c-7.374 1.77-13.116 7.657-14.839 15.176l1.95.447c1.558-6.798 6.74-12.09 13.356-13.678l-.467-1.945zM20.52 8v6.703h2V8h-2zm20.96 0v6.703h2V8h-2z" fill="#008CEF"/><path d="M9.248 40.886a1 1 0 101.95-.447l-1.95.447zm.975-15.944l-.975-.224.975.224zm43.556 0l.974-.223-.974.223zm0 15.72l-.975-.223.975.224zM39.448 54.119a1 1 0 10.466 1.945l-.466-1.945zM24.32 10.514l-.233-.972.233.972zm15.361 0l.233-.972-.233.972zM22.521 8a1 1 0 00-2 0h2zm-2 6.703a1 1 0 102 0h-2zM43.48 8a1 1 0 10-2 0h2zm-2 6.703a1 1 0 002 0h-2zM11.196 40.44a34.207 34.207 0 010-15.274l-1.949-.447a36.205 36.205 0 000 16.168l1.95-.447zm41.607-15.274a34.206 34.206 0 010 15.274l1.95.447a36.203 36.203 0 000-16.167l-1.95.446zm-28.25-13.678a31.882 31.882 0 0114.894 0l.466-1.945a33.882 33.882 0 00-15.827 0l.467 1.944zm15.36 44.576c7.374-1.77 13.116-7.658 14.84-15.177l-1.95-.447c-1.558 6.799-6.74 12.09-13.356 13.68l.466 1.944zm-.466-44.577c6.616 1.589 11.798 6.88 13.356 13.68l1.95-.447c-1.724-7.52-7.465-13.407-14.84-15.177l-.466 1.944zm-15.36-1.944c-7.374 1.77-13.116 7.657-14.839 15.176l1.95.447c1.558-6.798 6.74-12.09 13.356-13.678l-.467-1.945zM20.52 8v6.703h2V8h-2zm20.96 0v6.703h2V8h-2z" fill="#ACE3FF"/><path d="M20.65 28.193a1 1 0 00-1.3 1.519l1.3-1.519zm2.017 3.045l-.651.76a1 1 0 001.302 0l-.651-.76zm5.984-3.812a1 1 0 00-1.302-1.519l1.302 1.519zm-8 12.196a1 1 0 10-1.302 1.518l1.302-1.518zm2.016 3.045l-.651.759a1 1 0 001.302 0l-.651-.76zm5.984-3.813a1 1 0 00-1.302-1.518l1.302 1.519zm6.016-9.759a1 1 0 100 2v-2zm9.333 2a1 1 0 100-2v2zm-9.333 9.429a1 1 0 100 2v-2zm9.333 2a1 1 0 100-2v2zM19.35 29.712l2.666 2.285 1.302-1.518-2.667-2.286-1.302 1.519zm3.967 2.285l5.334-4.571-1.302-1.519-5.333 4.572 1.302 1.518zM19.35 41.14l2.667 2.286 1.302-1.519-2.667-2.285-1.302 1.518zm3.968 2.286l5.334-4.572-1.302-1.518-5.333 4.571 1.302 1.519zm11.35-12.33H44v-2h-9.333v2zm0 11.428H44v-2h-9.333v2z" fill="#008CEF"/></svg>