<svg width="64" height="64" fill="none" xmlns="http://www.w3.org/2000/svg"><path d="M10.624 30.962l13.69 18.4c3.94 5.295 11.431 5.295 15.371 0l13.691-18.4c3.499-4.702 3.499-11.383 0-16.084C48.256 7.995 36.42 10.039 32 17.463c-4.419-7.424-16.255-9.468-21.376-2.585-3.499 4.701-3.499 11.382 0 16.084z" stroke="#008CEF" stroke-width="2" stroke-linecap="round" stroke-linejoin="round"/><path d="M53.376 30.962l-13.69 18.4c-3.94 5.295-11.431 5.295-15.371 0l-13.691-18.4c-3.499-4.702-3.499-11.383 0-16.084C15.744 7.995 27.58 10.039 32 17.463" stroke="#ACE3FF" stroke-width="2" stroke-linecap="round" stroke-linejoin="round"/></svg>