<svg width="64" height="64" fill="none" xmlns="http://www.w3.org/2000/svg"><path d="M23.868 55.059A20.03 20.03 0 018.94 40.132a35.61 35.61 0 010-16.264A20.03 20.03 0 0123.868 8.94a35.61 35.61 0 0116.264 0A20.03 20.03 0 0155.06 23.868a35.61 35.61 0 010 16.264A20.03 20.03 0 0140.132 55.06a35.61 35.61 0 01-16.264 0z" stroke="#008CEF" stroke-width="2"/><path d="M23.868 55.059a35.61 35.61 0 0016.264 0A20.03 20.03 0 0055.06 40.132a35.61 35.61 0 000-16.264A20.03 20.03 0 0040.132 8.94a35.61 35.61 0 00-16.264 0A20.03 20.03 0 008.94 23.868" stroke="#ACE3FF" stroke-width="2" stroke-linecap="round"/><path d="M32 41.333V30.667M33.667 24a1.667 1.667 0 11-3.333 0 1.667 1.667 0 013.333 0z" stroke="#0095FF" stroke-width="2" stroke-linecap="round" stroke-linejoin="round"/></svg>