<svg width="64" height="64" viewBox="0 0 64 64" fill="none" xmlns="http://www.w3.org/2000/svg">
<path d="M44.9618 40.996C45.0983 41.0412 45.2315 41.096 45.3602 41.1599L49.8505 43.39C53.2888 45.0975 57.3343 42.6142 57.3343 38.7959L57.3343 26.1602C57.3343 22.1259 52.8667 19.6664 49.4224 21.8046L45.4606 24.264C45.2654 24.3852 45.0847 24.528 44.9219 24.6897" stroke="#ACE3FF" stroke-width="2"/>
<path d="M44.4368 40.8223C45.6286 35.5643 45.7416 30.1273 44.7758 24.8353M7.68796 41.1783L7.85234 41.9088C8.84788 46.3334 12.2799 49.8165 16.7121 50.9003C22.7538 52.3778 29.1352 52.3609 35.1769 50.8834C39.5534 49.8132 43.0309 46.4175 44.1321 42.0764L44.1988 41.8136C45.8328 35.3719 45.8328 28.6282 44.1988 22.1864L44.1321 21.9236C43.0309 17.5825 39.5534 14.1868 35.177 13.1166C29.1352 11.6391 22.7538 11.6222 16.712 13.0997C12.2799 14.1835 8.84788 17.6666 7.85234 22.0911L7.68796 22.8217C6.32797 28.866 6.32797 35.134 7.68796 41.1783Z" stroke="#008CEF" stroke-width="2"/>
</svg>
