<svg width="64" height="64" viewBox="0 0 64 64" fill="none" xmlns="http://www.w3.org/2000/svg">
<path d="M36.6713 12.5154C36.6713 10.289 35.0442 8.39688 32.8429 8.06347C32.2842 7.97884 31.7159 7.97884 31.1571 8.06347C28.9558 8.39688 27.3287 10.289 27.3287 12.5155V15.6639C26.071 16.0229 24.8729 16.5231 23.7527 17.1465L21.5255 14.9192C19.9512 13.3449 17.4626 13.1575 15.6703 14.4783C15.2154 14.8136 14.8136 15.2154 14.4783 15.6703C13.1575 17.4627 13.3449 19.9512 14.9192 21.5255L17.1464 23.7527C16.5231 24.8729 16.0229 26.071 15.6639 27.3287H12.5155C10.289 27.3287 8.39689 28.9558 8.06347 31.1571C7.97884 31.7159 7.97884 32.2842 8.06347 32.8429C8.39689 35.0442 10.289 36.6713 12.5154 36.6713H15.6639C16.0229 37.929 16.5231 39.1271 17.1464 40.2473L14.9192 42.4745C13.3449 44.0488 13.1575 46.5374 14.4783 48.3297C14.8136 48.7846 15.2154 49.1865 15.6703 49.5217C17.4627 50.8425 19.9512 50.6551 21.5255 49.0808L23.7527 46.8536C24.8729 47.4769 26.071 47.9772 27.3287 48.3361V51.4846C27.3287 53.711 28.9558 55.6031 31.1571 55.9365C31.7159 56.0212 32.2842 56.0212 32.8429 55.9365C35.0442 55.6031 36.6713 53.711 36.6713 51.4846V48.3361C37.929 47.9772 39.1271 47.4769 40.2473 46.8536L42.4745 49.0808C44.0488 50.6551 46.5374 50.8425 48.3297 49.5217C48.7846 49.1865 49.1865 48.7846 49.5217 48.3297C50.8425 46.5374 50.6551 44.0489 49.0808 42.4746L46.8536 40.2473C47.4769 39.1271 47.9772 37.929 48.3361 36.6713H51.4846C53.711 36.6713 55.6031 35.0442 55.9365 32.8429C56.0212 32.2842 56.0212 31.7159 55.9365 31.1571C55.6031 28.9558 53.711 27.3287 51.4845 27.3287H48.3361C47.9772 26.071 47.4769 24.8729 46.8536 23.7527L49.0808 21.5255C50.6551 19.9512 50.8425 17.4626 49.5217 15.6703C49.1865 15.2154 48.7846 14.8136 48.3297 14.4783C46.5374 13.1575 44.0488 13.3449 42.4745 14.9192L40.2473 17.1464C39.1271 16.5231 37.929 16.0229 36.6713 15.6639V12.5154Z" stroke="#ACE3FF" stroke-width="2" stroke-linecap="round" stroke-linejoin="round"/>
<path d="M48.3297 49.5217C46.5374 50.8425 44.0488 50.6551 42.4745 49.0808L40.2473 46.8536C39.1271 47.4769 37.929 47.9772 36.6713 48.3361V51.4846C36.6713 53.711 35.0442 55.6031 32.8429 55.9365C32.2842 56.0212 31.7159 56.0212 31.1571 55.9365C28.9558 55.6031 27.3287 53.711 27.3287 51.4846V48.3361C26.071 47.9772 24.8729 47.4769 23.7527 46.8536L21.5255 49.0808C19.9512 50.6551 17.4627 50.8425 15.6703 49.5217C15.2154 49.1865 14.8136 48.7846 14.4783 48.3297C13.1575 46.5374 13.3449 44.0488 14.9192 42.4745L17.1464 40.2473C16.5231 39.1271 16.0229 37.929 15.6639 36.6713H12.5154C10.289 36.6713 8.39689 35.0442 8.06347 32.8429C7.97884 32.2842 7.97884 31.7159 8.06347 31.1571C8.39689 28.9558 10.289 27.3287 12.5155 27.3287H15.6639C16.0229 26.071 16.5231 24.8729 17.1464 23.7527L14.9192 21.5255C13.3449 19.9512 13.1575 17.4627 14.4783 15.6703C14.8136 15.2154 15.2154 14.8136 15.6703 14.4783C17.4626 13.1575 19.9512 13.3449 21.5255 14.9192L23.7527 17.1465C24.8729 16.5231 26.071 16.0229 27.3287 15.6639V12.5155C27.3287 10.289 28.9558 8.39688 31.1571 8.06347C31.7159 7.97884 32.2842 7.97884 32.8429 8.06347C35.0442 8.39688 36.6713 10.289 36.6713 12.5154V15.6639C37.929 16.0229 39.1271 16.5231 40.2473 17.1464L42.4745 14.9192C44.0488 13.3449 46.5374 13.1575 48.3297 14.4783" stroke="#008CEF" stroke-width="2" stroke-linecap="round" stroke-linejoin="round"/>
<path d="M25.332 31.9997C25.332 28.3178 28.3168 25.333 31.9987 25.333C35.6806 25.333 38.6654 28.3178 38.6654 31.9997C38.6654 35.6816 35.6806 38.6663 31.9987 38.6663C28.3168 38.6663 25.332 35.6816 25.332 31.9997Z" stroke="#0095FF" stroke-width="2"/>
</svg>
