<svg width="64" height="64" viewBox="0 0 64 64" fill="none" xmlns="http://www.w3.org/2000/svg">
<path d="M15.0294 53.333C11.673 49.9171 9.38722 45.5649 8.46117 40.8268C7.53512 36.0888 8.0104 31.1777 9.8269 26.7145C11.6434 22.2514 14.7195 18.4366 18.6663 15.7528C22.6131 13.0689 27.2532 11.6363 32 11.6363C36.7467 11.6363 41.3869 13.0688 45.3337 15.7527C49.2804 18.4366 52.3566 22.2513 54.1731 26.7145C55.9896 31.1776 56.4649 36.0887 55.5388 40.8268C54.6128 45.5648 52.327 49.917 48.9706 53.333" stroke="#ACE3FF" stroke-width="2" stroke-linecap="round"/>
<path d="M20.6863 48C18.4487 45.8154 16.9248 43.032 16.3074 40.0018C15.6901 36.9716 16.0069 33.8308 17.2179 30.9764C18.4289 28.1221 20.4797 25.6824 23.1109 23.9659C25.7421 22.2495 28.8355 21.3333 32 21.3333C35.1645 21.3333 38.2579 22.2495 40.8891 23.9659C43.5203 25.6824 45.5711 28.122 46.7821 30.9764C47.9931 33.8308 48.3099 36.9716 47.6926 40.0018C47.0752 43.032 45.5514 45.8153 43.3137 48" stroke="#008CEF" stroke-width="2" stroke-linecap="round"/>
<path d="M26.3432 42.667C25.2243 41.5747 24.4624 40.183 24.1537 38.6679C23.845 37.1528 24.0035 35.5824 24.609 34.1552C25.2145 32.728 26.2398 31.5082 27.5554 30.65C28.871 29.7917 30.4177 29.3337 32 29.3337C33.5822 29.3337 35.129 29.7917 36.4446 30.65C37.7601 31.5082 38.7855 32.728 39.391 34.1552C39.9965 35.5824 40.155 37.1528 39.8463 38.6679C39.5376 40.183 38.7757 41.5747 37.6569 42.667" stroke="#008CEF" stroke-width="2" stroke-linecap="round"/>
</svg>
