<svg width="64" height="64" viewBox="0 0 64 64" fill="none" xmlns="http://www.w3.org/2000/svg">
<path d="M31.9987 10.667C41.462 10.667 49.2427 17.406 50.1549 26.0334C55.1595 28.2071 58.6654 33.2444 58.6654 39.1114C58.6654 46.9662 52.3816 53.3337 44.6303 53.3337L17.9636 53.3337C10.9874 53.3337 5.33203 47.6029 5.33203 40.5337C5.33203 34.9544 8.85468 30.2088 13.7691 28.4563C13.7585 28.2166 13.7531 27.9757 13.7531 27.7337C13.7531 18.308 21.9219 10.667 31.9987 10.667Z" stroke="#ACE3FF" stroke-width="2"/>
<path d="M31.9987 10.667C21.9219 10.667 13.7531 18.308 13.7531 27.7337C13.7531 27.9757 13.7585 28.2166 13.7691 28.4563C8.85468 30.2088 5.33203 34.9544 5.33203 40.5337C5.33203 47.6029 10.9874 53.3337 17.9636 53.3337L44.6303 53.3337C52.3816 53.3337 58.6654 46.9662 58.6654 39.1114" stroke="#008CEF" stroke-width="2" stroke-linecap="round"/>
</svg>
