<svg width="64" height="64" viewBox="0 0 64 64" fill="none" xmlns="http://www.w3.org/2000/svg">
<path d="M9.25808 36.1452L10.2187 35.8672L9.25808 36.1452ZM9.25808 18.4174L8.29749 18.1394L8.29749 18.1394L9.25808 18.4174ZM54.7419 18.4174L55.7025 18.1395L55.7025 18.1395L54.7419 18.4174ZM54.7419 36.1452L53.7813 35.8672L53.7813 35.8672L54.7419 36.1452ZM44.8394 45.3534L44.6526 44.371L44.8394 45.3534ZM19.1606 45.3534L19.3474 44.371L19.1606 45.3534ZM19.1606 9.20918L18.9738 8.22678V8.22678L19.1606 9.20918ZM44.8394 9.20918L45.0262 8.22678L44.8394 9.20918ZM9.3868 36.59L8.42621 36.868H8.42621L9.3868 36.59ZM54.6132 36.59L55.5738 36.868V36.8679L54.6132 36.59ZM54.6132 17.9726L53.6526 18.2506V18.2506L54.6132 17.9726ZM9.3868 17.9726L10.3474 18.2506L9.3868 17.9726ZM33 47.7947C33 47.2424 32.5523 46.7947 32 46.7947C31.4477 46.7947 31 47.2424 31 47.7947H33ZM31 56C31 56.5523 31.4477 57 32 57C32.5523 57 33 56.5523 33 56H31ZM24.9703 55C24.418 55 23.9703 55.4477 23.9703 56C23.9703 56.5523 24.418 57 24.9703 57V55ZM39.0297 57C39.582 57 40.0297 56.5523 40.0297 56C40.0297 55.4477 39.582 55 39.0297 55V57ZM53.6526 18.2506L53.7813 18.6954L55.7025 18.1395L55.5738 17.6946L53.6526 18.2506ZM53.7813 35.8672L53.6526 36.312L55.5738 36.8679L55.7025 36.4231L53.7813 35.8672ZM10.3474 36.312L10.2187 35.8672L8.2975 36.4232L8.42621 36.868L10.3474 36.312ZM10.2187 18.6954L10.3474 18.2506L8.42621 17.6946L8.29749 18.1394L10.2187 18.6954ZM10.2187 35.8672C8.59378 30.2522 8.59378 24.3104 10.2187 18.6954L8.29749 18.1394C6.5675 24.1177 6.5675 30.4449 8.2975 36.4232L10.2187 35.8672ZM53.7813 18.6954C55.4062 24.3104 55.4062 30.2522 53.7813 35.8672L55.7025 36.4231C57.4325 30.4449 57.4325 24.1177 55.7025 18.1395L53.7813 18.6954ZM44.6526 44.371C36.2967 45.9598 27.7033 45.9598 19.3474 44.371L18.9738 46.3358C27.5766 47.9715 36.4234 47.9715 45.0262 46.3358L44.6526 44.371ZM19.3474 10.1916C27.7033 8.60281 36.2967 8.60281 44.6526 10.1916L45.0262 8.22678C36.4234 6.59107 27.5766 6.59107 18.9738 8.22678L19.3474 10.1916ZM19.3474 44.371C15.0087 43.5461 11.5362 40.42 10.3474 36.312L8.42621 36.868C9.83093 41.7221 13.9184 45.3746 18.9738 46.3358L19.3474 44.371ZM45.0262 46.3358C50.0816 45.3746 54.1691 41.7221 55.5738 36.868L53.6526 36.312C52.4638 40.42 48.9913 43.5461 44.6526 44.371L45.0262 46.3358ZM44.6526 10.1916C48.9913 11.0165 52.4638 14.1426 53.6526 18.2506L55.5738 17.6946C54.1691 12.8405 50.0816 9.18799 45.0262 8.22678L44.6526 10.1916ZM18.9738 8.22678C13.9184 9.18799 9.83093 12.8405 8.42621 17.6946L10.3474 18.2506C11.5362 14.1426 15.0087 11.0165 19.3474 10.1916L18.9738 8.22678ZM31 47.7947V56H33V47.7947H31ZM24.9703 57H39.0297V55H24.9703V57Z" fill="#ACE3FF"/>
<path d="M21.332 30L28.1528 24.6287C28.5286 24.3327 28.7165 24.1847 28.9243 24.2111C29.132 24.2375 29.277 24.4278 29.5669 24.8083L34.4305 31.1917C34.7204 31.5722 34.8653 31.7625 35.0731 31.7889C35.2809 31.8153 35.4688 31.6673 35.8446 31.3713L42.6654 26" stroke="#008CEF" stroke-width="2" stroke-linecap="round"/>
</svg>
