<svg width="41" height="41" fill="none" xmlns="http://www.w3.org/2000/svg"><path d="M23.063 28.187a2.563 2.563 0 11-5.125 0 2.563 2.563 0 015.125 0z" fill="url(#paint0_linear)"/><path d="M19.757 10.25c-.986 0-1.767.831-1.705 1.815l.69 11.05c.028.45.402.801.853.801h1.812c.45 0 .824-.35.852-.8l.69-11.051a1.708 1.708 0 00-1.704-1.815h-1.488z" fill="url(#paint1_linear)"/><path fill-rule="evenodd" clip-rule="evenodd" d="M12.46 2.208c.32-.32.754-.5 1.207-.5h13.667c.453 0 .888.18 1.208.5l10.25 10.25c.32.32.5.755.5 1.208v13.667c0 .453-.18.888-.5 1.208l-10.25 10.25c-.32.32-.755.5-1.208.5H13.667a1.71 1.71 0 01-1.208-.5L2.21 28.541a1.71 1.71 0 01-.5-1.208V13.666c0-.453.18-.887.5-1.208l10.25-10.25zm1.915 2.917l-9.25 9.249v12.251l9.25 9.25h12.251l9.25-9.25V14.374l-9.25-9.25H14.375z" fill="url(#paint2_linear)"/><defs><linearGradient id="paint0_linear" x1="20.501" y1="1.708" x2="20.501" y2="39.291" gradientUnits="userSpaceOnUse"><stop stop-color="#00B1DB" stop-opacity=".53"/><stop offset="1" stop-color="#C70093" stop-opacity=".82"/></linearGradient><linearGradient id="paint1_linear" x1="20.501" y1="1.708" x2="20.501" y2="39.291" gradientUnits="userSpaceOnUse"><stop stop-color="#00B1DB" stop-opacity=".53"/><stop offset="1" stop-color="#C70093" stop-opacity=".82"/></linearGradient><linearGradient id="paint2_linear" x1="20.501" y1="1.708" x2="20.501" y2="39.291" gradientUnits="userSpaceOnUse"><stop stop-color="#00B1DB" stop-opacity=".53"/><stop offset="1" stop-color="#C70093" stop-opacity=".82"/></linearGradient></defs></svg>