<svg width="41" height="41" fill="none" xmlns="http://www.w3.org/2000/svg"><path fill-rule="evenodd" clip-rule="evenodd" d="M13.048 2.872c1.31-.813 2.995-1.164 4.89-1.164.614 0 1.18.329 1.484.86 1.433 2.508 3.1 4.232 4.824 6.014.18.185.36.371.54.56 1.67 1.736 3.361 3.6 4.55 6.233h6.54c.943 0 1.708.765 1.708 1.708v17.083c0 .944-.765 1.709-1.708 1.709h-7.552l-13.307 2.129c-5.19.83-9.891-3.179-9.891-8.435v-5.324l-1.42-3.55c-1.346-3.365 1.129-7.029 4.756-7.029h4.303a17.149 17.149 0 01-1.307-2.337c-.736-1.62-1.093-3.246-.868-4.75.236-1.57 1.09-2.86 2.458-3.707zm16.849 29.586h4.27V18.791h-4.27v13.667zM26.48 17.394c-.93-2.384-2.379-4.035-4.157-5.885l-.543-.562c-1.528-1.576-3.252-3.355-4.783-5.781-1 .092-1.696.329-2.15.61-.526.327-.793.746-.878 1.31-.095.632.028 1.57.6 2.832.567 1.248 1.528 2.71 2.947 4.332a1.708 1.708 0 01-1.286 2.833H8.462a1.707 1.707 0 00-1.584 2.343l1.542 3.856c.081.202.123.417.123.634v5.653a5.125 5.125 0 005.934 5.061l12.003-1.92V17.394z" fill="url(#paint0_linear)"/><defs><linearGradient id="paint0_linear" x1="20.459" y1="1.708" x2="20.459" y2="38.113" gradientUnits="userSpaceOnUse"><stop stop-color="#00B1DB" stop-opacity=".53"/><stop offset="1" stop-color="#C70093" stop-opacity=".82"/></linearGradient></defs></svg>