<svg width="41" height="41" viewBox="0 0 41 41" fill="none" xmlns="http://www.w3.org/2000/svg">
<path fill-rule="evenodd" clip-rule="evenodd" d="M13.048 2.87179C14.3589 2.05938 16.0431 1.70801 17.9385 1.70801C18.5515 1.70801 19.1175 2.0365 19.4217 2.56877C20.8546 5.07642 22.522 6.80002 24.2458 8.58186C24.4252 8.76731 24.6052 8.9534 24.7856 9.14106C26.4557 10.8781 28.1473 12.7417 29.336 15.3747H35.876C36.8194 15.3747 37.5843 16.1395 37.5843 17.083V34.1663C37.5843 35.1098 36.8194 35.8747 35.876 35.8747H28.3243L15.0171 38.0038C9.82735 38.8342 5.12596 34.8252 5.12596 29.5694V24.2453L3.70571 20.6947C2.35976 17.3298 4.83457 13.6663 8.462 13.6663H12.765C12.2387 12.8679 11.8018 12.0871 11.4579 11.3292C10.7225 9.70811 10.3646 8.0832 10.5902 6.57959C10.8258 5.00884 11.68 3.71957 13.048 2.87179ZM29.8968 32.458H34.1676V18.7913H29.8968V32.458ZM26.4801 17.3944C25.5499 15.0102 24.101 13.3588 22.3226 11.509C22.1449 11.3242 21.9637 11.1372 21.7797 10.9473C20.2517 9.37074 18.5279 7.59216 16.997 5.16563C15.9967 5.25765 15.3014 5.49487 14.8478 5.77599C14.3206 6.10269 14.0537 6.52176 13.969 7.08642C13.8743 7.71824 13.9969 8.65582 14.5694 9.91754C15.1358 11.166 16.097 12.6283 17.5158 14.2497C17.9572 14.7542 18.0628 15.4702 17.7858 16.0806C17.5088 16.691 16.9004 17.083 16.2301 17.083H8.462C7.2551 17.083 6.42852 18.3021 6.878 19.4258L8.42044 23.2819C8.50115 23.4837 8.54262 23.699 8.54262 23.9163V29.5694C8.54262 32.7229 11.3635 35.1283 14.4773 34.6301L26.4801 32.7096V17.3944Z" fill="url(#paint0_linear)"/>
<defs>
<linearGradient id="paint0_linear" x1="20.4591" y1="1.70801" x2="20.4591" y2="38.1131" gradientUnits="userSpaceOnUse">
<stop stop-color="#00B1DB" stop-opacity="0.53"/>
<stop offset="1" stop-color="#C70093" stop-opacity="0.82"/>
</linearGradient>
</defs>
</svg>
